<?xml version="1.0" encoding="utf-8"?>
<!-- Generator: Adobe Illustrator 16.0.0, SVG Export Plug-In . SVG Version: 6.00 Build 0)  -->
<!DOCTYPE svg PUBLIC "-//W3C//DTD SVG 1.1//EN" "http://www.w3.org/Graphics/SVG/1.1/DTD/svg11.dtd">
<svg version="1.1" id="Illustration" xmlns="http://www.w3.org/2000/svg" xmlns:xlink="http://www.w3.org/1999/xlink" x="0px"
	 y="0px" width="2475px" height="1650px" viewBox="0 0 2475 1650" enable-background="new 0 0 2475 1650" xml:space="preserve">
<path fill="#DBF9EF" d="M1161.246,1487.507c0,0-692.057,8.132-884.825-174.79s-120.208-365.282,27.392-416.943
	c147.602-51.66,172.777-105.384,93.355-177.853c-79.421-72.469-180.289-221.225-12.809-370.716
	c167.482-149.49,358.586,65.229,508.275,36.716c149.688-28.513,90.402-124.542,287.256-58.224
	c196.854,66.318,153.449-126.771,311.706-144.272c158.257-17.501,142.035,200.835,304.815,118.418
	c162.779-82.417,295.924-71.043,365.906,59.843c69.982,130.887,39.583,307.175-113.948,412.235
	c-153.53,105.061-137.052,97.896-79.673,201.134c57.379,103.236,108.83,442.731-152.383,491.221
	C1555.101,1512.765,1161.246,1487.507,1161.246,1487.507z"/>
</svg>
