<?xml version="1.0" encoding="utf-8"?>
<!-- Generator: Adobe Illustrator 16.0.0, SVG Export Plug-In . SVG Version: 6.00 Build 0)  -->
<!DOCTYPE svg PUBLIC "-//W3C//DTD SVG 1.1//EN" "http://www.w3.org/Graphics/SVG/1.1/DTD/svg11.dtd">
<svg version="1.1" xmlns="http://www.w3.org/2000/svg" xmlns:xlink="http://www.w3.org/1999/xlink" x="0px" y="0px"
	 width="930.866px" height="1392px" viewBox="0 0 930.866 1392" enable-background="new 0 0 930.866 1392" xml:space="preserve">
<g id="Background">
</g>
<g id="Illustration">
	<g>
		<linearGradient id="SVGID_1_" gradientUnits="userSpaceOnUse" x1="838.5479" y1="146.5752" x2="636.9827" y2="448.9226">
			<stop  offset="0" style="stop-color:#FEBBBA"/>
			<stop  offset="1" style="stop-color:#FF928E"/>
		</linearGradient>
		<path fill="url(#SVGID_1_)" d="M822.755,149.85l-21.569,22.511c4.51,8.13,10.01,14.989,12.59,24.88
			c1.96,7.479,0.76,15.47-3.01,22.25c-3.79,6.79-8.95,15.68-13.84,22.6c-1.2,1.7-2.46,3.18-3.75,4.47
			c-0.46,39.261-11.67,194.221-159.5,196.99c-6.2,0.11-11.85-3.67-14.07-9.46l-14.23-36.979c-3.61-9.4,3.04-19.511,13.101-19.971
			c25.58-1.18,70.05-9.25,107.689-46.89c15.61-15.61,23.88-57.53,27.82-85.75c-1.05-11.37-3.57-33.94,0.05-38.9
			c22.93-31.239,67.39-70.439,67.39-70.439C828.946,142.58,822.755,149.85,822.755,149.85z"/>
		
			<linearGradient id="SVGID_2_" gradientUnits="userSpaceOnUse" x1="8730.2949" y1="706.5156" x2="9133.7852" y2="244.9816" gradientTransform="matrix(0.9941 -0.1087 0.1087 0.9941 -8406.8203 899.4111)">
			<stop  offset="0" style="stop-color:#FF928E"/>
			<stop  offset="1" style="stop-color:#FEB3B1"/>
		</linearGradient>
		<path fill="url(#SVGID_2_)" d="M418.727,426.448c0,0-65.212,52.459-82.359,125.285c-17.148,72.837,92.734,82.35,92.734,82.35
			s15.201-16.411,32.834-10.178c17.633,6.216,1.842-29.108-18.903-29.362c-20.746-0.254-11.399,16.334-40.53,2.598
			c-28.378-13.43-45.4-53.766,28.512-113.328c4.284-3.439,7.728-7.83,9.842-12.939C455.602,435.433,444.738,411.896,418.727,426.448
			z"/>
		
			<linearGradient id="SVGID_3_" gradientUnits="userSpaceOnUse" x1="1186.5659" y1="1074.2969" x2="1383.103" y2="1074.2969" gradientTransform="matrix(-1 0 0 1 1639.2012 0)">
			<stop  offset="0" style="stop-color:#FEBBBA"/>
			<stop  offset="1" style="stop-color:#FF928E"/>
		</linearGradient>
		<path fill="url(#SVGID_3_)" d="M452.635,892.864c0,0-105.135,229.146-160.297,324.057c0,0-10.956,59.721,0,78.5l9.337,4.15
			l-43.575-1.297c0,0-3.871-80.33-0.848-84.816c3.023-4.488,9.069-4.194,9.069-4.194s18.686-148.028,72.796-179.62l52.441-180.621
			L452.635,892.864z"/>
		
			<linearGradient id="SVGID_4_" gradientUnits="userSpaceOnUse" x1="1456.7085" y1="634.79" x2="1359.3789" y2="1267.4294" gradientTransform="matrix(-1 0 0 1 1639.2012 0)">
			<stop  offset="0" style="stop-color:#394265"/>
			<stop  offset="1" style="stop-color:#3B3A6C"/>
		</linearGradient>
		<path fill="url(#SVGID_4_)" d="M320.285,1310.821c0.065,1.051-34.026,0.569-52.544,0.232c-6.838-0.125-12.667-4.932-14.125-11.613
			l-13.985-73.473c-1.329-6.982,3.105-13.765,10.033-15.349l7.806-1.784c0,0,11.137,15.275,7.631,29.658
			c-3.506,14.382-6.625,51.637,2.233,55.978c8.858,4.341,34.341,5.101,34.341,5.101S319.703,1301.358,320.285,1310.821z"/>
		
			<linearGradient id="SVGID_5_" gradientUnits="userSpaceOnUse" x1="5877.9858" y1="33.3496" x2="5225.1914" y2="1187.1271" gradientTransform="matrix(-1 0 0 1 5735.874 0)">
			<stop  offset="0" style="stop-color:#394265"/>
			<stop  offset="1" style="stop-color:#3B3A6C"/>
		</linearGradient>
		<path fill="url(#SVGID_5_)" d="M345.05,1007.416l56.976-315.559l105.186,65.741c0,0-70.726,197.703-109.568,276.113
			c-38.843,78.41-92.038,166.545-92.038,166.545s-17.532,4.383-39.445-21.914C266.16,1178.343,279.308,1060.009,345.05,1007.416z"/>
		
			<linearGradient id="SVGID_6_" gradientUnits="userSpaceOnUse" x1="1250.7695" y1="603.0908" x2="1153.4373" y2="1235.7476" gradientTransform="matrix(-1 0 0 1 1639.2012 0)">
			<stop  offset="0" style="stop-color:#394265"/>
			<stop  offset="1" style="stop-color:#3B3A6C"/>
		</linearGradient>
		<path fill="url(#SVGID_6_)" d="M552.286,1312.153c3.448,1.965,2.025,7.229-1.943,7.19c-30.99-0.313-100.433-1.292-106.604-3.858
			c-7.966-3.313,2.904-31.94,14.344-41.631l63.166,20.616L552.286,1312.153z"/>
		
			<linearGradient id="SVGID_8_" gradientUnits="userSpaceOnUse" x1="1067.3096" y1="1088.9111" x2="1181.1191" y2="1088.9111" gradientTransform="matrix(-1 0 0 1 1639.2012 0)">
			<stop  offset="0" style="stop-color:#FEBBBA"/>
			<stop  offset="1" style="stop-color:#FF928E"/>
		</linearGradient>
		<path fill="url(#SVGID_8_)" d="M571.892,878.251c0,0-67.941,328.674-87.159,392.787l45.466,28.533c0,0-22.785-3.876-39.681-5.101
			c-16.896-1.224-32.436-20.616-32.436-20.616l5.446-8.688c0,0,17.039-326.884,12.89-364.002L571.892,878.251z"/>
		<path fill="#92ECD0" d="M599.673,357.145c-26.042,7.222-114.267,30.431-169.345,29.482l33.817,190.833l-2.691,31.125
			l110.256-0.493c0,0,31.038-72.083,55.526-108.021c7.073-10.381,1.809-22.76-2.199-34.662l5.507-3.668
			c5.605-3.73,8.035-10.74,5.943-17.141l-26.849-82.146C608.244,358.313,603.884,355.977,599.673,357.145z"/>
		
			<linearGradient id="SVGID_9_" gradientUnits="userSpaceOnUse" x1="5665.3364" y1="-86.9639" x2="5012.543" y2="1066.8113" gradientTransform="matrix(-1 0 0 1 5735.874 0)">
			<stop  offset="0" style="stop-color:#394265"/>
			<stop  offset="1" style="stop-color:#3B3A6C"/>
		</linearGradient>
		<path fill="url(#SVGID_9_)" d="M580.545,591.803l-1.634,14.211c-0.336,2.916-0.017,5.839,0.961,8.606
			c5.23,14.806,21.782,70.479,10.611,156.127c0,0-63.904,24.666-131.156,5.806c-37.883-10.624-61.962-47.651-56.509-86.616
			c1.54-11.004,4.332-19.707,5.439-23.25c8.814-28.229,36.246-47.771,47.887-55.002c3.349-2.08,5.431-5.697,5.614-9.634
			l0.655-14.066C462.414,587.984,551.396,604.072,580.545,591.803z"/>
		
			<linearGradient id="SVGID_10_" gradientUnits="userSpaceOnUse" x1="1101.811" y1="344.4199" x2="1171.4565" y2="344.4199" gradientTransform="matrix(-1 0 0 1 1639.2012 0)">
			<stop  offset="0" style="stop-color:#FEBBBA"/>
			<stop  offset="1" style="stop-color:#FF928E"/>
		</linearGradient>
		<path fill="url(#SVGID_10_)" d="M537.385,372.525c0.387-0.511-23.018-70.663-23.018-70.663l-33.526,3.039l-13.097,79.586
			C467.745,384.487,520.286,395.093,537.385,372.525z"/>
		
			<linearGradient id="SVGID_11_" gradientUnits="userSpaceOnUse" x1="1212.5" y1="254.417" x2="1719.4305" y2="288.8882" gradientTransform="matrix(-1 0 0 1 1639.2012 0)">
			<stop  offset="0" style="stop-color:#FEBBBA"/>
			<stop  offset="1" style="stop-color:#FF928E"/>
		</linearGradient>
		<path fill="url(#SVGID_11_)" d="M488.868,191.229c2.236,1.392,71.64,30.074,56.728,102.13c-0.881,4.258-3.722,7.866-7.693,9.638
			c-10.185,4.543-32.111,12.321-58.337,9.656c-36.358-3.695-60.183-67.142-59.169-85.604
			C421.409,208.587,466.711,177.433,488.868,191.229z"/>
		
			<linearGradient id="SVGID_12_" gradientUnits="userSpaceOnUse" x1="5927.3169" y1="206.4453" x2="5686.4844" y2="673.992" gradientTransform="matrix(1 0 0 1 -5418.5991 0)">
			<stop  offset="0" style="stop-color:#394265"/>
			<stop  offset="1" style="stop-color:#3B3A6C"/>
		</linearGradient>
		<path fill="url(#SVGID_12_)" d="M512.418,336.714c0-13.563-2.838-26.461-7.95-38.137c-5.759-13.158-4.574-28.53,4.636-39.551
			c15.078-18.04,20.549-40.91,12.239-60.938c-12.975-31.268-54.577-43.716-92.918-27.805c-27.181,11.279-45.397,33.777-49.08,57.061
			c-2.117,13.377-9.28,25.317-20.046,33.537c-15.266,11.656-26.898,27.822-32.926,46.51c-4.074,12.631-12.266,23.502-23.794,30.078
			c-26.03,14.848-47.728,37.777-60.87,67.201c-32.96,73.798,0.34,160.43,74.38,193.5c74.041,33.068,160.781,0.051,193.742-73.746
			c18.313-41,16.147-85.947-2.075-123.48c-4.573-9.421-5.53-20.267-1.741-30.028C510.133,360.305,512.418,348.784,512.418,336.714z"
			/>
		
			<linearGradient id="SVGID_13_" gradientUnits="userSpaceOnUse" x1="5792.936" y1="-14.7676" x2="5140.1421" y2="1139.0087" gradientTransform="matrix(-1 0 0 1 5735.874 0)">
			<stop  offset="0" style="stop-color:#394265"/>
			<stop  offset="1" style="stop-color:#3B3A6C"/>
		</linearGradient>
		<path fill="url(#SVGID_13_)" d="M454.618,1248.467c-5.959-1.702,21.915-442.658,21.915-442.658l-17.532-43.827l131.483,8.766
			c0,0-52.593,398.83-83.272,482.103C507.211,1252.85,485.298,1257.231,454.618,1248.467z"/>
		
			<linearGradient id="SVGID_14_" gradientUnits="userSpaceOnUse" x1="5449.5942" y1="-95.1836" x2="5070.063" y2="744.8459" gradientTransform="matrix(-1 0 0 1 5735.874 0)">
			<stop  offset="0" style="stop-color:#394265"/>
			<stop  offset="1" style="stop-color:#3B3A6C"/>
		</linearGradient>
		<path fill="url(#SVGID_14_)" d="M571.892,364.45l-24.198,5.781c0,0,16.494,163.847-27.333,225.205l26.296,4.383
			C546.656,599.819,592.744,505.999,571.892,364.45z"/>
	</g>
</g>
</svg>
