<?xml version="1.0" encoding="utf-8"?>
<!-- Generator: Adobe Illustrator 16.0.0, SVG Export Plug-In . SVG Version: 6.00 Build 0)  -->
<!DOCTYPE svg PUBLIC "-//W3C//DTD SVG 1.1//EN" "http://www.w3.org/Graphics/SVG/1.1/DTD/svg11.dtd">
<svg version="1.1" id="Illustration" xmlns="http://www.w3.org/2000/svg" xmlns:xlink="http://www.w3.org/1999/xlink" x="0px"
	 y="0px" width="803.762px" height="594.876px" viewBox="0 0 803.762 594.876" enable-background="new 0 0 803.762 594.876"
	 xml:space="preserve">
<g>
	<g>
		<path fill="#91B3FA" d="M83.991,396.342c-0.296,12.687-2.713,53.322,3.464,62.016c8.744,12.306,82.255,6.477,100.229,1.619
			c17.973-4.857,9.229-50.52,7.286-63.635c-1.943-13.115-38.274-13.602-65.042-13.115C103.161,383.713,84.252,385.17,83.991,396.342
			z"/>
		<linearGradient id="SVGID_1_" gradientUnits="userSpaceOnUse" x1="189.4424" y1="408.5146" x2="193.1807" y2="408.5146">
			<stop  offset="0" style="stop-color:#DAE3FE"/>
			<stop  offset="1" style="stop-color:#E9EFFD"/>
		</linearGradient>
		<path fill="url(#SVGID_1_)" d="M192.426,417.125c-0.378,0-0.705-0.283-0.748-0.668c-0.619-5.484-1.412-10.514-1.992-14.187
			l-0.234-1.497c-0.064-0.411,0.217-0.797,0.628-0.861c0.407-0.062,0.797,0.217,0.862,0.629l0.234,1.494
			c0.581,3.688,1.377,8.734,2,14.252c0.047,0.414-0.25,0.787-0.664,0.834C192.482,417.124,192.455,417.125,192.426,417.125z"/>
		<linearGradient id="SVGID_2_" gradientUnits="userSpaceOnUse" x1="169.3359" y1="442.7275" x2="194.165" y2="442.7275">
			<stop  offset="0" style="stop-color:#DAE3FE"/>
			<stop  offset="1" style="stop-color:#E9EFFD"/>
		</linearGradient>
		<path fill="url(#SVGID_2_)" d="M170.089,459.797c-0.372,0-0.695-0.274-0.746-0.652c-0.056-0.414,0.235-0.793,0.647-0.848
			c5.68-0.76,10.225-1.58,13.143-2.368c7.108-1.921,10.266-11.839,9.383-29.479c-0.021-0.416,0.299-0.77,0.715-0.79
			c0.397-0.013,0.77,0.299,0.791,0.715c0.923,18.445-2.608,28.878-10.495,31.01c-2.981,0.806-7.593,1.638-13.337,2.407
			C170.156,459.795,170.123,459.797,170.089,459.797z"/>
		<linearGradient id="SVGID_3_" gradientUnits="userSpaceOnUse" x1="87.9336" y1="435.3091" x2="90.0332" y2="435.3091">
			<stop  offset="0" style="stop-color:#DAE3FE"/>
			<stop  offset="1" style="stop-color:#E9EFFD"/>
		</linearGradient>
		<path fill="url(#SVGID_3_)" d="M89.279,442.731c-0.387,0-0.715-0.294-0.751-0.687c-0.337-3.725-0.538-8.232-0.595-13.396
			c-0.004-0.416,0.33-0.757,0.746-0.762c0.438,0.022,0.758,0.33,0.762,0.746c0.057,5.123,0.254,9.591,0.589,13.277
			c0.038,0.414-0.269,0.781-0.683,0.818C89.324,442.73,89.301,442.731,89.279,442.731z"/>
		<linearGradient id="SVGID_4_" gradientUnits="userSpaceOnUse" x1="88.1523" y1="399.458" x2="119.665" y2="399.458">
			<stop  offset="0" style="stop-color:#DAE3FE"/>
			<stop  offset="1" style="stop-color:#E9EFFD"/>
		</linearGradient>
		<path fill="url(#SVGID_4_)" d="M88.906,412.244c-0.008,0-0.015,0-0.022,0c-0.416-0.012-0.743-0.359-0.731-0.775
			c0.074-2.448,0.154-4.732,0.226-6.766c0.08-2.279,0.149-4.24,0.185-5.76c0.211-9.029,12.271-11.436,30.313-12.271
			c0.421-0.021,0.77,0.303,0.789,0.718c0.02,0.416-0.303,0.77-0.719,0.788c-20.353,0.941-28.719,4.071-28.875,10.8
			c-0.036,1.523-0.105,3.492-0.186,5.777c-0.072,2.031-0.152,4.313-0.225,6.758C89.648,411.922,89.313,412.244,88.906,412.244z"/>
		<linearGradient id="SVGID_5_" gradientUnits="userSpaceOnUse" x1="126.6104" y1="424.4727" x2="156.8662" y2="424.4727">
			<stop  offset="0" style="stop-color:#DAE3FE"/>
			<stop  offset="1" style="stop-color:#E9EFFD"/>
		</linearGradient>
		<path fill="url(#SVGID_5_)" d="M128.807,439.311c-0.814,0-1.484-0.648-1.506-1.467l-0.689-25.713
			c-0.022-0.849,0.388-1.632,1.096-2.096c0.709-0.465,1.592-0.529,2.359-0.17l25.4,11.881c0.838,0.392,1.374,1.21,1.398,2.135
			c0.025,0.926-0.467,1.771-1.283,2.207L133.16,438.04c-0.736,0.392-1.648,0.112-2.039-0.621c-0.393-0.734-0.114-1.647,0.62-2.04
			l21.384-11.399L129.651,413l0.663,24.763c0.021,0.833-0.635,1.524-1.467,1.548C128.834,439.311,128.82,439.311,128.807,439.311z"
			/>
	</g>
	<g>
		<path fill="#91B3FA" d="M563.021,318.553v102.202c0,12.144,9.541,22.144,21.672,22.714l127.806,6.004
			c12.962,0.609,23.806-9.736,23.806-22.713V318.553c0-12.559-10.182-22.738-22.738-22.738H585.76
			C573.201,295.814,563.021,305.994,563.021,318.553z"/>
		<linearGradient id="SVGID_6_" gradientUnits="userSpaceOnUse" x1="585.6572" y1="368.8872" x2="715.7637" y2="368.8872">
			<stop  offset="0" style="stop-color:#DAE3FE"/>
			<stop  offset="1" style="stop-color:#E9EFFD"/>
		</linearGradient>
		<path fill="url(#SVGID_6_)" d="M609.321,424.404c-1.651,0-3.048-0.021-4.153-0.043c-1.887-0.037-3.436-1.428-3.676-3.303
			c-0.242-1.89,0.913-3.635,2.746-4.152l0.006-0.002c9.815-2.75,20.512-7.424,28.393-11.209
			c-37.582-3.064-45.085-22.366-46.535-31.195c-3.658-22.266,15.666-47.46,43.077-56.163c27.974-8.874,56.308-5.677,72.196,8.149
			c8.443,7.35,17.602,21.421,13.283,46.744C706.582,420.607,632.696,424.404,609.321,424.404z M606.091,423.469L606.091,423.469
			L606.091,423.469z M605.309,417.541c0,0,0.008,0,0.01,0C605.316,417.541,605.313,417.541,605.309,417.541z M659.608,399.015
			l-11.907,6.638c-0.627,0.35-11.107,6.161-23.853,11.492c29.015-1.75,78.103-9.947,84.087-45.061
			c3.037-17.823-0.674-31.435-11.035-40.451c-16.074-13.99-44.555-13.488-65.658-6.795c-23.898,7.588-41.488,29.822-38.411,48.557
			c2.794,17.006,22.159,26.52,53.147,25.869L659.608,399.015z"/>
	</g>
	<g>
		<path fill="#7D97F4" d="M426.363,265.963H311.378c-8.794,0-15.923-7.129-15.923-15.922V134.746c0-8.295,6.369-15.201,14.639-15.87
			l122.51-9.915c9.65-0.781,17.759,7.16,17.178,16.825l-7.523,125.21C441.752,259.403,434.786,265.963,426.363,265.963z"/>
		<linearGradient id="SVGID_7_" gradientUnits="userSpaceOnUse" x1="317.3623" y1="192.4507" x2="425.7627" y2="192.4507">
			<stop  offset="0" style="stop-color:#DAE3FE"/>
			<stop  offset="1" style="stop-color:#E9EFFD"/>
		</linearGradient>
		<path fill="url(#SVGID_7_)" d="M327.745,241.749c-2.657,0-5.162-0.993-7.114-2.832c-2.107-1.986-3.269-4.675-3.269-7.571v-73.918
			c0-1.105,0.896-2,2-2s2,0.895,2,2v73.918c0,1.782,0.715,3.438,2.011,4.66c1.298,1.222,2.982,1.84,4.773,1.73l87.594-5.216
			c3.377-0.201,6.022-3.009,6.022-6.392v-72.574c0-1.83-0.747-3.516-2.104-4.745c-1.357-1.229-3.104-1.806-4.93-1.626l-72.866,7.217
			c-2.311,0.229-4.257,1.629-5.209,3.747c-0.952,2.116-0.707,4.503,0.653,6.382l27.793,38.355c1.205,1.664,3.077,2.629,5.132,2.646
			c0.019,0,0.037,0,0.056,0c2.034,0,3.896-0.932,5.119-2.561l30.613-40.787c0.662-0.883,1.916-1.063,2.8-0.399
			s1.063,1.917,0.399,2.8l-30.613,40.789c-2.004,2.67-5.049,4.169-8.407,4.158c-3.339-0.029-6.378-1.596-8.337-4.3l-27.792-38.354
			c-2.212-3.054-2.61-6.93-1.065-10.369c1.547-3.44,4.711-5.716,8.464-6.088l72.866-7.217c2.924-0.291,5.837,0.674,8.01,2.642
			s3.419,4.778,3.419,7.71v72.574c0,5.496-4.298,10.058-9.784,10.385l-87.595,5.217C328.17,241.742,327.957,241.749,327.745,241.749
			z"/>
	</g>
</g>
</svg>
