<?xml version="1.0" encoding="utf-8"?>
<!-- Generator: Adobe Illustrator 16.0.0, SVG Export Plug-In . SVG Version: 6.00 Build 0)  -->
<!DOCTYPE svg PUBLIC "-//W3C//DTD SVG 1.1//EN" "http://www.w3.org/Graphics/SVG/1.1/DTD/svg11.dtd">
<svg version="1.1" xmlns="http://www.w3.org/2000/svg" xmlns:xlink="http://www.w3.org/1999/xlink" x="0px" y="0px"
	 width="707.287px" height="1309.748px" viewBox="0 0 707.287 1309.748" enable-background="new 0 0 707.287 1309.748"
	 xml:space="preserve">
<g id="Background">
</g>
<g id="Illustration">
	<g>
		<path fill="#BDD0FB" d="M540.172,677.696c16.549-74.076,7.334-146.267-20.813-202.052
			c-25.162-49.869-30.588-107.71-14.046-161.129c1.739-5.614,3.272-11.37,4.587-17.251c19.902-89.089-18.258-173.439-85.234-188.402
			C357.688,93.9,287.26,153.991,267.357,243.08c-4.07,18.217-5.709,36.232-5.169,53.496c1.724,55.095-16.502,109.26-52.875,150.642
			c-32.507,36.98-57.567,85.395-69.975,140.932c-18.505,82.829-4.798,163.305,31.57,221.122
			c13.757,21.869,23.52,46.147,28.554,71.514c8.366,42.153,35.283,75.464,72.886,83.864c40.563,9.062,82.209-13.402,107.42-53.34
			c14.267-22.6,32.771-42.096,53.943-58.368C483.693,814.527,523.44,752.591,540.172,677.696z"/>
		<linearGradient id="SVGID_1_" gradientUnits="userSpaceOnUse" x1="306.2109" y1="569.3535" x2="426.9453" y2="569.3535">
			<stop  offset="0" style="stop-color:#DAE3FE"/>
			<stop  offset="1" style="stop-color:#E9EFFD"/>
		</linearGradient>
		<path fill="url(#SVGID_1_)" d="M426.945,208.876c-4.403,60.833-10.749,121.479-17.725,182.061
			c-1.737,15.146-3.716,30.263-5.647,45.385l-2.899,22.684l-3.089,22.661c-2.117,15.098-4.027,30.227-6.314,45.301l-6.859,45.226
			c-4.955,30.092-9.656,60.225-15.169,90.225c-2.734,15.002-5.178,30.057-8.217,45.005l-8.905,44.877
			c-12.477,59.714-26.451,119.144-43.39,177.754l-2.52-0.703l11.013-44.333L320,873.944l2.501-11.143l4.96-22.293l5-22.277
			c1.681-7.424,3.086-14.909,4.643-22.359c3.014-14.924,6.145-29.82,9.063-44.762c11.285-59.843,21.78-119.834,31.043-180.032
			c4.402-30.135,9.062-60.229,13.256-90.396l3.207-22.616l3.02-22.642c2.022-15.094,4.043-30.188,5.912-45.302
			c3.997-30.196,7.779-60.423,11.314-90.678c3.693-30.238,7.105-60.517,10.421-90.792L426.945,208.876z"/>
	</g>
	<g>
		<path fill="#91B3FA" d="M514.377,1053.126c29.099-52.635,38.138-109.608,29.094-158.345
			c-8.085-43.568,0.649-88.777,25.147-125.702c2.574-3.881,5.024-7.914,7.335-12.094c34.996-63.302,24.676-136.009-23.053-162.395
			c-47.729-26.387-114.789,3.54-149.785,66.843c-7.157,12.943-12.415,26.279-15.845,39.531
			c-10.946,42.291-36.893,79.406-73.829,102.732c-33.009,20.845-62.886,52.054-84.703,91.516
			c-32.537,58.854-39.996,123.136-25.137,175.26c5.621,19.716,7.66,40.369,5.854,60.791c-3.002,33.936,10.105,65.303,36.901,80.116
			c28.906,15.981,65.652,8.226,93.758-16.503c15.904-13.993,34.349-24.677,54.11-32.31
			C440.875,1144.547,484.957,1106.343,514.377,1053.126z"/>
		<path fill="#BDD0FB" d="M532.384,671.172c-16.894,45.283-35.227,89.989-54.024,134.505c-4.694,11.131-9.566,22.186-14.404,33.255
			l-7.258,16.604l-7.397,16.544c-4.974,11.01-9.795,22.088-14.894,33.042l-15.292,32.861
			c-10.474,21.777-20.763,43.644-31.642,65.227c-5.423,10.799-10.635,21.701-16.277,32.39l-16.775,32.139
			c-22.799,42.624-46.676,84.695-72.63,125.479l-1.765-1.099l18.261-31.253l4.58-7.8l4.386-7.915l8.741-15.845l8.77-15.824
			c2.933-5.27,5.67-10.648,8.514-15.967c5.619-10.675,11.32-21.305,16.869-32.015c21.919-42.988,43.27-86.267,63.726-129.979
			c10.062-21.935,20.311-43.78,30.221-65.786l7.478-16.482l7.339-16.546c4.9-11.027,9.8-22.055,14.588-33.132
			c9.767-22.071,19.375-44.215,28.803-66.435c9.544-22.172,18.883-44.438,28.147-66.723L532.384,671.172z"/>
	</g>
</g>
</svg>
