<?xml version="1.0" encoding="utf-8"?>
<!-- Generator: Adobe Illustrator 16.0.0, SVG Export Plug-In . SVG Version: 6.00 Build 0)  -->
<!DOCTYPE svg PUBLIC "-//W3C//DTD SVG 1.1//EN" "http://www.w3.org/Graphics/SVG/1.1/DTD/svg11.dtd">
<svg version="1.1" id="Illustration" xmlns="http://www.w3.org/2000/svg" xmlns:xlink="http://www.w3.org/1999/xlink" x="0px"
	 y="0px" width="2475px" height="1650px" viewBox="0 0 2475 1650" enable-background="new 0 0 2475 1650" xml:space="preserve">
<g>
	<path fill="#92ECD0" d="M2159.527,551.695c-40.871,124.742-309.958,885.897-805.664,935.676
		c-15.008,1.507-26.338-13.382-20.911-27.455c34.534-89.562,160.292-366.624,472.288-616.55
		c225.104-180.321,316.919-266.163,347.199-296.061C2155.645,544.141,2160.93,547.415,2159.527,551.695z"/>
	<linearGradient id="SVGID_1_" gradientUnits="userSpaceOnUse" x1="1330.9512" y1="1121.3945" x2="1993.2432" y2="1121.3945">
		<stop  offset="0" style="stop-color:#DAE3FE"/>
		<stop  offset="1" style="stop-color:#E9EFFD"/>
	</linearGradient>
	<path fill="url(#SVGID_1_)" d="M1332.953,1461.916c-0.615,0-1.223-0.283-1.614-0.818c-0.653-0.891-0.46-2.143,0.431-2.795
		c190.698-139.715,357.574-312.576,463.985-432.986c121.38-137.347,191.544-236.498,193.521-242.802
		c0.189-1.05,1.184-1.771,2.241-1.622c1.094,0.15,1.858,1.16,1.708,2.254c-0.535,3.881-23.039,35.469-52.348,73.475
		c-28.704,37.227-76.368,96.836-140.421,169.415c-106.9,121.131-274.578,295.012-466.323,435.493
		C1333.778,1461.79,1333.364,1461.916,1332.953,1461.916z M1989.27,782.544c-0.004,0.021-0.005,0.04-0.008,0.057
		C1989.265,782.582,1989.268,782.563,1989.27,782.544z"/>
</g>
<g>
	<path fill="#91B3FA" d="M1491.594,1441.752c33.63-58.456,171.479-288.299,318.924-395.651c10.527-7.666,25.366-0.563,25.865,12.451
		c3.147,82.25-16.593,319.552-337.141,393.56C1493.275,1453.488,1488.54,1447.06,1491.594,1441.752z"/>
	<path fill="#BDD0FB" d="M1501.411,1444.798c-0.61,0-1.212-0.278-1.605-0.804c-0.66-0.886-0.478-2.139,0.407-2.8
		c111.871-83.452,181.343-164.981,219.924-218.682c41.747-58.106,57.242-96.913,57.394-97.298c0.405-1.026,1.567-1.534,2.595-1.128
		c1.027,0.404,1.532,1.565,1.127,2.594c-0.154,0.39-15.832,39.659-57.867,98.166c-38.745,53.929-108.5,135.796-220.779,219.554
		C1502.246,1444.669,1501.826,1444.798,1501.411,1444.798z"/>
</g>
<g>
	<path fill="#BDD0FB" d="M1604.234,1461.286c-8.225-0.601-13.164-9.406-9.484-16.787c20.306-40.728,88.129-150.685,241.445-184.957
		c129.471-28.94,196.923-56.937,226.663-71.768c6.29-3.137,12.927,3.579,9.729,9.837
		C2037.313,1266.656,1902.299,1483.034,1604.234,1461.286z"/>
	<linearGradient id="SVGID_2_" gradientUnits="userSpaceOnUse" x1="1601.2422" y1="1361.5313" x2="1942.6484" y2="1361.5313">
		<stop  offset="0" style="stop-color:#DAE3FE"/>
		<stop  offset="1" style="stop-color:#E9EFFD"/>
	</linearGradient>
	<path fill="url(#SVGID_2_)" d="M1603.243,1450.111c-0.591,0-1.177-0.262-1.571-0.762c-0.686-0.868-0.535-2.125,0.332-2.809
		c0.395-0.313,40.253-31.605,101.551-68.439c56.584-34.002,143.559-79.833,236.57-105.081c1.068-0.288,2.165,0.341,2.453,1.406
		c0.289,1.065-0.34,2.164-1.406,2.454c-92.545,25.121-179.148,70.756-235.502,104.615c-61.095,36.709-100.795,67.875-101.189,68.186
		C1604.113,1449.971,1603.677,1450.111,1603.243,1450.111z"/>
</g>
<g>
	<path fill="#91B3FA" d="M1282.492,1457.922c37.156-97.068,196.832-512.584,262.256-655.973
		c6.854-15.023,28.411-14.318,34.309,1.105c42.742,111.792,127.129,447.089-284.815,665.233
		C1287.412,1471.904,1279.73,1465.139,1282.492,1457.922z"/>
	<path fill="#BDD0FB" d="M1297.25,1458.584c-0.521,0-1.04-0.202-1.433-0.604c-0.771-0.791-0.754-2.058,0.036-2.828
		c128.005-124.779,192.776-285.31,224.573-398.006c34.474-122.188,38.698-216.056,38.736-216.989c0.046-1.104,1-1.958,2.081-1.916
		c1.104,0.046,1.961,0.978,1.915,2.081c-0.038,0.938-4.271,95.188-38.854,217.806c-20.313,72.02-46.968,139.612-79.228,200.903
		c-40.342,76.644-89.607,143.593-146.432,198.985C1298.257,1458.395,1297.752,1458.584,1297.25,1458.584z"/>
</g>
</svg>
