<?xml version="1.0" encoding="utf-8"?>
<!-- Generator: Adobe Illustrator 16.0.0, SVG Export Plug-In . SVG Version: 6.00 Build 0)  -->
<!DOCTYPE svg PUBLIC "-//W3C//DTD SVG 1.1//EN" "http://www.w3.org/Graphics/SVG/1.1/DTD/svg11.dtd">
<svg version="1.1" xmlns="http://www.w3.org/2000/svg" xmlns:xlink="http://www.w3.org/1999/xlink" x="0px" y="0px"
	 width="544.993px" height="825.981px" viewBox="0 0 544.993 825.981" enable-background="new 0 0 544.993 825.981"
	 xml:space="preserve">
<g id="Background">
</g>
<g id="Illustration">
	<g>
		<linearGradient id="SVGID_1_" gradientUnits="userSpaceOnUse" x1="70.8418" y1="418.0195" x2="444.8052" y2="418.0195">
			<stop  offset="0" style="stop-color:#394265"/>
			<stop  offset="1" style="stop-color:#3B3A6C"/>
		</linearGradient>
		<path fill="url(#SVGID_1_)" d="M439.031,704.505c-0.123,12.094-10.513,21.899-23.211,21.927l-306.957,0.669
			c-12.79,0.028-23.406-9.771-23.71-21.912L70.85,133.459c-0.34-13.594,10.395-24.587,23.975-24.521l325.831,1.558
			c13.476,0.064,24.285,11.113,24.148,24.648L439.031,704.505z"/>
		<path fill="#FFFFFF" d="M411.364,168.141c0.091-13.063-10.626-23.724-23.941-23.782l-258.61-1.137
			c-13.398-0.059-24.029,10.545-23.742,23.654l10.631,486.105c0.261,11.906,10.791,21.521,23.518,21.501l245.689-0.39
			c12.652-0.021,22.974-9.637,23.057-21.504L411.364,168.141z"/>
		<path fill="#7D97F4" d="M297.083,125.86c0.007,2.535-2.031,4.579-4.553,4.568l-67.303-0.306c-2.526-0.012-4.6-2.076-4.63-4.614
			c-0.031-2.539,1.995-4.589,4.524-4.577l67.379,0.314C295.025,121.258,297.077,123.324,297.083,125.86z"/>
		<g>
			<linearGradient id="SVGID_2_" gradientUnits="userSpaceOnUse" x1="356.1045" y1="515.0508" x2="394.874" y2="515.0508">
				<stop  offset="0" style="stop-color:#92ECD0"/>
				<stop  offset="0.0172" style="stop-color:#90ECCF"/>
				<stop  offset="0.4442" style="stop-color:#6AE5BE"/>
				<stop  offset="0.7867" style="stop-color:#53E1B4"/>
				<stop  offset="1" style="stop-color:#4AE0B0"/>
			</linearGradient>
			<polygon fill="url(#SVGID_2_)" points="356.104,512.938 394.874,474.447 393.437,555.653 356.188,513.03 			"/>
			<linearGradient id="SVGID_3_" gradientUnits="userSpaceOnUse" x1="293.9775" y1="597.0605" x2="392.7305" y2="597.0605">
				<stop  offset="0" style="stop-color:#92ECD0"/>
				<stop  offset="0.0172" style="stop-color:#90ECCF"/>
				<stop  offset="0.4442" style="stop-color:#6AE5BE"/>
				<stop  offset="0.7867" style="stop-color:#53E1B4"/>
				<stop  offset="1" style="stop-color:#4AE0B0"/>
			</linearGradient>
			<path fill="url(#SVGID_3_)" d="M337.38,531.533l54.796,62.742l0.555,0.643l-1.579,49.715c-0.126,4.77-2.679,9.358-6.721,12.751
				c-3.563,2.982-8.188,4.813-13.027,5.203l-77.426-87.948L337.38,531.533z"/>
			<linearGradient id="SVGID_4_" gradientUnits="userSpaceOnUse" x1="205.6338" y1="416.3691" x2="400.168" y2="416.3691">
				<stop  offset="0" style="stop-color:#92ECD0"/>
				<stop  offset="0.0172" style="stop-color:#90ECCF"/>
				<stop  offset="0.4442" style="stop-color:#6AE5BE"/>
				<stop  offset="0.7867" style="stop-color:#53E1B4"/>
				<stop  offset="1" style="stop-color:#4AE0B0"/>
			</linearGradient>
			<polygon fill="url(#SVGID_4_)" points="383.327,449.354 339.071,493.472 320.402,512.087 276.996,555.356 205.634,474.308 
				205.645,474.298 248.883,430.468 248.757,430.466 248.522,430.343 248.522,430.332 267.366,411.459 267.543,411.48 
				267.589,411.496 267.62,411.48 267.649,411.459 311.927,366.619 400.168,277.383 396.837,423.768 			"/>
			<linearGradient id="SVGID_5_" gradientUnits="userSpaceOnUse" x1="205.1992" y1="627.8428" x2="337.2598" y2="627.8428">
				<stop  offset="0" style="stop-color:#92ECD0"/>
				<stop  offset="0.0172" style="stop-color:#90ECCF"/>
				<stop  offset="0.4442" style="stop-color:#6AE5BE"/>
				<stop  offset="0.7867" style="stop-color:#53E1B4"/>
				<stop  offset="1" style="stop-color:#4AE0B0"/>
			</linearGradient>
			<polygon fill="url(#SVGID_5_)" points="337.26,662.691 205.199,662.79 275.587,592.896 			"/>
			<linearGradient id="SVGID_6_" gradientUnits="userSpaceOnUse" x1="136.1631" y1="577.8691" x2="258.6191" y2="577.8691">
				<stop  offset="0" style="stop-color:#92ECD0"/>
				<stop  offset="0.0172" style="stop-color:#90ECCF"/>
				<stop  offset="0.4442" style="stop-color:#6AE5BE"/>
				<stop  offset="0.7867" style="stop-color:#53E1B4"/>
				<stop  offset="1" style="stop-color:#4AE0B0"/>
			</linearGradient>
			<path fill="url(#SVGID_6_)" d="M258.619,573.682l-89.412,89.135l-8.17,0.006c-5.442,0.004-10.719-1.834-14.679-5.129
				c-3.973-3.298-6.308-7.779-6.476-12.465l-3.72-100.503l51.106-51.809L258.619,573.682z"/>
			<linearGradient id="SVGID_8_" gradientUnits="userSpaceOnUse" x1="132.0566" y1="469.7852" x2="170.0215" y2="469.7852">
				<stop  offset="0" style="stop-color:#92ECD0"/>
				<stop  offset="0.0172" style="stop-color:#90ECCF"/>
				<stop  offset="0.4442" style="stop-color:#6AE5BE"/>
				<stop  offset="0.7867" style="stop-color:#53E1B4"/>
				<stop  offset="1" style="stop-color:#4AE0B0"/>
			</linearGradient>
			<polygon fill="url(#SVGID_8_)" points="170.021,473.363 134.909,509.139 132.057,430.432 169.989,473.363 			"/>
			<linearGradient id="SVGID_9_" gradientUnits="userSpaceOnUse" x1="242.4727" y1="247.248" x2="402.0366" y2="247.248">
				<stop  offset="0" style="stop-color:#92ECD0"/>
				<stop  offset="0.0172" style="stop-color:#90ECCF"/>
				<stop  offset="0.4442" style="stop-color:#6AE5BE"/>
				<stop  offset="0.7867" style="stop-color:#53E1B4"/>
				<stop  offset="1" style="stop-color:#4AE0B0"/>
			</linearGradient>
			<path fill="url(#SVGID_9_)" d="M313.435,327.383l-70.962-82.52l74.765-77.352l61.711-0.396
				c13.137-0.085,23.401,10.314,23.081,23.316l-1.174,47.984L313.435,327.383z"/>
			<linearGradient id="SVGID_10_" gradientUnits="userSpaceOnUse" x1="176.7246" y1="196.0723" x2="279.3867" y2="196.0723">
				<stop  offset="0" style="stop-color:#92ECD0"/>
				<stop  offset="0.0172" style="stop-color:#90ECCF"/>
				<stop  offset="0.4442" style="stop-color:#6AE5BE"/>
				<stop  offset="0.7867" style="stop-color:#53E1B4"/>
				<stop  offset="1" style="stop-color:#4AE0B0"/>
			</linearGradient>
			<polygon fill="url(#SVGID_10_)" points="176.725,168.415 279.387,167.755 224.872,224.391 			"/>
			<linearGradient id="SVGID_11_" gradientUnits="userSpaceOnUse" x1="129.8301" y1="359.4941" x2="294.5654" y2="359.4941">
				<stop  offset="0" style="stop-color:#92ECD0"/>
				<stop  offset="0.0172" style="stop-color:#90ECCF"/>
				<stop  offset="0.4442" style="stop-color:#6AE5BE"/>
				<stop  offset="0.7867" style="stop-color:#53E1B4"/>
				<stop  offset="1" style="stop-color:#4AE0B0"/>
			</linearGradient>
			<polygon fill="url(#SVGID_11_)" points="223.617,264.377 294.565,346.579 250.343,391.593 231.731,410.538 189.051,454.61 
				131.87,388.83 131.87,388.82 129.985,361.869 129.83,361.722 			"/>
			<linearGradient id="SVGID_12_" gradientUnits="userSpaceOnUse" x1="123.0884" y1="247.0557" x2="206.0088" y2="247.0557">
				<stop  offset="0" style="stop-color:#92ECD0"/>
				<stop  offset="0.0172" style="stop-color:#90ECCF"/>
				<stop  offset="0.4442" style="stop-color:#6AE5BE"/>
				<stop  offset="0.7867" style="stop-color:#53E1B4"/>
				<stop  offset="1" style="stop-color:#4AE0B0"/>
			</linearGradient>
			<path fill="url(#SVGID_12_)" d="M141.412,169.121l64.597,74.859l-77.995,81.01l-4.908-132.363
				C122.672,181.128,130.552,171.423,141.412,169.121z"/>
		</g>
		<g>
			<path fill="#91B3FA" d="M259.153,196.266c0,1.99-1.612,3.603-3.603,3.603H143.009c-1.99,0-3.604-1.612-3.604-3.603v-0.021
				c0-1.989,1.613-3.603,3.604-3.603h112.542c1.99,0,3.603,1.613,3.603,3.603V196.266z"/>
			<path fill="#91B3FA" d="M259.153,215.88c0,1.989-1.612,3.603-3.603,3.603H143.009c-1.99,0-3.604-1.613-3.604-3.603v-0.021
				c0-1.99,1.613-3.603,3.604-3.603h112.542c1.99,0,3.603,1.612,3.603,3.603V215.88z"/>
			<path fill="#91B3FA" d="M259.153,235.493c0,1.99-1.612,3.604-3.603,3.604H143.009c-1.99,0-3.604-1.613-3.604-3.604v-0.02
				c0-1.99,1.613-3.604,3.604-3.604h112.542c1.99,0,3.603,1.613,3.603,3.604V235.493z"/>
		</g>
		<g>
			<linearGradient id="SVGID_13_" gradientUnits="userSpaceOnUse" x1="220.1377" y1="569.5098" x2="246.0068" y2="569.5098">
				<stop  offset="0" style="stop-color:#AA5AFF"/>
				<stop  offset="0.0807" style="stop-color:#A856FF"/>
				<stop  offset="0.6468" style="stop-color:#9F3FFE"/>
				<stop  offset="1" style="stop-color:#9B36FE"/>
			</linearGradient>
			<circle fill="url(#SVGID_13_)" cx="233.072" cy="569.511" r="12.935"/>
		</g>
		<g>
			<g>
				<linearGradient id="SVGID_14_" gradientUnits="userSpaceOnUse" x1="298.9746" y1="290.2383" x2="323.2666" y2="290.2383">
					<stop  offset="0" style="stop-color:#CC9CFF"/>
					<stop  offset="0.4079" style="stop-color:#BB7AFF"/>
					<stop  offset="0.7728" style="stop-color:#AE63FF"/>
					<stop  offset="1" style="stop-color:#AA5AFF"/>
				</linearGradient>
				<circle fill="url(#SVGID_14_)" cx="311.121" cy="290.238" r="12.146"/>
			</g>
			<g>
				<linearGradient id="SVGID_15_" gradientUnits="userSpaceOnUse" x1="279.1079" y1="201.0859" x2="343.188" y2="201.0859">
					<stop  offset="0" style="stop-color:#CC9CFF"/>
					<stop  offset="0.4079" style="stop-color:#BB7AFF"/>
					<stop  offset="0.7728" style="stop-color:#AE63FF"/>
					<stop  offset="1" style="stop-color:#AA5AFF"/>
				</linearGradient>
				<path fill="url(#SVGID_15_)" d="M343.188,201.084c0,17.706-14.345,32.04-32.041,32.04c-17.696,0-32.039-14.334-32.039-32.04
					c0-17.687,14.343-32.035,32.039-32.035C328.843,169.049,343.188,183.397,343.188,201.084z"/>
				<linearGradient id="SVGID_16_" gradientUnits="userSpaceOnUse" x1="279.0493" y1="234.3193" x2="343.1934" y2="234.3193">
					<stop  offset="0" style="stop-color:#CC9CFF"/>
					<stop  offset="0.4079" style="stop-color:#BB7AFF"/>
					<stop  offset="0.7728" style="stop-color:#AE63FF"/>
					<stop  offset="1" style="stop-color:#AA5AFF"/>
				</linearGradient>
				<path fill="url(#SVGID_16_)" d="M343.132,199.372h-31.985h-32.039c0,0-2.55,17.782,26.043,66.489
					c1.248,2.127,3.533,3.403,5.992,3.405c2.468,0,4.751-1.253,5.995-3.378C345.731,217.18,343.132,199.372,343.132,199.372z"/>
			</g>
			<g>
				<g>
					<path fill="#FFFFFF" d="M311.138,270.304v0.182h0.004c-2.784,0-5.388-1.537-6.791-3.924
						c-16.711-28.48-22.837-46.47-25.031-56.55c-0.629-2.315-0.988-4.592-1.099-6.924c-0.195-2.382-0.049-3.376-0.027-3.49
						l0.081-0.515c1.292-17.207,15.618-30.604,32.873-30.604c17.488,0,31.939,13.587,32.918,30.929
						c0.023,0.237,0.07,0.813,0.05,1.774l0.002,0.115c0,3.143-0.443,6.269-1.322,9.26c-2.268,10.066-8.429,27.904-24.86,55.884
						C316.521,268.848,314.015,270.304,311.138,270.304z M279.982,200.821c-0.007,0.47,0.008,1.161,0.091,2.193
						c0.108,2.199,0.45,4.319,1.048,6.521l0.01,0.049c2.162,9.933,8.222,27.714,24.822,55.991c1.071,1.823,3.058,2.944,5.186,2.946
						v0.936v-0.938c1.918,0,4.118-1.135,5.19-2.979c16.329-27.805,22.423-45.484,24.655-55.417l0.021-0.055
						c0.831-2.841,1.068-5.786,1.068-8.771l-0.188-0.132v-0.014c0-0.914,0.158-1.425,0.142-1.554l0.087-0.061
						c-0.907-16.371-14.506-29.197-31.009-29.197c-16.475,0-30.097,13.012-31.033,29.521l-0.029,0.96H279.982z"/>
				</g>
			</g>
			<path fill="#FFFFFF" d="M329.754,200.988c0,10.212-8.283,18.5-18.501,18.5c-10.219,0-18.501-8.288-18.501-18.5
				c0-10.22,8.283-18.501,18.501-18.501C321.471,182.487,329.754,190.769,329.754,200.988z"/>
			<g>
				<g>
					<linearGradient id="SVGID_17_" gradientUnits="userSpaceOnUse" x1="291.7168" y1="200.9873" x2="330.7881" y2="200.9873">
						<stop  offset="0" style="stop-color:#AA5AFF"/>
						<stop  offset="0.0807" style="stop-color:#A856FF"/>
						<stop  offset="0.6468" style="stop-color:#9F3FFE"/>
						<stop  offset="1" style="stop-color:#9B36FE"/>
					</linearGradient>
					<path fill="url(#SVGID_17_)" d="M311.253,220.522c-10.774,0-19.536-8.761-19.536-19.534s8.762-19.536,19.536-19.536
						c10.773,0,19.535,8.763,19.535,19.536S322.026,220.522,311.253,220.522z M311.253,183.521c-9.63,0-17.467,7.829-17.467,17.467
						c0,9.632,7.837,17.467,17.467,17.467c9.63,0,17.467-7.835,17.467-17.467C328.72,191.351,320.883,183.521,311.253,183.521z"/>
				</g>
			</g>
			<g>
				<path fill="#FFFFFF" d="M293.702,181.729c-0.088,0-0.172-0.045-0.232-0.113c-0.115-0.129-0.097-0.323,0.034-0.44
					c5.193-4.458,11.833-6.912,18.696-6.912c0.166,0,0.308,0.134,0.308,0.309c0,0.165-0.143,0.306-0.308,0.306
					c-6.712,0-13.213,2.412-18.298,6.772C293.846,181.696,293.771,181.729,293.702,181.729z"/>
			</g>
			<g>
				<path fill="#FFFFFF" d="M283.797,203.272c-0.174,0-0.311-0.129-0.311-0.306c0-5.36,1.484-10.585,4.293-15.104
					c0.091-0.15,0.284-0.19,0.429-0.11c0.144,0.099,0.188,0.289,0.101,0.436c-2.751,4.432-4.206,9.542-4.206,14.779
					C284.104,203.144,283.968,203.272,283.797,203.272z"/>
			</g>
		</g>
		<g>
			<linearGradient id="SVGID_18_" gradientUnits="userSpaceOnUse" x1="190.0947" y1="456.7666" x2="276.124" y2="456.7666">
				<stop  offset="0" style="stop-color:#CC9CFF"/>
				<stop  offset="0.4079" style="stop-color:#BB7AFF"/>
				<stop  offset="0.7728" style="stop-color:#AE63FF"/>
				<stop  offset="1" style="stop-color:#AA5AFF"/>
			</linearGradient>
			<circle fill="url(#SVGID_18_)" cx="233.109" cy="456.767" r="43.015"/>
			<linearGradient id="SVGID_19_" gradientUnits="userSpaceOnUse" x1="190.0161" y1="501.375" x2="276.1289" y2="501.375">
				<stop  offset="0" style="stop-color:#CC9CFF"/>
				<stop  offset="0.4079" style="stop-color:#BB7AFF"/>
				<stop  offset="0.7728" style="stop-color:#AE63FF"/>
				<stop  offset="1" style="stop-color:#AA5AFF"/>
			</linearGradient>
			<path fill="url(#SVGID_19_)" d="M276.046,454.46h-42.937h-43.015c0,0-3.425,23.876,34.965,89.271
				c1.676,2.853,4.736,4.558,8.045,4.56c3.308,0.001,6.374-1.675,8.049-4.528C279.539,478.361,276.046,454.46,276.046,454.46z"/>
		</g>
		<g>
			<g>
				<path fill="#FFFFFF" d="M233.09,549.686v0.242h0.014c-3.744,0-7.239-2.061-9.12-5.265c-22.44-38.226-30.663-62.396-33.608-75.92
					c-0.84-3.11-1.322-6.16-1.475-9.287c-0.261-3.198-0.062-4.546-0.038-4.688l0.113-0.688
					c1.733-23.106,20.964-41.089,44.134-41.089c23.475,0,42.879,18.237,44.19,41.527c0.033,0.305,0.096,1.078,0.071,2.371
					l0.002,0.159c0,4.225-0.597,8.41-1.774,12.438c-3.047,13.512-11.32,37.443-33.378,75.024
					C240.327,547.736,236.96,549.686,233.09,549.686z M191.269,456.396c-0.011,0.646,0.009,1.566,0.122,2.953
					c0.144,2.962,0.604,5.81,1.403,8.763l0.015,0.049c2.901,13.341,11.039,37.208,33.328,75.178c1.436,2.444,4.096,3.96,6.958,3.962
					l-0.005,1.246v-1.249c2.58,0,5.53-1.531,6.978-3.997c21.916-37.34,30.098-61.069,33.099-74.401l0.022-0.077
					c1.118-3.813,1.436-7.773,1.436-11.774l-0.251-0.176v-0.014c0-1.245,0.211-1.918,0.19-2.095l0.119-0.072
					c-1.221-21.984-19.475-39.204-41.636-39.204c-22.119,0-40.402,17.463-41.663,39.64l-0.035,1.27H191.269z"/>
			</g>
		</g>
		<circle fill="#FFFFFF" cx="233.248" cy="456.628" r="24.838"/>
		<g>
			<g>
				<linearGradient id="SVGID_20_" gradientUnits="userSpaceOnUse" x1="207.0225" y1="456.627" x2="259.4736" y2="456.627">
					<stop  offset="0" style="stop-color:#AA5AFF"/>
					<stop  offset="0.0807" style="stop-color:#A856FF"/>
					<stop  offset="0.6468" style="stop-color:#9F3FFE"/>
					<stop  offset="1" style="stop-color:#9B36FE"/>
				</linearGradient>
				<path fill="url(#SVGID_20_)" d="M233.248,482.853c-14.461,0-26.226-11.764-26.226-26.225c0-14.46,11.765-26.226,26.226-26.226
					s26.226,11.766,26.226,26.226C259.474,471.089,247.709,482.853,233.248,482.853z M233.248,433.178
					c-12.931,0-23.45,10.52-23.45,23.45c0,12.93,10.52,23.45,23.45,23.45s23.45-10.521,23.45-23.45
					C256.698,443.697,246.179,433.178,233.248,433.178z"/>
			</g>
		</g>
		<g>
			<path fill="#FFFFFF" d="M209.688,430.768c-0.117,0-0.234-0.049-0.316-0.145c-0.149-0.175-0.13-0.438,0.045-0.587
				c6.978-5.992,15.892-9.293,25.102-9.293c0.229,0,0.416,0.187,0.416,0.417c0,0.229-0.187,0.416-0.416,0.416
				c-9.011,0-17.733,3.229-24.56,9.091C209.88,430.734,209.783,430.768,209.688,430.768z"/>
		</g>
		<g>
			<path fill="#FFFFFF" d="M196.387,459.706c-0.229,0-0.416-0.186-0.416-0.415c0-7.193,1.994-14.209,5.767-20.292
				c0.121-0.195,0.378-0.255,0.573-0.134s0.255,0.378,0.134,0.573c-3.69,5.95-5.642,12.814-5.642,19.853
				C196.803,459.521,196.617,459.706,196.387,459.706z"/>
		</g>
	</g>
</g>
</svg>
