<?xml version="1.0" encoding="utf-8"?>
<!-- Generator: Adobe Illustrator 16.0.0, SVG Export Plug-In . SVG Version: 6.00 Build 0)  -->
<!DOCTYPE svg PUBLIC "-//W3C//DTD SVG 1.1//EN" "http://www.w3.org/Graphics/SVG/1.1/DTD/svg11.dtd">
<svg version="1.1" xmlns="http://www.w3.org/2000/svg" xmlns:xlink="http://www.w3.org/1999/xlink" x="0px" y="0px" width="1864px"
	 height="1591.948px" viewBox="0 0 1864 1591.948" enable-background="new 0 0 1864 1591.948" xml:space="preserve">
<g id="Background">
</g>
<g id="Illustration">
	<linearGradient id="SVGID_1_" gradientUnits="userSpaceOnUse" x1="222.6738" y1="839.3745" x2="1771.3452" y2="839.3745">
		<stop  offset="0" style="stop-color:#CC9CFF"/>
		<stop  offset="0.4079" style="stop-color:#DDBEFF"/>
		<stop  offset="0.7728" style="stop-color:#EAD5FF"/>
		<stop  offset="1" style="stop-color:#EEDEFF"/>
	</linearGradient>
	<polygon fill="url(#SVGID_1_)" points="1255.55,304.921 739.112,258.95 222.674,310.936 222.674,1416.824 739.112,1389.451 
		1255.55,1419.799 1771.345,1373.475 1771.345,279.215 	"/>
	<polygon opacity="0.7" fill="#BDD0FB" points="750.198,1364.238 259.513,1390.207 259.513,341.117 750.198,291.8 	"/>
	<polygon opacity="0.7" fill="#91B3FA" points="1240.882,1393.029 750.198,1364.238 750.198,291.8 1240.882,335.412 	"/>
	<polygon opacity="0.7" fill="#BDD0FB" points="1730.956,1349.084 1240.882,1393.029 1240.882,335.412 1730.956,311.026 	"/>
	<rect x="739.087" y="291.801" fill="#BDD0FB" width="11.11" height="1072.733"/>
	<g>
		<defs>
			<polygon id="SVGID_159_" points="1240.101,334 749.417,290.389 258.732,339.706 258.732,1388.797 749.417,1362.828 
				1240.101,1391.619 1730.174,1347.674 1730.174,309.616 			"/>
		</defs>
		<clipPath id="SVGID_2_">
			<use xlink:href="#SVGID_159_"  overflow="visible"/>
		</clipPath>
		<polygon opacity="0.7" clip-path="url(#SVGID_2_)" fill="#BDD0FB" points="1382.948,346.002 1510.162,429.616 1423.452,499.453 
			1321.258,417.783 		"/>
		<polygon opacity="0.7" clip-path="url(#SVGID_2_)" fill="#BDD0FB" points="548.835,510.132 559.448,417.783 744.643,463.958 
			744.643,581.123 		"/>
		<polygon opacity="0.7" clip-path="url(#SVGID_2_)" fill="#BDD0FB" points="1609.264,1084.693 1711.969,1040.635 
			1725.871,1130.006 1636.098,1154.782 		"/>
		<polygon opacity="0.7" clip-path="url(#SVGID_2_)" fill="#BDD0FB" points="641.513,1155.813 744.643,1201.378 847.449,1186.781 
			838.159,1126.394 744.643,1107.813 		"/>
		<linearGradient id="SVGID_3_" gradientUnits="userSpaceOnUse" x1="296.8726" y1="631.3389" x2="566.189" y2="631.3389">
			<stop  offset="0" style="stop-color:#92ECD0"/>
			<stop  offset="0.0172" style="stop-color:#90ECCF"/>
			<stop  offset="0.4442" style="stop-color:#6AE5BE"/>
			<stop  offset="0.7867" style="stop-color:#53E1B4"/>
			<stop  offset="1" style="stop-color:#4AE0B0"/>
		</linearGradient>
		<polygon clip-path="url(#SVGID_2_)" fill="url(#SVGID_3_)" points="561.859,675.298 296.873,603.32 301.203,587.379 
			566.189,659.358 		"/>
		<linearGradient id="SVGID_4_" gradientUnits="userSpaceOnUse" x1="256.5239" y1="809.271" x2="742.2788" y2="809.271">
			<stop  offset="0" style="stop-color:#92ECD0"/>
			<stop  offset="0.0172" style="stop-color:#90ECCF"/>
			<stop  offset="0.4442" style="stop-color:#6AE5BE"/>
			<stop  offset="0.7867" style="stop-color:#53E1B4"/>
			<stop  offset="1" style="stop-color:#4AE0B0"/>
		</linearGradient>
		<polygon clip-path="url(#SVGID_2_)" fill="url(#SVGID_4_)" points="326.69,1105.755 310.105,1093.458 489.853,851.042 
			694.251,836.53 719.97,658.628 533.07,535.35 262.501,617.184 256.524,597.423 536.357,512.787 742.279,648.609 712.306,855.946 
			500.784,870.965 		"/>
		<linearGradient id="SVGID_5_" gradientUnits="userSpaceOnUse" x1="235.3516" y1="1128.7026" x2="462.3701" y2="1128.7026">
			<stop  offset="0" style="stop-color:#92ECD0"/>
			<stop  offset="0.0172" style="stop-color:#90ECCF"/>
			<stop  offset="0.4442" style="stop-color:#6AE5BE"/>
			<stop  offset="0.7867" style="stop-color:#53E1B4"/>
			<stop  offset="1" style="stop-color:#4AE0B0"/>
		</linearGradient>
		<polygon clip-path="url(#SVGID_2_)" fill="url(#SVGID_5_)" points="449.02,1227.144 235.352,1046.01 248.702,1030.261 
			462.37,1211.395 		"/>
		<linearGradient id="SVGID_6_" gradientUnits="userSpaceOnUse" x1="863.5454" y1="962.894" x2="1212.8081" y2="962.894">
			<stop  offset="0" style="stop-color:#92ECD0"/>
			<stop  offset="0.0172" style="stop-color:#90ECCF"/>
			<stop  offset="0.4442" style="stop-color:#6AE5BE"/>
			<stop  offset="0.7867" style="stop-color:#53E1B4"/>
			<stop  offset="1" style="stop-color:#4AE0B0"/>
		</linearGradient>
		<polygon clip-path="url(#SVGID_2_)" fill="url(#SVGID_6_)" points="869.613,1025.526 863.545,1005.792 1206.739,900.262 
			1212.808,919.997 		"/>
		<linearGradient id="SVGID_8_" gradientUnits="userSpaceOnUse" x1="1122.2495" y1="893.5313" x2="1268.8862" y2="893.5313">
			<stop  offset="0" style="stop-color:#92ECD0"/>
			<stop  offset="0.0172" style="stop-color:#90ECCF"/>
			<stop  offset="0.4442" style="stop-color:#6AE5BE"/>
			<stop  offset="0.7867" style="stop-color:#53E1B4"/>
			<stop  offset="1" style="stop-color:#4AE0B0"/>
		</linearGradient>
		<polygon clip-path="url(#SVGID_2_)" fill="url(#SVGID_8_)" points="1249.758,1054.407 1122.25,740.424 1141.379,732.656 
			1268.886,1046.638 		"/>
		
			<rect x="1477.793" y="968.852" transform="matrix(0.7362 0.6768 -0.6768 0.7362 1109.0349 -727.8461)" clip-path="url(#SVGID_2_)" fill="#BDD0FB" width="20.646" height="179.539"/>
		<linearGradient id="SVGID_9_" gradientUnits="userSpaceOnUse" x1="1341.8589" y1="939.1719" x2="1481.9077" y2="939.1719">
			<stop  offset="0" style="stop-color:#92ECD0"/>
			<stop  offset="0.0172" style="stop-color:#90ECCF"/>
			<stop  offset="0.4442" style="stop-color:#6AE5BE"/>
			<stop  offset="0.7867" style="stop-color:#53E1B4"/>
			<stop  offset="1" style="stop-color:#4AE0B0"/>
		</linearGradient>
		<polygon clip-path="url(#SVGID_2_)" fill="url(#SVGID_9_)" points="1467.191,1065.909 1341.859,819.933 1356.576,812.435 
			1481.908,1058.411 		"/>
		<path clip-path="url(#SVGID_2_)" fill="#38A884" d="M1466.605,568.301l-11.982-16.813c-0.522,0.372-0.845,0.684-0.867,0.706
			c6.56-6.419,95.522-114.074,153.724-184.876l7.262-8.835l132.383,133.705l-14.672,14.527l-116.29-117.454
			c-12.783,15.536-40.585,49.299-68.433,82.961C1470.609,565.448,1468.482,566.963,1466.605,568.301z"/>
		<linearGradient id="SVGID_10_" gradientUnits="userSpaceOnUse" x1="879.5249" y1="531.2671" x2="1219.6821" y2="531.2671">
			<stop  offset="0" style="stop-color:#92ECD0"/>
			<stop  offset="0.0172" style="stop-color:#90ECCF"/>
			<stop  offset="0.4442" style="stop-color:#6AE5BE"/>
			<stop  offset="0.7867" style="stop-color:#53E1B4"/>
			<stop  offset="1" style="stop-color:#4AE0B0"/>
		</linearGradient>
		<polygon clip-path="url(#SVGID_2_)" fill="url(#SVGID_10_)" points="1199.865,677.734 1158.382,535.738 1107.684,406.301 
			880.75,419.792 879.525,399.182 1121.437,384.8 1178.071,529.508 1219.682,671.945 		"/>
		<linearGradient id="SVGID_11_" gradientUnits="userSpaceOnUse" x1="531.0811" y1="457.6646" x2="746.314" y2="457.6646">
			<stop  offset="0" style="stop-color:#92ECD0"/>
			<stop  offset="0.0172" style="stop-color:#90ECCF"/>
			<stop  offset="0.4442" style="stop-color:#6AE5BE"/>
			<stop  offset="0.7867" style="stop-color:#53E1B4"/>
			<stop  offset="1" style="stop-color:#4AE0B0"/>
		</linearGradient>
		<polygon clip-path="url(#SVGID_2_)" fill="url(#SVGID_11_)" points="547.55,514.507 531.081,513.247 539.677,400.822 
			746.314,443.531 742.971,459.705 554.715,420.796 		"/>
		<linearGradient id="SVGID_12_" gradientUnits="userSpaceOnUse" x1="1377.4185" y1="421.1709" x2="1523.8228" y2="421.1709">
			<stop  offset="0" style="stop-color:#92ECD0"/>
			<stop  offset="0.0172" style="stop-color:#90ECCF"/>
			<stop  offset="0.4442" style="stop-color:#6AE5BE"/>
			<stop  offset="0.7867" style="stop-color:#53E1B4"/>
			<stop  offset="1" style="stop-color:#4AE0B0"/>
		</linearGradient>
		<polygon clip-path="url(#SVGID_2_)" fill="url(#SVGID_12_)" points="1420.864,511.506 1410.556,498.6 1496.5,429.958 
			1377.418,344.242 1387.069,330.835 1523.823,429.275 		"/>
		<linearGradient id="SVGID_13_" gradientUnits="userSpaceOnUse" x1="1603.9438" y1="1095.4033" x2="1733.0972" y2="1095.4033">
			<stop  offset="0" style="stop-color:#92ECD0"/>
			<stop  offset="0.0172" style="stop-color:#90ECCF"/>
			<stop  offset="0.4442" style="stop-color:#6AE5BE"/>
			<stop  offset="0.7867" style="stop-color:#53E1B4"/>
			<stop  offset="1" style="stop-color:#4AE0B0"/>
		</linearGradient>
		<polygon clip-path="url(#SVGID_2_)" fill="url(#SVGID_13_)" points="1646.554,1160.924 1642.161,1145.002 1714.514,1125.036 
			1703.38,1053.452 1610.457,1093.315 1603.944,1078.134 1716.429,1029.882 1733.097,1137.042 		"/>
		
			<rect x="1423.4" y="899.823" transform="matrix(0.2715 0.9624 -0.9624 0.2715 2096.7424 -949.7001)" clip-path="url(#SVGID_2_)" fill="#38A884" width="504.586" height="20.645"/>
		<linearGradient id="SVGID_14_" gradientUnits="userSpaceOnUse" x1="1157.396" y1="1264.3926" x2="1423.2925" y2="1264.3926">
			<stop  offset="0" style="stop-color:#92ECD0"/>
			<stop  offset="0.0172" style="stop-color:#90ECCF"/>
			<stop  offset="0.4442" style="stop-color:#6AE5BE"/>
			<stop  offset="0.7867" style="stop-color:#53E1B4"/>
			<stop  offset="1" style="stop-color:#4AE0B0"/>
		</linearGradient>
		<polygon clip-path="url(#SVGID_2_)" fill="url(#SVGID_14_)" points="1172.56,1407.088 1157.396,1393.078 1408.128,1121.697 
			1423.292,1135.708 		"/>
		<linearGradient id="SVGID_15_" gradientUnits="userSpaceOnUse" x1="444.3706" y1="1243.4829" x2="871.9058" y2="1243.4829">
			<stop  offset="0" style="stop-color:#92ECD0"/>
			<stop  offset="0.0172" style="stop-color:#90ECCF"/>
			<stop  offset="0.4442" style="stop-color:#6AE5BE"/>
			<stop  offset="0.7867" style="stop-color:#53E1B4"/>
			<stop  offset="1" style="stop-color:#4AE0B0"/>
		</linearGradient>
		<polygon clip-path="url(#SVGID_2_)" fill="url(#SVGID_15_)" points="748.177,1343.361 444.371,1222.497 452.003,1203.312 
			740.786,1318.201 822.993,1203.235 749.101,1220.882 623.235,1162.324 631.944,1143.604 751.294,1199.131 871.906,1170.327 		"/>
		<linearGradient id="SVGID_16_" gradientUnits="userSpaceOnUse" x1="860.106" y1="1185.7324" x2="1215.397" y2="1185.7324">
			<stop  offset="0" style="stop-color:#92ECD0"/>
			<stop  offset="0.0172" style="stop-color:#90ECCF"/>
			<stop  offset="0.4442" style="stop-color:#6AE5BE"/>
			<stop  offset="0.7867" style="stop-color:#53E1B4"/>
			<stop  offset="1" style="stop-color:#4AE0B0"/>
		</linearGradient>
		<polygon clip-path="url(#SVGID_2_)" fill="url(#SVGID_16_)" points="1204.15,1370.582 979.173,1161.434 978.784,1160.942 
			860.106,1011.14 873.052,1000.883 991.339,1150.192 1215.397,1358.484 		"/>
		<path clip-path="url(#SVGID_2_)" fill="#38A884" d="M811.482,668.899L739.331,589.1c-161.695-57-345.858-115.928-488.717-122.698
			l0.88-18.562c145.919,6.917,332.737,66.827,496.24,124.52l2.221,0.783l75.311,83.293L811.482,668.899z"/>
		<path clip-path="url(#SVGID_2_)" fill="#38A884" d="M1718.945,1304.645c-157.509-96.692-335.668-203.125-459.448-244.283
			l-402.358,148.517l-6.435-17.433l408.431-150.758l3.069,1.001c125.817,41.035,306.749,149.074,466.463,247.121L1718.945,1304.645z
			"/>
		<polygon clip-path="url(#SVGID_2_)" fill="#38A884" points="970.051,679.937 809.759,296.469 826.988,289.509 987.279,672.977 		
			"/>
		<path clip-path="url(#SVGID_2_)" fill="#38A884" d="M1493.065,686.917c-31.953-123.954-93.511-209.32-188.19-260.979l8.899-16.312
			c52.239,28.503,95.556,67.38,128.746,115.551c30.147,43.754,52.566,95.144,68.538,157.102L1493.065,686.917z"/>
		<polygon clip-path="url(#SVGID_2_)" fill="#38A884" points="528.493,1196.417 512.983,1186.022 695.523,905.012 711.033,915.408 
					"/>
		<polygon clip-path="url(#SVGID_2_)" fill="#38A884" points="1544.331,697.474 1008.069,676.096 1008.809,657.529 
			1541.027,678.745 1736.263,598.708 1743.312,615.9 		"/>
		<polygon clip-path="url(#SVGID_2_)" fill="#38A884" points="262.856,1303.611 256.169,1286.274 743.361,1098.348 
			839.077,1107.858 837.24,1126.349 745.923,1117.277 		"/>
		<path clip-path="url(#SVGID_2_)" fill="#38A884" d="M890.706,926.379c-209.173-2.215-405.209-12.844-505.192-117.172
			l13.416-12.857c94.99,99.119,286.917,109.277,491.973,111.45L890.706,926.379z"/>
		<polygon clip-path="url(#SVGID_2_)" fill="#38A884" points="872.351,1366.07 828.627,1105.607 829.294,1103.484 955.235,701.975 
			1011.684,606.412 1235.072,485.68 1384.085,321.695 1397.838,334.192 1246.694,500.521 1025.058,620.305 972.323,709.581 
			847.69,1106.921 890.677,1362.994 		"/>
		<polygon clip-path="url(#SVGID_2_)" fill="#38A884" points="1740.483,1346.113 1479.465,873.793 996.931,697.021 911.044,676.537 
			599.333,652.972 255.141,905.194 244.158,890.206 593.887,633.927 597.31,634.185 913.919,658.12 1002.299,679.199 
			1002.811,679.385 1492.374,858.733 1494.051,861.769 1756.746,1337.125 		"/>
		<path clip-path="url(#SVGID_2_)" fill="#F1FDF9" d="M376.683,1265.072l-4.642-11.485l30.627-12.379l4.642,11.485L376.683,1265.072
			z M414.967,1249.599l-4.642-11.485l30.626-12.379l4.642,11.485L414.967,1249.599z M453.25,1234.126l-4.641-11.485l30.627-12.378
			l4.642,11.484L453.25,1234.126z M491.536,1218.654l-4.642-11.485l30.626-12.379l4.642,11.485L491.536,1218.654z M741.406,1218.321
			l-29.24-15.371l5.765-10.965l29.24,15.372L741.406,1218.321z M753.449,1217.775l-2.132-12.203l32.541-5.686l2.132,12.204
			L753.449,1217.775z M794.125,1210.668l-2.131-12.203l32.541-5.685l2.131,12.203L794.125,1210.668z M834.802,1203.562
			l-2.132-12.203l25.22-4.405l6.336-1.97l3.678,11.829l-6.715,2.088c-0.254,0.078-0.512,0.142-0.773,0.187L834.802,1203.562z
			 M529.819,1203.181l-4.642-11.485l30.627-12.379l4.642,11.485L529.819,1203.181z M704.856,1199.106l-29.24-15.371l5.764-10.965
			l29.24,15.372L704.856,1199.106z M875.791,1194.363l-3.677-11.828l31.545-9.807l3.677,11.829L875.791,1194.363z M568.104,1187.708
			l-4.642-11.485l30.626-12.38l4.643,11.486L568.104,1187.708z M915.223,1182.106l-3.677-11.83l31.545-9.804l3.677,11.83
			L915.223,1182.106z M668.307,1179.891l-29.239-15.372l5.765-10.965l29.239,15.373L668.307,1179.891z M606.387,1172.235
			l-4.642-11.485l30.627-12.379l4.642,11.485L606.387,1172.235z M954.654,1169.851l-3.677-11.831l31.545-9.804l3.676,11.83
			L954.654,1169.851z M994.428,1157.437l-4.386-11.586l30.895-11.695l4.386,11.586L994.428,1157.437z M1033.046,1142.817
			l-4.386-11.585l30.895-11.695l4.386,11.585L1033.046,1142.817z M1071.665,1128.198l-4.387-11.585l30.895-11.695l4.387,11.586
			L1071.665,1128.198z M1420.407,1125.76l-8.67-8.848l23.595-23.121l8.67,8.848L1420.407,1125.76z M1404.988,1118.28l-30.496-12.7
			l4.763-11.436l30.496,12.699L1404.988,1118.28z M1110.282,1113.579l-4.386-11.586l30.896-11.694l4.386,11.585L1110.282,1113.579z
			 M1366.868,1102.406l-30.495-12.699l4.762-11.437l30.496,12.699L1366.868,1102.406z M1148.901,1098.959l-4.387-11.585
			l30.895-11.695l4.387,11.585L1148.901,1098.959z M1449.9,1096.859l-8.67-8.848l23.595-23.12l8.67,8.848L1449.9,1096.859z
			 M1328.749,1086.532l-30.496-12.698l4.762-11.437l30.496,12.698L1328.749,1086.532z M1187.519,1084.34l-4.387-11.586
			l30.895-11.695l4.386,11.586L1187.519,1084.34z M1290.628,1070.659l-30.496-12.699l4.763-11.437l30.495,12.699L1290.628,1070.659z
			 M1226.136,1069.721l-4.386-11.585l30.895-11.695l4.386,11.585L1226.136,1069.721z M1479.393,1067.96l-8.67-8.849l23.594-23.121
			l8.671,8.849L1479.393,1067.96z M1508.886,1039.058l-8.67-8.847l23.594-23.121l8.671,8.848L1508.886,1039.058z M1538.379,1010.16
			l-8.67-8.849l10.538-10.327l-4.09-8.427l11.146-5.408l6.034,12.437c1.162,2.396,0.664,5.265-1.236,7.128L1538.379,1010.16z
			 M1532.552,975.126l-14.421-29.72l11.145-5.408l14.422,29.719L1532.552,975.126z M1514.526,937.976l-14.421-29.72l11.146-5.408
			l14.421,29.72L1514.526,937.976z M1496.5,900.827l-14.421-29.721l11.145-5.408l14.421,29.722L1496.5,900.827z M1477.203,871.849
			l-30.891-11.707l4.39-11.584l30.891,11.707L1477.203,871.849z M1438.589,857.215l-30.891-11.705l4.39-11.584l30.891,11.706
			L1438.589,857.215z M1399.976,842.583l-30.891-11.705l4.39-11.583L1404.366,831L1399.976,842.583z M1361.363,827.951
			l-30.891-11.705l4.39-11.583l30.891,11.705L1361.363,827.951z M1322.75,813.319l-30.89-11.704l4.389-11.585l30.892,11.706
			L1322.75,813.319z M1284.137,798.688l-30.892-11.707l4.391-11.584l30.891,11.707L1284.137,798.688z M1245.523,784.054
			l-30.89-11.705l4.389-11.583l30.892,11.705L1245.523,784.054z M1206.911,769.422l-30.891-11.705l4.39-11.584l30.891,11.706
			L1206.911,769.422z M1168.298,754.79l-30.892-11.705l4.39-11.583l30.891,11.705L1168.298,754.79z M1129.684,740.159
			l-30.891-11.706l4.39-11.583l30.891,11.705L1129.684,740.159z M1091.071,725.527l-30.891-11.707l4.391-11.585l30.89,11.708
			L1091.071,725.527z M1052.458,710.893l-30.89-11.705l4.39-11.583l30.891,11.705L1052.458,710.893z M1013.845,696.261
			l-30.891-11.705l2.503-6.607l-10.23-6.429l17.575-27.971l10.489,6.591l-14.654,23.322l29.598,11.216L1013.845,696.261z
			 M1007.685,643.147l-10.489-6.59l17.575-27.971l10.489,6.591L1007.685,643.147z M1026.069,609.154l-5.613-11.043l29.449-14.968
			l5.612,11.043L1026.069,609.154z M1062.879,590.445l-5.612-11.043l29.448-14.968l5.613,11.043L1062.879,590.445z
			 M1099.691,571.736l-5.613-11.043l29.449-14.967l5.612,11.043L1099.691,571.736z M1136.502,553.028l-5.613-11.043l29.448-14.969
			l5.613,11.043L1136.502,553.028z M1173.313,534.318l-5.613-11.043l29.449-14.968l5.612,11.043L1173.313,534.318z
			 M1210.124,515.609l-5.612-11.044l29.448-14.966l5.613,11.044L1210.124,515.609z M1247.882,494.447l-9.177-8.322l22.191-24.471
			l9.176,8.322L1247.882,494.447z M1275.621,463.859l-9.176-8.322l22.19-24.472l9.177,8.322L1275.621,463.859z M1303.36,433.27
			l-9.177-8.322l15.139-16.694l9.177,8.322L1303.36,433.27z"/>
		<linearGradient id="SVGID_17_" gradientUnits="userSpaceOnUse" x1="614.6157" y1="1154.5952" x2="652.3877" y2="1154.5952">
			<stop  offset="0" style="stop-color:#AA5AFF"/>
			<stop  offset="0.0807" style="stop-color:#A856FF"/>
			<stop  offset="0.6468" style="stop-color:#9F3FFE"/>
			<stop  offset="1" style="stop-color:#9B36FE"/>
		</linearGradient>
		<circle clip-path="url(#SVGID_2_)" fill="url(#SVGID_17_)" cx="633.502" cy="1154.595" r="18.886"/>
		<linearGradient id="SVGID_18_" gradientUnits="userSpaceOnUse" x1="972.7607" y1="1151.8672" x2="1010.5327" y2="1151.8672">
			<stop  offset="0" style="stop-color:#AA5AFF"/>
			<stop  offset="0.0807" style="stop-color:#A856FF"/>
			<stop  offset="0.6468" style="stop-color:#9F3FFE"/>
			<stop  offset="1" style="stop-color:#9B36FE"/>
		</linearGradient>
		<circle clip-path="url(#SVGID_2_)" fill="url(#SVGID_18_)" cx="991.647" cy="1151.868" r="18.886"/>
		<linearGradient id="SVGID_19_" gradientUnits="userSpaceOnUse" x1="1341.8589" y1="822.1172" x2="1379.6313" y2="822.1172">
			<stop  offset="0" style="stop-color:#AA5AFF"/>
			<stop  offset="0.0807" style="stop-color:#A856FF"/>
			<stop  offset="0.6468" style="stop-color:#9F3FFE"/>
			<stop  offset="1" style="stop-color:#9B36FE"/>
		</linearGradient>
		<circle clip-path="url(#SVGID_2_)" fill="url(#SVGID_19_)" cx="1360.745" cy="822.118" r="18.886"/>
		<linearGradient id="SVGID_20_" gradientUnits="userSpaceOnUse" x1="1469.23" y1="879.8896" x2="1507.0015" y2="879.8896">
			<stop  offset="0" style="stop-color:#AA5AFF"/>
			<stop  offset="0.0807" style="stop-color:#A856FF"/>
			<stop  offset="0.6468" style="stop-color:#9F3FFE"/>
			<stop  offset="1" style="stop-color:#9B36FE"/>
		</linearGradient>
		<circle clip-path="url(#SVGID_2_)" fill="url(#SVGID_20_)" cx="1488.116" cy="879.889" r="18.886"/>
		<linearGradient id="SVGID_21_" gradientUnits="userSpaceOnUse" x1="1059.2739" y1="715.2974" x2="1097.0464" y2="715.2974">
			<stop  offset="0" style="stop-color:#AA5AFF"/>
			<stop  offset="0.0807" style="stop-color:#A856FF"/>
			<stop  offset="0.6468" style="stop-color:#9F3FFE"/>
			<stop  offset="1" style="stop-color:#9B36FE"/>
		</linearGradient>
		<circle clip-path="url(#SVGID_2_)" fill="url(#SVGID_21_)" cx="1078.16" cy="715.297" r="18.886"/>
		<linearGradient id="SVGID_22_" gradientUnits="userSpaceOnUse" x1="1195.8989" y1="510.9312" x2="1233.6714" y2="510.9312">
			<stop  offset="0" style="stop-color:#AA5AFF"/>
			<stop  offset="0.0807" style="stop-color:#A856FF"/>
			<stop  offset="0.6468" style="stop-color:#9F3FFE"/>
			<stop  offset="1" style="stop-color:#9B36FE"/>
		</linearGradient>
		<circle clip-path="url(#SVGID_2_)" fill="url(#SVGID_22_)" cx="1214.785" cy="510.931" r="18.886"/>
		<linearGradient id="SVGID_23_" gradientUnits="userSpaceOnUse" x1="1297.1802" y1="410.9048" x2="1334.9526" y2="410.9048">
			<stop  offset="0" style="stop-color:#AA5AFF"/>
			<stop  offset="0.0807" style="stop-color:#A856FF"/>
			<stop  offset="0.6468" style="stop-color:#9F3FFE"/>
			<stop  offset="1" style="stop-color:#9B36FE"/>
		</linearGradient>
		<circle clip-path="url(#SVGID_2_)" fill="url(#SVGID_23_)" cx="1316.066" cy="410.905" r="18.886"/>
		<linearGradient id="SVGID_24_" gradientUnits="userSpaceOnUse" x1="1400.8745" y1="1117.7207" x2="1438.647" y2="1117.7207">
			<stop  offset="0" style="stop-color:#AA5AFF"/>
			<stop  offset="0.0807" style="stop-color:#A856FF"/>
			<stop  offset="0.6468" style="stop-color:#9F3FFE"/>
			<stop  offset="1" style="stop-color:#9B36FE"/>
		</linearGradient>
		<circle clip-path="url(#SVGID_2_)" fill="url(#SVGID_24_)" cx="1419.761" cy="1117.72" r="18.886"/>
		<linearGradient id="SVGID_25_" gradientUnits="userSpaceOnUse" x1="1499.3638" y1="1000.8838" x2="1570.7241" y2="1000.8838">
			<stop  offset="0" style="stop-color:#AA5AFF"/>
			<stop  offset="0.0807" style="stop-color:#A856FF"/>
			<stop  offset="0.6468" style="stop-color:#9F3FFE"/>
			<stop  offset="1" style="stop-color:#9B36FE"/>
		</linearGradient>
		<circle clip-path="url(#SVGID_2_)" fill="url(#SVGID_25_)" cx="1535.044" cy="1000.883" r="35.68"/>
		<path clip-path="url(#SVGID_2_)" fill="#FFFFFF" d="M1528.743,1011.132v-2.791c0-2.553,0.393-4.779,1.177-6.68
			c0.784-1.901,2.213-3.941,4.287-6.122c1.967-2.153,3.224-3.842,3.769-5.064s0.817-2.777,0.817-4.666
			c0-1.728-0.399-3.137-1.196-4.227c-0.798-1.091-2.061-1.636-3.789-1.636c-2.871,0-5.889,1.023-9.052,3.071l-3.749-7.977
			c4.174-2.845,8.8-4.267,13.878-4.267c4.387,0,7.85,1.216,10.389,3.648s3.809,5.816,3.809,10.149c0,3.031-0.439,5.604-1.316,7.717
			s-2.698,4.66-5.464,7.637c-1.781,1.941-2.917,3.437-3.409,4.487c-0.492,1.05-0.737,2.479-0.737,4.287v2.432H1528.743z
			 M1526.869,1024.452c0-2.1,0.564-3.715,1.694-4.845s2.772-1.695,4.926-1.695c2.18,0,3.828,0.578,4.944,1.735
			c1.117,1.156,1.675,2.758,1.675,4.805c0,2.021-0.571,3.616-1.715,4.786c-1.143,1.17-2.777,1.755-4.904,1.755
			s-3.763-0.572-4.905-1.715C1527.44,1028.134,1526.869,1026.526,1526.869,1024.452z"/>
		<linearGradient id="SVGID_26_" gradientUnits="userSpaceOnUse" x1="1190.2202" y1="765.481" x2="1255.8696" y2="765.481">
			<stop  offset="0" style="stop-color:#AA5AFF"/>
			<stop  offset="0.0807" style="stop-color:#A856FF"/>
			<stop  offset="0.6468" style="stop-color:#9F3FFE"/>
			<stop  offset="1" style="stop-color:#9B36FE"/>
		</linearGradient>
		<circle clip-path="url(#SVGID_2_)" fill="url(#SVGID_26_)" cx="1223.045" cy="765.481" r="32.825"/>
		<path clip-path="url(#SVGID_2_)" fill="#FFFFFF" d="M1218.8,785.819c0-1.887,0.502-3.351,1.507-4.392
			c1.004-1.04,2.498-1.561,4.481-1.561c1.984,0,3.484,0.515,4.501,1.543c1.016,1.028,1.523,2.498,1.523,4.409
			c0,1.888-0.525,3.352-1.578,4.392s-2.534,1.561-4.446,1.561c-1.96,0-3.447-0.526-4.464-1.579
			C1219.309,789.14,1218.8,787.682,1218.8,785.819z M1228.817,773.698h-7.947l-1.778-35.966h11.577L1228.817,773.698z"/>
		<linearGradient id="SVGID_27_" gradientUnits="userSpaceOnUse" x1="356.5122" y1="1257.0078" x2="403.6968" y2="1257.0078">
			<stop  offset="0" style="stop-color:#AA5AFF"/>
			<stop  offset="0.0807" style="stop-color:#A856FF"/>
			<stop  offset="0.6468" style="stop-color:#9F3FFE"/>
			<stop  offset="1" style="stop-color:#9B36FE"/>
		</linearGradient>
		<circle clip-path="url(#SVGID_2_)" fill="url(#SVGID_27_)" cx="380.104" cy="1257.008" r="23.592"/>
		<g clip-path="url(#SVGID_2_)">
			<g>
				<linearGradient id="SVGID_28_" gradientUnits="userSpaceOnUse" x1="830.5015" y1="1189.457" x2="880.5015" y2="1189.457">
					<stop  offset="0" style="stop-color:#CC9CFF"/>
					<stop  offset="0.4079" style="stop-color:#BB7AFF"/>
					<stop  offset="0.7728" style="stop-color:#AE63FF"/>
					<stop  offset="1" style="stop-color:#AA5AFF"/>
				</linearGradient>
				<path fill="url(#SVGID_28_)" d="M855.501,1214.457c-13.785,0-25-11.215-25-25c0-13.785,11.215-25,25-25s25,11.215,25,25
					C880.501,1203.242,869.287,1214.457,855.501,1214.457z"/>
				<path fill="#FFFFFF" d="M855.501,1165.957c12.958,0,23.5,10.542,23.5,23.5c0,12.958-10.542,23.5-23.5,23.5
					s-23.5-10.542-23.5-23.5C832.001,1176.5,842.543,1165.957,855.501,1165.957 M855.501,1162.957c-14.634,0-26.5,11.866-26.5,26.5
					c0,14.632,11.866,26.5,26.5,26.5c14.633,0,26.5-11.867,26.5-26.5C882.001,1174.823,870.135,1162.957,855.501,1162.957
					L855.501,1162.957z"/>
			</g>
			<g>
				<g>
					<linearGradient id="SVGID_29_" gradientUnits="userSpaceOnUse" x1="806.8896" y1="1053.6953" x2="900.0942" y2="1053.6953">
						<stop  offset="0" style="stop-color:#CC9CFF"/>
						<stop  offset="0.4079" style="stop-color:#BB7AFF"/>
						<stop  offset="0.7728" style="stop-color:#AE63FF"/>
						<stop  offset="1" style="stop-color:#AA5AFF"/>
					</linearGradient>
					<circle fill="url(#SVGID_29_)" cx="853.492" cy="1053.695" r="46.602"/>
					<linearGradient id="SVGID_30_" gradientUnits="userSpaceOnUse" x1="806.8047" y1="1102.0239" x2="900.0991" y2="1102.0239">
						<stop  offset="0" style="stop-color:#CC9CFF"/>
						<stop  offset="0.4079" style="stop-color:#BB7AFF"/>
						<stop  offset="0.7728" style="stop-color:#AE63FF"/>
						<stop  offset="1" style="stop-color:#AA5AFF"/>
					</linearGradient>
					<path fill="url(#SVGID_30_)" d="M900.009,1051.196h-46.517H806.89c0,0-3.71,25.868,37.881,96.717
						c1.817,3.089,5.13,4.937,8.716,4.939c3.582,0.001,6.905-1.815,8.72-4.907C903.794,1077.09,900.009,1051.196,900.009,1051.196z"
						/>
				</g>
				<g>
					<g>
						<path fill="#FFFFFF" d="M853.469,1154.364v0.264h0.017c-4.058,0-7.844-2.233-9.881-5.705
							c-24.313-41.413-33.221-67.599-36.412-82.252c-0.91-3.37-1.433-6.673-1.597-10.062c-0.283-3.464-0.067-4.926-0.042-5.079
							l0.124-0.746c1.878-25.034,22.711-44.516,47.815-44.516c25.433,0,46.455,19.758,47.875,44.991
							c0.037,0.33,0.104,1.167,0.078,2.569l0.002,0.173c0,4.576-0.646,9.11-1.922,13.475c-3.3,14.641-12.266,40.568-36.162,81.284
							C861.313,1152.252,857.664,1154.364,853.469,1154.364z M808.162,1053.293c-0.012,0.7,0.009,1.696,0.132,3.199
							c0.155,3.209,0.654,6.294,1.52,9.495l0.016,0.052c3.144,14.453,11.96,40.311,36.109,81.447
							c1.555,2.649,4.435,4.291,7.536,4.293l-0.005,1.351v-1.354c2.796,0,5.992-1.66,7.562-4.33
							c23.742-40.456,32.606-66.163,35.859-80.606l0.023-0.084c1.212-4.13,1.555-8.423,1.555-12.756l-0.271-0.19v-0.016
							c0-1.348,0.229-2.078,0.206-2.269l0.129-0.078c-1.322-23.819-21.099-42.475-45.109-42.475
							c-23.964,0-43.771,18.92-45.138,42.947l-0.036,1.376H808.162z"/>
					</g>
				</g>
				<circle fill="#FFFFFF" cx="853.642" cy="1053.544" r="26.909"/>
				<g>
					<g>
						<linearGradient id="SVGID_31_" gradientUnits="userSpaceOnUse" x1="825.229" y1="1053.5439" x2="882.0547" y2="1053.5439">
							<stop  offset="0" style="stop-color:#AA5AFF"/>
							<stop  offset="0.0807" style="stop-color:#A856FF"/>
							<stop  offset="0.6468" style="stop-color:#9F3FFE"/>
							<stop  offset="1" style="stop-color:#9B36FE"/>
						</linearGradient>
						<path fill="url(#SVGID_31_)" d="M853.642,1081.956c-15.667,0-28.413-12.745-28.413-28.412
							c0-15.665,12.747-28.412,28.413-28.412c15.666,0,28.413,12.747,28.413,28.412
							C882.055,1069.211,869.308,1081.956,853.642,1081.956z M853.642,1028.139c-14.01,0-25.407,11.396-25.407,25.405
							s11.397,25.406,25.407,25.406s25.406-11.397,25.406-25.406S867.652,1028.139,853.642,1028.139z"/>
					</g>
				</g>
				<g>
					<path fill="#FFFFFF" d="M828.118,1025.526c-0.128,0-0.256-0.053-0.344-0.156c-0.161-0.189-0.141-0.474,0.048-0.636
						c7.561-6.492,17.219-10.068,27.195-10.068c0.251,0,0.452,0.202,0.452,0.451c0,0.25-0.201,0.452-0.452,0.452
						c-9.761,0-19.209,3.497-26.606,9.849C828.325,1025.492,828.221,1025.526,828.118,1025.526z"/>
				</g>
				<g>
					<path fill="#FFFFFF" d="M813.706,1056.879c-0.248,0-0.451-0.201-0.451-0.448c0-7.794,2.162-15.396,6.249-21.985
						c0.13-0.212,0.408-0.276,0.62-0.144c0.212,0.129,0.276,0.407,0.145,0.62c-3.997,6.446-6.111,13.883-6.111,21.509
						C814.157,1056.678,813.956,1056.879,813.706,1056.879z"/>
				</g>
			</g>
		</g>
		<g clip-path="url(#SVGID_2_)">
			<g>
				<linearGradient id="SVGID_32_" gradientUnits="userSpaceOnUse" x1="1153.4785" y1="1083.1001" x2="1197.2339" y2="1083.1001">
					<stop  offset="0" style="stop-color:#CC9CFF"/>
					<stop  offset="0.4079" style="stop-color:#BB7AFF"/>
					<stop  offset="0.7728" style="stop-color:#AE63FF"/>
					<stop  offset="1" style="stop-color:#AA5AFF"/>
				</linearGradient>
				<path fill="url(#SVGID_32_)" d="M1175.356,1104.978c-12.063,0-21.877-9.814-21.877-21.877c0-12.064,9.814-21.878,21.877-21.878
					s21.878,9.814,21.878,21.878C1197.234,1095.164,1187.419,1104.978,1175.356,1104.978z"/>
				<path fill="#FFFFFF" d="M1175.356,1062.722c11.236,0,20.378,9.142,20.378,20.378c0,11.236-9.142,20.377-20.378,20.377
					s-20.377-9.141-20.377-20.377C1154.979,1071.864,1164.12,1062.722,1175.356,1062.722 M1175.356,1059.722
					c-12.91,0-23.377,10.468-23.377,23.378c0,12.909,10.468,23.377,23.377,23.377c12.909,0,23.378-10.469,23.378-23.377
					C1198.734,1070.19,1188.265,1059.722,1175.356,1059.722L1175.356,1059.722z"/>
			</g>
			<g>
				<g>
					<linearGradient id="SVGID_33_" gradientUnits="userSpaceOnUse" x1="1132.4692" y1="963.3242" x2="1214.6929" y2="963.3242">
						<stop  offset="0" style="stop-color:#CC9CFF"/>
						<stop  offset="0.4079" style="stop-color:#BB7AFF"/>
						<stop  offset="0.7728" style="stop-color:#AE63FF"/>
						<stop  offset="1" style="stop-color:#AA5AFF"/>
					</linearGradient>
					<path fill="url(#SVGID_33_)" d="M1214.693,963.324c0,22.702-18.405,41.117-41.105,41.117
						c-22.712,0-41.118-18.415-41.118-41.117c0-22.713,18.406-41.117,41.118-41.117
						C1196.288,922.207,1214.693,940.611,1214.693,963.324z"/>
					<linearGradient id="SVGID_34_" gradientUnits="userSpaceOnUse" x1="1132.394" y1="1005.957" x2="1214.6997" y2="1005.957">
						<stop  offset="0" style="stop-color:#CC9CFF"/>
						<stop  offset="0.4079" style="stop-color:#BB7AFF"/>
						<stop  offset="0.7728" style="stop-color:#AE63FF"/>
						<stop  offset="1" style="stop-color:#AA5AFF"/>
					</linearGradient>
					<path fill="url(#SVGID_34_)" d="M1214.621,961.114h-41.033h-41.118c0,0-3.275,22.825,33.422,85.328
						c1.6,2.725,4.525,4.355,7.691,4.357c3.157,0.001,6.085-1.598,7.686-4.328C1217.958,983.958,1214.621,961.114,1214.621,961.114z
						"/>
				</g>
				<g>
					<g>
						<path fill="#FFFFFF" d="M1173.565,1052.142v0.228h0.017c-3.585,0-6.928-1.968-8.724-5.033
							c-21.444-36.54-29.308-59.639-32.12-72.569c-0.803-2.973-1.264-5.89-1.412-8.88c-0.252-3.054-0.06-4.347-0.035-4.476
							l0.105-0.662c1.655-22.081,20.041-39.271,42.19-39.271c22.431,0,40.982,17.431,42.234,39.695
							c0.037,0.286,0.092,1.027,0.066,2.267l0.002,0.153c0,4.034-0.564,8.038-1.693,11.883
							c-2.914,12.917-10.819,35.794-31.906,71.712C1180.48,1050.272,1177.265,1052.142,1173.565,1052.142z M1133.586,962.971
							c-0.012,0.615,0.009,1.491,0.12,2.819c0.141,2.829,0.578,5.553,1.339,8.38l0.016,0.041
							c2.772,12.752,10.55,35.565,31.857,71.861c1.37,2.336,3.913,3.786,6.652,3.787l-0.005,1.195v-1.197
							c2.462,0,5.283-1.467,6.67-3.824c20.945-35.694,28.769-58.375,31.639-71.119l0.021-0.072c1.07-3.637,1.366-7.427,1.366-11.25
							l-0.235-0.167v-0.016c0-1.191,0.204-1.836,0.182-2.003l0.117-0.066c-1.171-21.02-18.615-37.472-39.805-37.472
							c-21.143,0-38.612,16.69-39.822,37.884l-0.027,1.219H1133.586z"/>
					</g>
				</g>
				<circle fill="#FFFFFF" cx="1173.715" cy="963.185" r="23.74"/>
				<g>
					<g>
						<linearGradient id="SVGID_35_" gradientUnits="userSpaceOnUse" x1="1148.6519" y1="963.1904" x2="1198.7817" y2="963.1904">
							<stop  offset="0" style="stop-color:#AA5AFF"/>
							<stop  offset="0.0807" style="stop-color:#A856FF"/>
							<stop  offset="0.6468" style="stop-color:#9F3FFE"/>
							<stop  offset="1" style="stop-color:#9B36FE"/>
						</linearGradient>
						<path fill="url(#SVGID_35_)" d="M1173.714,988.257c-13.822,0-25.062-11.25-25.062-25.072c0-13.82,11.24-25.061,25.062-25.061
							c13.821,0,25.068,11.241,25.068,25.061C1198.782,977.007,1187.535,988.257,1173.714,988.257z M1173.714,940.77
							c-12.358,0-22.417,10.058-22.417,22.415c0,12.361,10.058,22.417,22.417,22.417c12.36,0,22.417-10.055,22.417-22.417
							C1196.13,950.828,1186.074,940.77,1173.714,940.77z"/>
					</g>
				</g>
				<g>
					<path fill="#FFFFFF" d="M1151.197,938.471c-0.112,0-0.226-0.052-0.302-0.141c-0.148-0.167-0.128-0.417,0.036-0.555
						c6.67-5.731,15.193-8.886,23.999-8.886c0.216,0,0.393,0.178,0.393,0.402c0,0.214-0.177,0.392-0.393,0.392
						c-8.615,0-16.954,3.087-23.478,8.692C1151.379,938.437,1151.283,938.471,1151.197,938.471z"/>
				</g>
				<g>
					<path fill="#FFFFFF" d="M1138.479,966.134c-0.218,0-0.398-0.177-0.398-0.4c0-6.878,1.912-13.587,5.52-19.393
						c0.107-0.188,0.36-0.245,0.545-0.131c0.186,0.117,0.244,0.359,0.124,0.547c-3.526,5.687-5.388,12.251-5.388,18.978
						C1138.882,965.958,1138.705,966.134,1138.479,966.134z"/>
				</g>
			</g>
		</g>
	</g>
	<linearGradient id="SVGID_36_" gradientUnits="userSpaceOnUse" x1="498.1182" y1="866.5903" x2="366.1249" y2="988.0843">
		<stop  offset="0" style="stop-color:#CC9CFF"/>
		<stop  offset="0.4079" style="stop-color:#BB7AFF"/>
		<stop  offset="0.7728" style="stop-color:#AE63FF"/>
		<stop  offset="1" style="stop-color:#AA5AFF"/>
	</linearGradient>
	<path fill="url(#SVGID_36_)" d="M111.831,1171.293c-10.288,0-18.828-5.046-19.443-11.486l-12.455-130.468
		c-0.33-3.451,1.59-6.857,5.268-9.346c3.634-2.458,8.566-3.833,13.887-3.868l320.767-2.147c5.303,0,10.414,1.399,14.021,3.839
		c3.699,2.502,5.596,5.935,5.206,9.417l-14.701,131.189c-0.714,6.375-9.261,11.408-19.458,11.457L111.831,1171.293z"/>
	<linearGradient id="SVGID_37_" gradientUnits="userSpaceOnUse" x1="391.1289" y1="1398.4199" x2="365.6302" y2="1203.4287">
		<stop  offset="0" style="stop-color:#CC9CFF"/>
		<stop  offset="0.4079" style="stop-color:#BB7AFF"/>
		<stop  offset="0.7728" style="stop-color:#AE63FF"/>
		<stop  offset="1" style="stop-color:#AA5AFF"/>
	</linearGradient>
	<path fill="url(#SVGID_37_)" d="M339.514,1166.417l25.634,59.016c0.455,1.048,1.537,1.68,2.674,1.561
		c1.136-0.118,2.064-0.96,2.294-2.079l11.958-58.445L339.514,1166.417z"/>
	<path fill="#FFFFFF" d="M125.512,1162.027c-9.401,0-17.205-4.383-17.768-9.978l-11.382-113.323
		c-0.301-2.998,1.453-5.957,4.813-8.117c3.321-2.136,7.828-3.329,12.69-3.36l293.124-1.865c4.846,0,9.516,1.215,12.812,3.334
		c3.38,2.173,5.114,5.154,4.757,8.18l-13.434,113.951c-0.652,5.537-8.463,9.909-17.781,9.951L125.512,1162.027z"/>
	<linearGradient id="SVGID_38_" gradientUnits="userSpaceOnUse" x1="88.6011" y1="1059.7095" x2="559.5686" y2="1349.189">
		<stop  offset="0" style="stop-color:#CC9CFF"/>
		<stop  offset="0.4079" style="stop-color:#BB7AFF"/>
		<stop  offset="0.7728" style="stop-color:#AE63FF"/>
		<stop  offset="1" style="stop-color:#AA5AFF"/>
	</linearGradient>
	<path fill="url(#SVGID_38_)" d="M167.018,1113.565c0,8.275-2.089,14.612-6.267,19.013c-4.178,4.4-10.202,6.6-18.074,6.6
		c-7.71,0-14.27-1.514-19.678-4.541v-16.288c6.62,4.319,12.695,6.479,18.225,6.479c3.148,0,5.52-0.868,7.115-2.604
		c1.594-1.736,2.392-4.098,2.392-7.085c0-2.946-0.949-5.641-2.846-8.083c-1.897-2.442-5.026-5.157-9.386-8.144
		c-3.794-2.624-6.67-5.137-8.628-7.538c-1.958-2.402-3.472-5.097-4.541-8.084c-1.07-2.987-1.604-6.459-1.604-10.414
		c0-7.589,2.109-13.604,6.327-18.044s9.88-6.66,16.984-6.66c6.781,0,13.3,1.896,19.557,5.691l-5.45,13.199
		c-1.938-1.13-3.966-2.139-6.085-3.027c-2.119-0.888-4.39-1.332-6.812-1.332c-2.665,0-4.713,0.878-6.146,2.634
		s-2.149,4.147-2.149,7.176c0,2.987,0.858,5.59,2.573,7.811c1.715,2.22,4.713,4.743,8.992,7.568
		c5.772,3.875,9.799,7.831,12.08,11.868C165.877,1103.796,167.018,1108.398,167.018,1113.565z"/>
	<linearGradient id="SVGID_39_" gradientUnits="userSpaceOnUse" x1="105.4536" y1="1032.2881" x2="576.4303" y2="1321.7732">
		<stop  offset="0" style="stop-color:#CC9CFF"/>
		<stop  offset="0.4079" style="stop-color:#BB7AFF"/>
		<stop  offset="0.7728" style="stop-color:#AE63FF"/>
		<stop  offset="1" style="stop-color:#AA5AFF"/>
	</linearGradient>
	<path fill="url(#SVGID_39_)" d="M205.103,1137.966h-16.409v-74.052h-16.954v-14.471h50.316v14.471h-16.954V1137.966z"/>
	<linearGradient id="SVGID_40_" gradientUnits="userSpaceOnUse" x1="116.627" y1="1014.1133" x2="587.5996" y2="1303.5959">
		<stop  offset="0" style="stop-color:#CC9CFF"/>
		<stop  offset="0.4079" style="stop-color:#BB7AFF"/>
		<stop  offset="0.7728" style="stop-color:#AE63FF"/>
		<stop  offset="1" style="stop-color:#AA5AFF"/>
	</linearGradient>
	<path fill="url(#SVGID_40_)" d="M273.403,1137.966l-5.086-22.342h-23.069l-5.086,22.342h-16.469l21.918-88.886h22.343
		l21.979,88.886H273.403z M265.229,1101.032l-4.723-20.587c-0.282-1.252-0.918-4.39-1.907-9.416
		c-0.989-5.025-1.584-8.386-1.786-10.08c-0.524,3.471-1.19,7.295-1.998,11.474c-0.807,4.178-2.906,13.714-6.297,28.609H265.229z"/>
	<linearGradient id="SVGID_41_" gradientUnits="userSpaceOnUse" x1="135.187" y1="983.9165" x2="606.1609" y2="1273.3999">
		<stop  offset="0" style="stop-color:#CC9CFF"/>
		<stop  offset="0.4079" style="stop-color:#BB7AFF"/>
		<stop  offset="0.7728" style="stop-color:#AE63FF"/>
		<stop  offset="1" style="stop-color:#AA5AFF"/>
	</linearGradient>
	<path fill="url(#SVGID_41_)" d="M314.213,1103.514v34.452h-16.469v-88.522h21.556c9.122,0,15.854,2.159,20.193,6.479
		s6.509,10.919,6.509,19.8c0,11.181-3.774,18.992-11.323,23.433l17.014,38.812h-17.62l-13.986-34.452H314.213z M314.213,1089.345
		h4.238c3.875,0,6.661-1.1,8.356-3.3s2.543-5.479,2.543-9.839c0-4.521-0.898-7.74-2.694-9.658c-1.796-1.917-4.571-2.876-8.326-2.876
		h-4.117V1089.345z"/>
	<linearGradient id="SVGID_42_" gradientUnits="userSpaceOnUse" x1="155.3115" y1="951.1724" x2="626.2882" y2="1240.6575">
		<stop  offset="0" style="stop-color:#CC9CFF"/>
		<stop  offset="0.4079" style="stop-color:#BB7AFF"/>
		<stop  offset="0.7728" style="stop-color:#AE63FF"/>
		<stop  offset="1" style="stop-color:#AA5AFF"/>
	</linearGradient>
	<path fill="url(#SVGID_42_)" d="M386.933,1137.966h-16.409v-74.052H353.57v-14.471h50.316v14.471h-16.954V1137.966z"/>
	<linearGradient id="SVGID_43_" gradientUnits="userSpaceOnUse" x1="1385.4053" y1="150.5884" x2="1513.772" y2="150.5884">
		<stop  offset="0" style="stop-color:#92ECD0"/>
		<stop  offset="0.0172" style="stop-color:#90ECCF"/>
		<stop  offset="0.4442" style="stop-color:#6AE5BE"/>
		<stop  offset="0.7867" style="stop-color:#53E1B4"/>
		<stop  offset="1" style="stop-color:#4AE0B0"/>
	</linearGradient>
	<path fill="url(#SVGID_43_)" d="M1507.872,161.198c-13.446,45.291-44.762,81.459-77.462,71.75
		c-32.701-9.708-54.404-61.617-40.958-106.908s56.952-66.814,89.652-57.106C1511.805,78.642,1521.318,115.906,1507.872,161.198z"/>
	<linearGradient id="SVGID_44_" gradientUnits="userSpaceOnUse" x1="1406.4087" y1="109.6006" x2="1446.9072" y2="109.6006">
		<stop  offset="0" style="stop-color:#DAE3FE"/>
		<stop  offset="1" style="stop-color:#E9EFFD"/>
	</linearGradient>
	<path fill="url(#SVGID_44_)" d="M1441.093,85.556c8.905-2.821,7.342,0.802-3.058,14.94c-10.399,14.14-24.817,39.49-30.467,32.989
		S1417.514,93.026,1441.093,85.556z"/>
	<linearGradient id="SVGID_45_" gradientUnits="userSpaceOnUse" x1="1401.3545" y1="150.6333" x2="1413.248" y2="150.6333">
		<stop  offset="0" style="stop-color:#DAE3FE"/>
		<stop  offset="1" style="stop-color:#E9EFFD"/>
	</linearGradient>
	<circle fill="url(#SVGID_45_)" cx="1407.301" cy="150.633" r="5.945"/>
	<path fill="#BDD0FB" d="M1394.753,406.77c-0.199,0-0.39-0.116-0.474-0.311c-0.114-0.262,0.006-0.566,0.268-0.68
		c7.387-3.211,10.065-11.379,8.896-17.787c-1.318-7.216-6.387-13.397-11.17-18.493c-1.111-1.184-2.248-2.354-3.386-3.525
		c-4.13-4.253-8.4-8.65-11.38-13.696c-6.885-11.658-6.643-27.027,0.646-41.114c7.407-14.315,20.715-25.52,30.08-32.702
		c0.995-0.765,2-1.522,3.006-2.282c5.772-4.36,11.742-8.869,16.062-14.406c5.681-7.281,7.344-15.487,4.448-21.951
		c-0.116-0.26,0-0.565,0.261-0.682c0.263-0.118,0.565,0.001,0.683,0.261c3.053,6.818,1.342,15.419-4.578,23.008
		c-4.402,5.644-10.427,10.193-16.253,14.594c-1.003,0.758-2.006,1.516-3,2.277c-9.287,7.123-22.479,18.227-29.791,32.357
		c-7.125,13.771-7.377,28.766-0.675,40.116c2.917,4.938,7.145,9.292,11.232,13.502c1.142,1.175,2.282,2.35,3.397,3.538
		c4.886,5.205,10.065,11.534,11.433,19.014c1.243,6.809-1.62,15.493-9.5,18.92C1394.891,406.755,1394.822,406.77,1394.753,406.77z"
		/>
	<circle fill="#91B3FA" cx="1505.549" cy="150.037" r="11.727"/>
	<linearGradient id="SVGID_46_" gradientUnits="userSpaceOnUse" x1="1503.2568" y1="187.0352" x2="1531.0591" y2="187.0352">
		<stop  offset="0" style="stop-color:#CC9CFF"/>
		<stop  offset="0.4079" style="stop-color:#DDBEFF"/>
		<stop  offset="0.7728" style="stop-color:#EAD5FF"/>
		<stop  offset="1" style="stop-color:#EEDEFF"/>
	</linearGradient>
	<circle fill="url(#SVGID_46_)" cx="1517.158" cy="187.035" r="13.899"/>
	<circle fill="#FFFFFF" cx="1539.623" cy="160.018" r="8.687"/>
	<linearGradient id="SVGID_47_" gradientUnits="userSpaceOnUse" x1="1481.6821" y1="235.2256" x2="1515.5664" y2="235.2256">
		<stop  offset="0" style="stop-color:#CC9CFF"/>
		<stop  offset="0.4079" style="stop-color:#DDBEFF"/>
		<stop  offset="0.7728" style="stop-color:#EAD5FF"/>
		<stop  offset="1" style="stop-color:#EEDEFF"/>
	</linearGradient>
	<circle fill="url(#SVGID_47_)" cx="1498.625" cy="235.226" r="16.94"/>
	<circle fill="#DBF9EF" cx="1537.559" cy="223.773" r="16.505"/>
	<linearGradient id="SVGID_48_" gradientUnits="userSpaceOnUse" x1="1515.5537" y1="119.418" x2="1528.5859" y2="119.418">
		<stop  offset="0" style="stop-color:#CC9CFF"/>
		<stop  offset="0.4079" style="stop-color:#DDBEFF"/>
		<stop  offset="0.7728" style="stop-color:#EAD5FF"/>
		<stop  offset="1" style="stop-color:#EEDEFF"/>
	</linearGradient>
	<circle fill="url(#SVGID_48_)" cx="1522.07" cy="119.418" r="6.515"/>
	<circle fill="#91B3FA" cx="1506.69" cy="299.025" r="11.728"/>
	<circle fill="#FFFFFF" cx="1525.608" cy="265.288" r="13.899"/>
	<linearGradient id="SVGID_49_" gradientUnits="userSpaceOnUse" x1="1478.1138" y1="336.667" x2="1511.9976" y2="336.667">
		<stop  offset="0" style="stop-color:#CC9CFF"/>
		<stop  offset="0.4079" style="stop-color:#DDBEFF"/>
		<stop  offset="0.7728" style="stop-color:#EAD5FF"/>
		<stop  offset="1" style="stop-color:#EEDEFF"/>
	</linearGradient>
	<circle fill="url(#SVGID_49_)" cx="1495.055" cy="336.667" r="16.94"/>
	<circle fill="#DBF9EF" cx="1538.041" cy="318.529" r="16.505"/>
	<linearGradient id="SVGID_50_" gradientUnits="userSpaceOnUse" x1="1495.4448" y1="393.7798" x2="1518.9028" y2="393.7798">
		<stop  offset="0" style="stop-color:#CC9CFF"/>
		<stop  offset="0.4079" style="stop-color:#DDBEFF"/>
		<stop  offset="0.7728" style="stop-color:#EAD5FF"/>
		<stop  offset="1" style="stop-color:#EEDEFF"/>
	</linearGradient>
	<circle fill="url(#SVGID_50_)" cx="1507.173" cy="393.78" r="11.728"/>
	<circle fill="#FFFFFF" cx="1526.092" cy="360.043" r="13.899"/>
	<circle fill="#DBF9EF" cx="1481.924" cy="272.845" r="13.465"/>
	<linearGradient id="SVGID_51_" gradientUnits="userSpaceOnUse" x1="1300.1733" y1="72.1045" x2="1275.5066" y2="116.7714">
		<stop  offset="0" style="stop-color:#CC9CFF"/>
		<stop  offset="0.4079" style="stop-color:#BB7AFF"/>
		<stop  offset="0.7728" style="stop-color:#AE63FF"/>
		<stop  offset="1" style="stop-color:#AA5AFF"/>
	</linearGradient>
	<path fill="url(#SVGID_51_)" d="M1048.22,352.504c-10.287,0-18.828-5.045-19.443-11.486l-12.455-130.468
		c-0.33-3.451,1.59-6.857,5.267-9.346c3.634-2.459,8.566-3.832,13.887-3.868l320.767-2.147c5.303,0,10.413,1.399,14.021,3.839
		c3.698,2.502,5.596,5.935,5.205,9.417l-14.701,131.189c-0.713,6.375-9.26,11.408-19.457,11.457L1048.22,352.504z"/>
	<linearGradient id="SVGID_52_" gradientUnits="userSpaceOnUse" x1="1405.0166" y1="305.4028" x2="1347.0159" y2="342.0699">
		<stop  offset="0" style="stop-color:#CC9CFF"/>
		<stop  offset="0.4079" style="stop-color:#BB7AFF"/>
		<stop  offset="0.7728" style="stop-color:#AE63FF"/>
		<stop  offset="1" style="stop-color:#AA5AFF"/>
	</linearGradient>
	<path fill="url(#SVGID_52_)" d="M1275.904,347.629l25.634,59.015c0.456,1.048,1.538,1.68,2.674,1.561
		c1.137-0.118,2.065-0.96,2.294-2.079l11.959-58.445L1275.904,347.629z"/>
	<path fill="#FFFFFF" d="M1061.902,343.238c-9.4,0-17.205-4.383-17.767-9.977l-11.382-113.324c-0.301-2.998,1.453-5.956,4.813-8.117
		c3.321-2.136,7.828-3.329,12.691-3.36l293.123-1.865c4.846,0,9.516,1.215,12.813,3.335c3.38,2.173,5.113,5.154,4.757,8.18
		l-13.434,113.95c-0.652,5.537-8.463,9.909-17.781,9.951L1061.902,343.238z"/>
	<linearGradient id="SVGID_53_" gradientUnits="userSpaceOnUse" x1="1081.6235" y1="241.8516" x2="1065.6234" y2="369.8526">
		<stop  offset="0" style="stop-color:#CC9CFF"/>
		<stop  offset="0.4079" style="stop-color:#BB7AFF"/>
		<stop  offset="0.7728" style="stop-color:#AE63FF"/>
		<stop  offset="1" style="stop-color:#AA5AFF"/>
	</linearGradient>
	<path fill="url(#SVGID_53_)" d="M1077.207,312.26h-14.179v-76.774h34.396v12.341h-20.218v21.32h18.853v12.34h-18.853V312.26z"/>
	<linearGradient id="SVGID_54_" gradientUnits="userSpaceOnUse" x1="1119.7363" y1="246.6157" x2="1103.7362" y2="374.6164">
		<stop  offset="0" style="stop-color:#CC9CFF"/>
		<stop  offset="0.4079" style="stop-color:#BB7AFF"/>
		<stop  offset="0.7728" style="stop-color:#AE63FF"/>
		<stop  offset="1" style="stop-color:#AA5AFF"/>
	</linearGradient>
	<path fill="url(#SVGID_54_)" d="M1109.607,312.26v-76.774h13.443v76.774H1109.607z"/>
	<linearGradient id="SVGID_55_" gradientUnits="userSpaceOnUse" x1="1168.8042" y1="252.75" x2="1152.8041" y2="380.7513">
		<stop  offset="0" style="stop-color:#CC9CFF"/>
		<stop  offset="0.4079" style="stop-color:#BB7AFF"/>
		<stop  offset="0.7728" style="stop-color:#AE63FF"/>
		<stop  offset="1" style="stop-color:#AA5AFF"/>
	</linearGradient>
	<path fill="url(#SVGID_55_)" d="M1193.05,312.26h-17.434l-23.736-55.611h-0.683c0.875,4.235,1.313,8.787,1.313,13.653v41.958
		h-13.233v-76.774h17.54l23.525,55.033h0.578c-0.666-3.676-0.998-8.052-0.998-13.128v-41.905h13.128V312.26z"/>
	<linearGradient id="SVGID_56_" gradientUnits="userSpaceOnUse" x1="1217.77" y1="258.8706" x2="1201.7699" y2="386.8712">
		<stop  offset="0" style="stop-color:#CC9CFF"/>
		<stop  offset="0.4079" style="stop-color:#BB7AFF"/>
		<stop  offset="0.7728" style="stop-color:#AE63FF"/>
		<stop  offset="1" style="stop-color:#AA5AFF"/>
	</linearGradient>
	<path fill="url(#SVGID_56_)" d="M1209.172,312.26v-76.774h13.443v76.774H1209.172z"/>
	<linearGradient id="SVGID_57_" gradientUnits="userSpaceOnUse" x1="1256.2866" y1="263.6851" x2="1240.2869" y2="391.6836">
		<stop  offset="0" style="stop-color:#CC9CFF"/>
		<stop  offset="0.4079" style="stop-color:#BB7AFF"/>
		<stop  offset="0.7728" style="stop-color:#AE63FF"/>
		<stop  offset="1" style="stop-color:#AA5AFF"/>
	</linearGradient>
	<path fill="url(#SVGID_57_)" d="M1273.816,291.097c0,7.177-1.812,12.673-5.436,16.489c-3.623,3.815-8.849,5.724-15.675,5.724
		c-6.687,0-12.376-1.313-17.067-3.938v-14.126c5.742,3.746,11.011,5.619,15.807,5.619c2.73,0,4.788-0.753,6.171-2.259
		c1.383-1.505,2.074-3.553,2.074-6.144c0-2.555-0.823-4.893-2.469-7.011s-4.358-4.472-8.14-7.063
		c-3.29-2.275-5.785-4.455-7.482-6.538c-1.698-2.083-3.011-4.42-3.938-7.011s-1.392-5.602-1.392-9.032
		c0-6.581,1.829-11.798,5.487-15.648c3.658-3.852,8.568-5.776,14.73-5.776c5.881,0,11.535,1.646,16.961,4.936l-4.726,11.448
		c-1.681-0.979-3.439-1.855-5.277-2.626c-1.839-0.77-3.808-1.155-5.908-1.155c-2.311,0-4.087,0.762-5.33,2.284
		c-1.243,1.523-1.864,3.598-1.864,6.224c0,2.591,0.744,4.849,2.231,6.773c1.488,1.926,4.088,4.114,7.799,6.564
		c5.006,3.361,8.498,6.792,10.477,10.293C1272.827,282.625,1273.816,286.616,1273.816,291.097z"/>
	<linearGradient id="SVGID_58_" gradientUnits="userSpaceOnUse" x1="1307.4517" y1="270.0806" x2="1291.4515" y2="398.0817">
		<stop  offset="0" style="stop-color:#CC9CFF"/>
		<stop  offset="0.4079" style="stop-color:#BB7AFF"/>
		<stop  offset="0.7728" style="stop-color:#AE63FF"/>
		<stop  offset="1" style="stop-color:#AA5AFF"/>
	</linearGradient>
	<path fill="url(#SVGID_58_)" d="M1330.687,312.26h-14.283v-33.661h-18.853v33.661h-14.283v-76.774h14.283v30.51h18.853v-30.51
		h14.283V312.26z"/>
	<linearGradient id="SVGID_59_" gradientUnits="userSpaceOnUse" x1="1414.4536" y1="269.2358" x2="1484.5493" y2="269.2358">
		<stop  offset="0" style="stop-color:#CC9CFF"/>
		<stop  offset="0.4079" style="stop-color:#BB7AFF"/>
		<stop  offset="0.7728" style="stop-color:#AE63FF"/>
		<stop  offset="1" style="stop-color:#AA5AFF"/>
	</linearGradient>
	<path fill="url(#SVGID_59_)" d="M1414.454,298.898c0,0,15.43-69.58,36.471-60.725c21.042,8.855,18.236,25.302,25.25,30.362
		S1508.438,310.284,1414.454,298.898z"/>
	<linearGradient id="SVGID_60_" gradientUnits="userSpaceOnUse" x1="1353.3887" y1="264.3184" x2="1418.2959" y2="264.3184">
		<stop  offset="0" style="stop-color:#CC9CFF"/>
		<stop  offset="0.4079" style="stop-color:#BB7AFF"/>
		<stop  offset="0.7728" style="stop-color:#AE63FF"/>
		<stop  offset="1" style="stop-color:#AA5AFF"/>
	</linearGradient>
	<path fill="url(#SVGID_60_)" d="M1417.258,298.898c0,0,7.014-70.846-15.43-69.58c-22.444,1.265-15.431,31.627-35.069,32.893
		C1347.121,263.475,1338.705,303.958,1417.258,298.898z"/>
	<path fill="#FFFFFF" d="M1365.065,428.692h93.396c10.801,0,19.796-7.474,20.68-17.183l12.023-94.896
		c0.992-10.902-8.551-20.245-20.68-20.245h-105.42c-11.46,0-20.749,8.379-20.749,18.714v94.897
		C1344.316,420.314,1353.605,428.692,1365.065,428.692z"/>
	<linearGradient id="SVGID_61_" gradientUnits="userSpaceOnUse" x1="1401.8286" y1="362.5298" x2="1434.0913" y2="362.5298">
		<stop  offset="0" style="stop-color:#CC9CFF"/>
		<stop  offset="0.4079" style="stop-color:#BB7AFF"/>
		<stop  offset="0.7728" style="stop-color:#AE63FF"/>
		<stop  offset="1" style="stop-color:#AA5AFF"/>
	</linearGradient>
	<rect x="1401.829" y="296.368" fill="url(#SVGID_61_)" width="32.263" height="132.324"/>
	<g>
		<g>
			<linearGradient id="SVGID_62_" gradientUnits="userSpaceOnUse" x1="955.7153" y1="676.457" x2="1005.7153" y2="676.457">
				<stop  offset="0" style="stop-color:#CC9CFF"/>
				<stop  offset="0.4079" style="stop-color:#BB7AFF"/>
				<stop  offset="0.7728" style="stop-color:#AE63FF"/>
				<stop  offset="1" style="stop-color:#AA5AFF"/>
			</linearGradient>
			<path fill="url(#SVGID_62_)" d="M980.715,701.457c-13.785,0-25-11.215-25-25c0-13.785,11.215-25,25-25s25,11.215,25,25
				C1005.715,690.242,994.5,701.457,980.715,701.457z"/>
			<path fill="#FFFFFF" d="M980.715,652.957c12.958,0,23.5,10.542,23.5,23.5c0,12.958-10.542,23.5-23.5,23.5s-23.5-10.542-23.5-23.5
				C957.215,663.5,967.757,652.957,980.715,652.957 M980.715,649.957c-14.634,0-26.5,11.866-26.5,26.5
				c0,14.632,11.866,26.5,26.5,26.5c14.633,0,26.5-11.867,26.5-26.5C1007.215,661.823,995.349,649.957,980.715,649.957
				L980.715,649.957z"/>
		</g>
		<g>
			<g>
				<linearGradient id="SVGID_63_" gradientUnits="userSpaceOnUse" x1="932.1035" y1="540.6953" x2="1025.3081" y2="540.6953">
					<stop  offset="0" style="stop-color:#CC9CFF"/>
					<stop  offset="0.4079" style="stop-color:#BB7AFF"/>
					<stop  offset="0.7728" style="stop-color:#AE63FF"/>
					<stop  offset="1" style="stop-color:#AA5AFF"/>
				</linearGradient>
				<circle fill="url(#SVGID_63_)" cx="978.706" cy="540.695" r="46.602"/>
				<linearGradient id="SVGID_64_" gradientUnits="userSpaceOnUse" x1="932.0186" y1="589.0239" x2="1025.313" y2="589.0239">
					<stop  offset="0" style="stop-color:#CC9CFF"/>
					<stop  offset="0.4079" style="stop-color:#BB7AFF"/>
					<stop  offset="0.7728" style="stop-color:#AE63FF"/>
					<stop  offset="1" style="stop-color:#AA5AFF"/>
				</linearGradient>
				<path fill="url(#SVGID_64_)" d="M1025.223,538.196h-46.517h-46.603c0,0-3.71,25.868,37.881,96.717
					c1.817,3.089,5.13,4.937,8.716,4.939c3.582,0.001,6.905-1.815,8.72-4.907C1029.008,564.09,1025.223,538.196,1025.223,538.196z"
					/>
			</g>
			<g>
				<g>
					<path fill="#FFFFFF" d="M978.683,641.364v0.264h0.017c-4.058,0-7.844-2.233-9.881-5.705
						c-24.313-41.413-33.221-67.599-36.412-82.252c-0.91-3.37-1.433-6.673-1.597-10.062c-0.283-3.464-0.067-4.926-0.042-5.079
						l0.124-0.746c1.878-25.034,22.711-44.516,47.815-44.516c25.433,0,46.455,19.758,47.875,44.991
						c0.037,0.33,0.104,1.167,0.078,2.569l0.002,0.173c0,4.576-0.646,9.11-1.922,13.475c-3.3,14.641-12.266,40.568-36.162,81.284
						C986.527,639.252,982.878,641.364,978.683,641.364z M933.375,540.293c-0.012,0.7,0.009,1.696,0.132,3.199
						c0.155,3.209,0.654,6.294,1.52,9.495l0.016,0.052c3.144,14.453,11.96,40.311,36.109,81.447
						c1.555,2.649,4.435,4.291,7.536,4.293l-0.005,1.351v-1.354c2.796,0,5.992-1.66,7.562-4.33
						c23.742-40.456,32.606-66.163,35.859-80.606l0.023-0.084c1.212-4.13,1.555-8.423,1.555-12.756l-0.271-0.19v-0.016
						c0-1.348,0.229-2.078,0.206-2.269l0.129-0.078c-1.322-23.819-21.099-42.475-45.109-42.475
						c-23.964,0-43.771,18.92-45.138,42.947l-0.036,1.376H933.375z"/>
				</g>
			</g>
			<circle fill="#FFFFFF" cx="978.856" cy="540.544" r="26.909"/>
			<g>
				<g>
					<linearGradient id="SVGID_65_" gradientUnits="userSpaceOnUse" x1="950.4429" y1="540.5439" x2="1007.2686" y2="540.5439">
						<stop  offset="0" style="stop-color:#AA5AFF"/>
						<stop  offset="0.0807" style="stop-color:#A856FF"/>
						<stop  offset="0.6468" style="stop-color:#9F3FFE"/>
						<stop  offset="1" style="stop-color:#9B36FE"/>
					</linearGradient>
					<path fill="url(#SVGID_65_)" d="M978.856,568.956c-15.667,0-28.413-12.745-28.413-28.412c0-15.665,12.747-28.412,28.413-28.412
						c15.666,0,28.413,12.747,28.413,28.412C1007.269,556.211,994.522,568.956,978.856,568.956z M978.856,515.139
						c-14.01,0-25.407,11.396-25.407,25.405s11.397,25.406,25.407,25.406s25.406-11.397,25.406-25.406
						S992.866,515.139,978.856,515.139z"/>
				</g>
			</g>
			<g>
				<path fill="#FFFFFF" d="M953.332,512.526c-0.128,0-0.256-0.053-0.344-0.156c-0.161-0.189-0.141-0.474,0.048-0.636
					c7.561-6.492,17.219-10.068,27.195-10.068c0.251,0,0.452,0.202,0.452,0.451c0,0.25-0.201,0.452-0.452,0.452
					c-9.761,0-19.209,3.497-26.606,9.849C953.539,512.492,953.435,512.526,953.332,512.526z"/>
			</g>
			<g>
				<path fill="#FFFFFF" d="M938.92,543.879c-0.248,0-0.451-0.201-0.451-0.448c0-7.794,2.162-15.396,6.249-21.985
					c0.13-0.212,0.408-0.276,0.62-0.144c0.212,0.129,0.276,0.407,0.145,0.62c-3.997,6.446-6.111,13.883-6.111,21.509
					C939.371,543.678,939.169,543.879,938.92,543.879z"/>
			</g>
		</g>
	</g>
</g>
</svg>
