<?xml version="1.0" encoding="utf-8"?>
<!-- Generator: Adobe Illustrator 16.0.0, SVG Export Plug-In . SVG Version: 6.00 Build 0)  -->
<!DOCTYPE svg PUBLIC "-//W3C//DTD SVG 1.1//EN" "http://www.w3.org/Graphics/SVG/1.1/DTD/svg11.dtd">
<svg version="1.1" xmlns="http://www.w3.org/2000/svg" xmlns:xlink="http://www.w3.org/1999/xlink" x="0px" y="0px"
	 width="1871.477px" height="2176.221px" viewBox="0 0 1871.477 2176.221" enable-background="new 0 0 1871.477 2176.221"
	 xml:space="preserve">
<g id="Background">
</g>
<g id="Illustration">
	<g>
		<path opacity="0.32" fill="#F1FDF9" d="M1337.47,1913.947c-184.629-22.434-222.743,20.955-410.582,12.443
			c-184.763-8.374-197.44-52.6-348.372-43.547c-135.694,8.137-310.424,54.979-311.047,105.756
			c-0.686,55.89,209.343,134.473,410.582,105.756c111.979-15.979,104.249-48.488,211.513-62.209
			c194.321-24.86,251.449,77.771,447.906,55.988c113.673-12.604,232.343-62.242,230.176-99.535
			C1564.916,1941.586,1370.365,1917.945,1337.47,1913.947z"/>
		<g>
			<g>
				
					<linearGradient id="SVGID_2_" gradientUnits="userSpaceOnUse" x1="-1487.4834" y1="206.2437" x2="-1529.2167" y2="273.7534" gradientTransform="matrix(-1 0 0 1 -201.7676 0)">
					<stop  offset="0" style="stop-color:#FF928E"/>
					<stop  offset="1" style="stop-color:#FEB3B1"/>
				</linearGradient>
				<path fill="url(#SVGID_2_)" d="M1287.904,275.135c-4.238-6.566-11.969-20.541-12.463-39.306
					c-0.961-36.464,26.085-64.906,29.721-63.273c1.958,0.88-0.527,11.564-1.918,16.298c-2.897,9.859-6.014,10.812-5.752,15.338
					c0.537,9.321,13.992,9.682,21.09,22.051c5.111,8.907,5.52,21.595,0,31.636C1309.426,274.537,1288.776,275.124,1287.904,275.135z
					"/>
				
					<linearGradient id="SVGID_3_" gradientUnits="userSpaceOnUse" x1="-893.043" y1="1005.2715" x2="-876.1905" y2="1039.9259" gradientTransform="matrix(-1 0 0 1 -201.7676 0)">
					<stop  offset="0" style="stop-color:#FF928E"/>
					<stop  offset="1" style="stop-color:#FEB3B1"/>
				</linearGradient>
				<polygon fill="url(#SVGID_3_)" points="710.193,1067.139 720.588,1031.368 677.189,999.21 650.138,989.095 666.154,1039.145 
									"/>
				
					<linearGradient id="SVGID_5_" gradientUnits="userSpaceOnUse" x1="-2185.5103" y1="1887.7646" x2="-2185.5103" y2="1779.0475" gradientTransform="matrix(-1 0 0 1 -1451.3301 0)">
					<stop  offset="0" style="stop-color:#FF928E"/>
					<stop  offset="1" style="stop-color:#FEB3B1"/>
				</linearGradient>
				<path fill="url(#SVGID_5_)" d="M763.914,1787.57c0,0-23.738,59.717-17.492,86.201c-25.485-0.498-41.975-3.746-41.975-3.746
					s10.244-27.235,12.241-40.729c2.702-18.229,2.5-47.723,2.5-47.723L763.914,1787.57z"/>
				<path fill="#26264F" d="M1025.576,1927.242c-1.535,1.854-4.259,5.725-4.488,10.97c-0.123,2.849,0.529,5.195,1.348,7.351
					c4.047,10.65,10.403,12.055,17.264,23.356c4.19,6.905,3.398,8.987,7.239,12.104c5.062,4.108,11.184,4.343,16.49,4.404
					c8.968,0.103,21.88-0.218,38.136-2.155c-8.52-10.979-17.578-22.134-27.213-33.396c-4.227-4.938-8.444-9.762-12.651-14.47
					l-25.047-8.462C1032.961,1927.044,1029.268,1927.143,1025.576,1927.242z"/>
				
					<linearGradient id="SVGID_6_" gradientUnits="userSpaceOnUse" x1="-2516.8804" y1="1918.749" x2="-2516.8804" y2="1787.7281" gradientTransform="matrix(-1 0 0 1 -1451.3301 0)">
					<stop  offset="0" style="stop-color:#FF928E"/>
					<stop  offset="1" style="stop-color:#FEB3B1"/>
				</linearGradient>
				<path fill="url(#SVGID_6_)" d="M1046.404,1805.637c0,0,14.317,74.701-3.9,95.62c-15.52,20.917,7.496,5.997,7.496,5.997
					l27.484,23.985l16.489,28.485c0,0-15.179-73.116-11.13-102.131c4.048-29.016,6.072-48.584,6.072-48.584L1046.404,1805.637z"/>
				
					<linearGradient id="SVGID_7_" gradientUnits="userSpaceOnUse" x1="-2590.1787" y1="1404.0732" x2="-2161.5234" y2="1404.0732" gradientTransform="matrix(-1 0 0 1 -1451.3301 0)">
					<stop  offset="0" style="stop-color:#311944"/>
					<stop  offset="1" style="stop-color:#893976"/>
				</linearGradient>
				<path fill="url(#SVGID_7_)" d="M1100.387,988.49c0,0,38.462,34.414,38.462,176.115S1120.629,1614,1120.629,1614l-29.152,220.293
					c0,0-30.229,1.077-50.471-4.996c-18.219-82.996-47.907-223.393-33.736-340.802c6.072-127.532-50.607-287.452-50.607-287.452
					s-48.584,161.944-82.998,242.917c-34.414,80.972-99.932,334.637-106.004,352.856c-40.268,3.65-57.467-6.997-57.467-6.997
					s25.819-272.985,50.11-376.224c24.29-103.24,22.268-352.229,62.755-423.08C914.15,954.078,1100.387,988.49,1100.387,988.49z"/>
				
					<linearGradient id="SVGID_9_" gradientUnits="userSpaceOnUse" x1="-2603.8022" y1="1084.5342" x2="-2294.9797" y2="1603.2371" gradientTransform="matrix(-1 0 0 1 -1451.3301 0)">
					<stop  offset="0" style="stop-color:#394265"/>
					<stop  offset="1" style="stop-color:#3B3A6C"/>
				</linearGradient>
				<path fill="url(#SVGID_9_)" d="M1100.386,988.49c0,0,38.464,34.414,38.464,176.115S1120.629,1614,1120.629,1614l-29.152,220.293
					c0,0-30.229,1.077-50.471-4.996c-18.221-82.996-47.907-223.393-33.738-340.802c6.073-127.532-50.605-287.452-50.605-287.452
					s-48.584,161.944-82.998,242.917c-34.414,80.972-99.932,334.638-106.005,352.856c-40.267,3.65-57.466-6.997-57.466-6.997
					s25.819-272.985,50.11-376.224c24.292-103.24,22.268-352.229,62.753-423.082C914.149,954.078,1100.386,988.49,1100.386,988.49z"
					/>
				
					<linearGradient id="SVGID_10_" gradientUnits="userSpaceOnUse" x1="-2482.2271" y1="1012.1514" x2="-2173.4045" y2="1530.8542" gradientTransform="matrix(-1 0 0 1 -1451.3301 0)">
					<stop  offset="0" style="stop-color:#311944"/>
					<stop  offset="1" style="stop-color:#893976"/>
				</linearGradient>
				<path opacity="0.25" fill="url(#SVGID_10_)" d="M900.584,1248.129c-11.991,77.955-35.978,119.933-95.944,173.901
					c-47.972,35.979-11.993,113.937-29.984,173.9c-5.995,17.989-23.986,35.979-29.981,53.97
					c-22.314,44.63-1.473,99.219-11.591,146.474c-15.745-2.175-22.89-6.555-22.89-6.555s25.819-272.985,50.11-376.224
					c24.292-103.24,22.268-352.23,62.753-423.082c91.093-36.436,277.329-2.023,277.329-2.023s38.464,34.414,38.464,176.115
					c0,11.497-0.123,24.101-0.343,37.531c-39.929,35.338-121.595,43.188-171.96,4.018c-3.043-2.283-6.279-3.682-9.624-4.36
					c-0.155-0.448-0.261-0.751-0.261-0.751s-0.085,0.28-0.213,0.701C933.527,1197.563,905.785,1227.328,900.584,1248.129z"/>
				<g>
					<path fill="#26264F" d="M752.666,1896.434c0,0,5.916,0,5.424,7.642c-0.494,7.642,2.664,33.929-27.408,35.16
						s-34.71-2.13-35.696-2.13c-0.987,0,7.888-25.144,7.888-25.144l9.615-12.323l25.882-2.712L752.666,1896.434z"/>
					<path fill="#444B8C" d="M685.986,1922.819c0.642-6.349,4.193-16.341,7.767-24.382c5.31-11.944,0.951-16.414,6.024-27.294
						c1.756-3.763,3.461-7.329,7.168-10.864c0.854-0.813,9.15-8.482,21.236-8.092c2.377,0.076,6.039,0.237,9.996,2.346
						c4.663,2.484,7,6.218,8.995,9.494c3.136,5.15,2.415,6.73,7.245,21.488c0.389,1.183,1.238,3.759,1.893,7.313
						c0.5,2.719,0.703,5.002,0.793,6.563c-7.889,0-38.208,1.232-44.615,5.918c-6.41,4.682-9.615,12.57-9.615,20.459
						c0,7.887-3.943,11.585-7.888,11.338C691.461,1936.886,684.461,1930.359,685.986,1922.819z"/>
				</g>
				<path fill="#444B8C" d="M1050.25,1890.763c-6.774,0.106-11.744,5.497-15.492,18.489c-3.748,12.993-21.737,24.486-0.75,21.737
					c20.988-2.747,36.23,26.983,43.725,37.979c7.497,10.992,27.619,20.762,27.119,10.018s-9.379-15.765-11.877-26.758
					C1090.477,1941.233,1065.701,1890.521,1050.25,1890.763z"/>
				
					<linearGradient id="SVGID_12_" gradientUnits="userSpaceOnUse" x1="-1405.1709" y1="-4433.0635" x2="-1078.1104" y2="-3760.5159" gradientTransform="matrix(0.9906 -0.1367 -0.1367 -0.9906 1578.9248 -3890.2832)">
					<stop  offset="0" style="stop-color:#CC9CFF"/>
					<stop  offset="0.4079" style="stop-color:#BB7AFF"/>
					<stop  offset="0.7728" style="stop-color:#AE63FF"/>
					<stop  offset="1" style="stop-color:#AA5AFF"/>
				</linearGradient>
				<path fill="url(#SVGID_12_)" d="M694.266,1005.594c-4.98-13.847-36.064-104.805,14.176-187.758
					c41.127-67.907,112.294-90.062,122.441-93.059c61.771-18.242,92.729,5.193,112.219-16.375
					c33.072-36.601-4.391-161.275-76.857-186.247c-81.686-28.148-179.678,80.09-219.388,151.184
					c-52.097,93.272-39.274,185.972-36.261,205.065c7.834,49.613,26.047,87.455,39.542,110.69
					C664.848,994.595,679.557,1000.095,694.266,1005.594z"/>
				
					<linearGradient id="SVGID_13_" gradientUnits="userSpaceOnUse" x1="-1297.5308" y1="527.3721" x2="-966.2897" y2="1208.5164" gradientTransform="matrix(-1 0 0 1 -201.7676 0)">
					<stop  offset="0" style="stop-color:#CC9CFF"/>
					<stop  offset="0.4079" style="stop-color:#BB7AFF"/>
					<stop  offset="0.7728" style="stop-color:#AE63FF"/>
					<stop  offset="1" style="stop-color:#AA5AFF"/>
				</linearGradient>
				<path fill="url(#SVGID_13_)" d="M907.58,504.556c72.914-2.916,129.146-1.76,160.909,29.982
					c33.55,33.527-0.354,71.378,6.93,159.08c11.153,134.268,96.713,167.074,103.151,303.291c2.169,45.897-5.598,83.41-11.63,106.002
					c-18.776,23.385-49.511,56.387-94.868,83.982c-66.004,40.158-104.28,33.155-199.072,59.099
					c-155.049,42.435-168.844,92.969-245.727,80.095c-77.701-13.012-145.873-78.402-137.639-114.311
					c4.934-21.504,36.256-15.412,72.318-48.212c46.479-42.271,28.555-82.622,63.894-128.046
					c50.758-65.248,121.472-25.362,164.728-81.91c43.754-57.203,26.399-169.923-10.482-231.365
					c-24.092-40.131-34.408-87.16-54.906-129.238c-1.704-3.496-3.681-9.229-2.81-16.395c3.327-27.405,49.009-42.27,83.606-53.174
					C858.753,506.803,901.583,504.794,907.58,504.556z"/>
				
					<linearGradient id="SVGID_15_" gradientUnits="userSpaceOnUse" x1="-2402.8325" y1="442.1465" x2="-2339.5317" y2="542.7587" gradientTransform="matrix(-1 0 0 1 -1451.3301 0)">
					<stop  offset="0.0036" style="stop-color:#E38DDD"/>
					<stop  offset="1" style="stop-color:#9571F6"/>
				</linearGradient>
				<path fill="url(#SVGID_15_)" d="M968.996,501.541l-14.381-4.425c0,0-3.761,19.469-49.998,21.902
					c-25.664,0-42.256-14.38-42.256-14.38l-9.826,7.164c0,0,21.557,26.928,55.842,26.243
					C952.624,537.16,968.996,501.541,968.996,501.541z"/>
				<g>
					
						<linearGradient id="SVGID_16_" gradientUnits="userSpaceOnUse" x1="-2326.4116" y1="426.7119" x2="-2395.9797" y2="539.2487" gradientTransform="matrix(-1 0 0 1 -1451.3301 0)">
						<stop  offset="0" style="stop-color:#FF928E"/>
						<stop  offset="1" style="stop-color:#FEB3B1"/>
					</linearGradient>
					<path fill="url(#SVGID_16_)" d="M939.715,442.317c-2.771-21.384-19.676-35.084-23.365-38.017
						c-15.443-12.275-18.586-13.512-23.891-14.52l-7.244-1.098c0,0-0.389,0.01-0.791,0.034c-4.24,0.257-16.949,5.218-19.262,6.842
						c-7.382,5.191-1.945,41.954,20.433,87.677c0.88,3.873,1.76,7.745,2.64,11.616c-19.504,3.428-24.335,6.947-24.488,9.756
						c-0.332,6.086,21.021,13.851,40.814,14.355c24.82,0.633,51.174-10.045,50.67-18.014c-0.205-3.227-4.887-7.206-22.908-11.113
						c-2.817-3.959-5.632-7.919-8.448-11.879C926.43,474.856,941.756,458.069,939.715,442.317z"/>
					
						<linearGradient id="SVGID_17_" gradientUnits="userSpaceOnUse" x1="-2847.5073" y1="-316.6328" x2="-2914.8296" y2="-207.7291" gradientTransform="matrix(-0.9717 -0.2361 -0.2361 0.9717 -1941.6704 46.8491)">
						<stop  offset="0" style="stop-color:#FF928E"/>
						<stop  offset="1" style="stop-color:#FEB3B1"/>
					</linearGradient>
					<path fill="url(#SVGID_17_)" d="M909.032,434.265c-5.629-3.369-9.918,3.873-7.267,10.202
						c2.652,6.33,11.563,10.291,16.968,6.517C924.139,447.211,916.607,438.798,909.032,434.265z"/>
					
						<linearGradient id="SVGID_18_" gradientUnits="userSpaceOnUse" x1="-1122.1533" y1="-53.9629" x2="-539.1184" y2="872.7309" gradientTransform="matrix(-1 0 0 1 -201.7676 0)">
						<stop  offset="0" style="stop-color:#444B8C"/>
						<stop  offset="0.9964" style="stop-color:#26264F"/>
					</linearGradient>
					<path fill="url(#SVGID_18_)" d="M179.366,434.158c74.103-80.412,246.519-58.359,342.152,6.221
						c44.438,30.009,67.245,65.455,119.753,68.43c39.917,2.262,103.417-12.747,136.86-55.988
						c4.213-5.448,21.065-28.295,46.37-57.107c11.154-12.701,22.248-24.621,39.445-27.316c4.369-0.685,18.902-3.05,28.51,6.336
						c7.787,7.605,9.696,20.829,7.395,30.36c-1.378,5.699-3.158,6.3-2.906,10.031c0.714,10.483,19.808,15.049,18.744,20.329
						c-0.758,3.772-10.695,2.392-12.408,7.127c-1.874,5.188,9.039,9.653,13.729,22.704c8.785,5.881,14.336,20.516,16.256,40.098
						c2.822,28.786-0.068,52.175-5.523,69.792c-26.262,84.816-45.049,145.485-90.511,179.363
						c-60.19,44.853-114.39,3.44-267.501-3.11c-209.655-8.969-261.928,62.098-337.281,13.48
						C138.361,704.203,102.43,517.645,179.366,434.158z"/>
				</g>
				
					<linearGradient id="SVGID_19_" gradientUnits="userSpaceOnUse" x1="-1334.3955" y1="543.2529" x2="-1008.6111" y2="1213.1763" gradientTransform="matrix(-1 0 0 1 -201.7676 0)">
					<stop  offset="0" style="stop-color:#CC9CFF"/>
					<stop  offset="0.4079" style="stop-color:#BB7AFF"/>
					<stop  offset="0.7728" style="stop-color:#AE63FF"/>
					<stop  offset="1" style="stop-color:#AA5AFF"/>
				</linearGradient>
				<path fill="url(#SVGID_19_)" d="M1279.045,270.027c1.871,17.542,8.193,95.144-45.334,160.667
					c-50.015,61.224-120.848,73.453-134.014,75.443c-63.686,9.623-91.15-17.824-113.406,0.878
					c-37.767,31.734-17.701,160.358,50.67,195.005c77.07,39.055,188.942-54.771,237.999-119.768
					c64.362-85.271,64.334-178.854,63.957-198.18c-0.974-50.218-13.841-90.196-24.033-115.057
					c-4.187-1.261-10.56-2.656-18.372-2.385C1289.066,266.89,1283.059,268.566,1279.045,270.027z"/>
				<linearGradient id="SVGID_20_" gradientUnits="userSpaceOnUse" x1="507.5391" y1="1081.6953" x2="1178.9424" y2="1081.6953">
					<stop  offset="0" style="stop-color:#CC9CFF"/>
					<stop  offset="0.4079" style="stop-color:#DDBEFF"/>
					<stop  offset="0.7728" style="stop-color:#EAD5FF"/>
					<stop  offset="1" style="stop-color:#EEDEFF"/>
				</linearGradient>
				<path fill="url(#SVGID_20_)" d="M624.941,1274.762c18.644-19.113-1.879-57.658,25.66-86.314
					c25.561-26.596,54.5-5.109,95.648-27.994c52.776-29.352,38.232-83.088,88.647-111.977c36.253-20.775,53.29,1.561,109.646-9.332
					c56.261-10.874,124.785-49.661,158.634-118.977c14.383-29.451,19.685-58.73,20.388-84.904
					c25.303,45.209,51.55,88.531,55.006,161.645c2.169,45.897-5.598,83.41-11.63,106.002
					c-18.776,23.385-49.511,56.387-94.868,83.982c-66.004,40.156-104.28,33.155-199.072,59.099
					c-155.049,42.435-168.844,92.969-245.727,80.095c-49.658-8.316-95.318-38.025-119.734-67.76
					C579.195,1290.225,611.41,1288.636,624.941,1274.762z"/>
			</g>
		</g>
	</g>
	<g>
		<g>
			<g>
				<defs>
					<polygon id="SVGID_51_" points="0,4542.488 0,2698.036 662.768,2653.488 662.768,4588.367 					"/>
				</defs>
				<use xlink:href="#SVGID_51_"  overflow="visible" fill="#FFFFFF"/>
				<clipPath id="SVGID_21_">
					<use xlink:href="#SVGID_51_"  overflow="visible"/>
				</clipPath>
				<path clip-path="url(#SVGID_21_)" fill="#D8DEE8" d="M2629.184,3132.506l-712.737,20.93
					c-2.376-391.352-4.333-950.535-0.472-1002.43c-0.195,2.641-1.523,16.611-8.369,32.385l-94.427-81.68
					c-10.123,23.527-10.431,43.203-11.252,95.783c-0.466,29.836-0.79,72.66-0.965,127.285c-0.294,91.42-0.184,217.594,0.331,375.029
					c0.873,267.836,2.634,537.222,2.65,539.912l0.536,81.388l244.513-4.558v586.27l-461.127-8.771l-275.506-551.322l-378.454,6.735
					l508.305-920.039l-80.397-98.224L803.011,3351.791l-240.458,4.28c0.337-92.562,0.891-257.108,1.223-420.973
					c0.294-144.739,0.357-260.616,0.189-344.407c-0.334-167.097-0.949-169.006-4.36-179.598l-44.92,39.627
					c-1.793-5.594-2.186-10.33-2.247-11.223c2.354,34.768,1.303,542.246-0.102,917.467l-251.102,4.469
					c-45.604-269.76-152.227-900.078-155.813-917.493l-83.634,53.071l-0.204-1.033c4.555,24.373,98.797,584.797,161.744,959.795
					l9.063,53.977l526.17-3.721l-326.89,597.032l-641.541-22.892v142.346l683.892,31.74l413.889-749.141l412.064-2.914
					l192.806,389.277l-509.409-9.689V4987.57l53.361,5.095V3965.633l498.886,12.337l503.118,1015.798l92.619-92.174
					l-459.873-920.264l479.359,11.854v-677.785l518.342-9.66V3132.506z"/>
			</g>
		</g>
	</g>
</g>
</svg>
