<?xml version="1.0" encoding="utf-8"?>
<!-- Generator: Adobe Illustrator 16.0.0, SVG Export Plug-In . SVG Version: 6.00 Build 0)  -->
<!DOCTYPE svg PUBLIC "-//W3C//DTD SVG 1.1//EN" "http://www.w3.org/Graphics/SVG/1.1/DTD/svg11.dtd">
<svg version="1.1" xmlns="http://www.w3.org/2000/svg" xmlns:xlink="http://www.w3.org/1999/xlink" x="0px" y="0px"
	 width="2492.416px" height="1678.714px" viewBox="0 0 2492.416 1678.714" enable-background="new 0 0 2492.416 1678.714"
	 xml:space="preserve">
<g id="Background">
</g>
<g id="Illustration">
	<path fill="#DBF9EF" d="M548.521,247.98c-27.199-9.124-54.938-15.651-83.762-17.233C321.156,222.869,204.25,339.891,210.472,485.26
		c2.373,55.444,23.967,107.808,39.682,160.933c11.817,39.949,31.34,108.565,8.396,147.945
		c-19.993,34.314-64.514,44.397-80.339,79.304c-20.506,45.231-30.155,96.132-22.29,145.168c7.865,49.036,34.246,95.83,75.242,123.86
		c42.832,29.288,103.174,41.592,123.913,89.155c12.476,28.61,5.982,61.378,2.877,92.437c-4.446,44.479-0.386,92.516,26.418,128.288
		c31.962,42.653,89.351,58.422,142.65,58.379c61.193-0.05,116.116-14.563,176.216-4.928c67.16,10.768,141.384-1.646,209.101-3.075
		c103.332-2.18,207.054-4.342,309.703,7.966c37.085,4.447,73.983,10.778,111.242,13.291c62.589,4.221,125.357-2.38,188.082-2.573
		c170.894-0.531,339.795,46.437,510.612,41.18c85.183-2.621,176.5-20.877,245.354-75.281
		c77.161-60.968,87.915-161.665,50.285-251.931c-63.701-152.804-173.887-304.431-95.903-475.394
		c19.352-42.424,47.652-80.404,63.905-124.163c41.002-110.396-11.483-248.216-114.745-301.307
		c-43.625-22.429-93.044-30.533-141.832-32.85c-73.914-3.51-148.369,5.751-219.344,27.093
		c-33.938,10.205-60.123,26.577-95.905,23.106c-31.871-3.091-63.349-12.899-91.68-28.063
		c-44.645-23.896-82.299-61.453-129.98-78.143c-35.348-12.373-73.542-12.294-110.907-12.084
		c-98.682,0.555-194.109,9.132-287.576,42.948c-43.118,15.601-84.645,35.829-128.575,48.854
		c-76.892,22.798-160.184,22.57-236.954-0.648C673.183,305.086,612.336,269.387,548.521,247.98z"/>
</g>
</svg>
