<?xml version="1.0" encoding="utf-8"?>
<!-- Generator: Adobe Illustrator 16.0.0, SVG Export Plug-In . SVG Version: 6.00 Build 0)  -->
<!DOCTYPE svg PUBLIC "-//W3C//DTD SVG 1.1//EN" "http://www.w3.org/Graphics/SVG/1.1/DTD/svg11.dtd">
<svg version="1.1" xmlns="http://www.w3.org/2000/svg" xmlns:xlink="http://www.w3.org/1999/xlink" x="0px" y="0px"
	 width="2441.816px" height="2416px" viewBox="0 0 2441.816 2416" enable-background="new 0 0 2441.816 2416" xml:space="preserve">
<g id="Background">
</g>
<g id="Illustration">
	<g>
		<g>
			<linearGradient id="SVGID_2_" gradientUnits="userSpaceOnUse" x1="162.8223" y1="1206.5479" x2="881.1074" y2="1206.5479">
				<stop  offset="0" style="stop-color:#CC9CFF"/>
				<stop  offset="0.4079" style="stop-color:#DDBEFF"/>
				<stop  offset="0.7728" style="stop-color:#EAD5FF"/>
				<stop  offset="1" style="stop-color:#EEDEFF"/>
			</linearGradient>
			<polygon fill="url(#SVGID_2_)" points="881.107,2271.096 162.822,2216.457 162.822,195.199 881.107,142 			"/>
			<g>
				<defs>
					<polygon id="SVGID_51_" points="218.34,2128.109 218.34,283.657 881.107,239.109 881.107,2173.988 					"/>
				</defs>
				<use xlink:href="#SVGID_51_"  overflow="visible" fill="#FFFFFF"/>
				<clipPath id="SVGID_3_">
					<use xlink:href="#SVGID_51_"  overflow="visible"/>
				</clipPath>
				<path clip-path="url(#SVGID_3_)" fill="#D8DEE8" d="M2847.523,718.127l-712.737,20.93
					c-2.376-391.352-4.333-950.535-0.472-1002.43c-0.195,2.641-1.523,16.611-8.369,32.385l-94.427-81.68
					c-10.123,23.527-10.431,43.203-11.252,95.783c-0.466,29.836-0.79,72.66-0.965,127.285c-0.294,91.42-0.184,217.594,0.331,375.029
					c0.873,267.836,2.634,537.222,2.65,539.912l0.536,81.388l244.513-4.558v586.27l-461.127-8.771l-275.506-551.322l-378.454,6.735
					L1660.55,15.044l-80.397-98.224L1021.351,937.412l-240.458,4.28c0.337-92.562,0.891-257.108,1.223-420.973
					c0.294-144.739,0.357-260.616,0.189-344.407c-0.334-167.097-0.949-169.006-4.36-179.598l-44.92,39.627
					c-1.793-5.594-2.186-10.33-2.247-11.223c2.354,34.768,1.303,542.246-0.102,917.467l-251.102,4.469
					C433.971,677.295,327.348,46.977,323.762,29.562l-83.634,53.071l-0.204-1.033c4.555,24.373,98.797,584.797,161.744,959.795
					l9.063,53.977l526.17-3.721l-326.89,597.032l-641.541-22.892v142.346l683.892,31.74l413.889-749.141l412.064-2.914
					L1671.12,1477.1l-509.409-9.689v1105.781l53.361,5.095V1551.254l498.886,12.337l503.118,1015.798l92.619-92.174
					l-459.873-920.264l479.359,11.854V901.02l518.342-9.66V718.127z"/>
			</g>
		</g>
		<g>
			<linearGradient id="SVGID_5_" gradientUnits="userSpaceOnUse" x1="1371.0254" y1="1207.9512" x2="2208.7529" y2="1207.9512">
				<stop  offset="0" style="stop-color:#CC9CFF"/>
				<stop  offset="0.4079" style="stop-color:#DDBEFF"/>
				<stop  offset="0.7728" style="stop-color:#EAD5FF"/>
				<stop  offset="1" style="stop-color:#EEDEFF"/>
			</linearGradient>
			<rect x="1371.025" y="260.949" fill="url(#SVGID_5_)" width="837.728" height="1894.005"/>
			<g>
				<defs>
					<rect id="SVGID_54_" x="1371.025" y="346.158" width="769.804" height="1722.27"/>
				</defs>
				<use xlink:href="#SVGID_54_"  overflow="visible" fill="#FFFFFF"/>
				<clipPath id="SVGID_6_">
					<use xlink:href="#SVGID_54_"  overflow="visible"/>
				</clipPath>
				<path clip-path="url(#SVGID_6_)" fill="#D8DEE8" d="M2445.41,823.943h-636.764c-2.221-320.162-4.051-777.689-0.44-819.845
					c-0.183,2.146-1.425,13.47-7.827,25.854l-88.902-74.422c-9.596,18.564-9.888,34.751-10.666,78.01
					c-0.442,24.548-0.75,59.81-0.916,104.807c-0.278,75.311-0.174,179.285,0.314,309.035c0.827,220.718,2.498,442.705,2.514,444.922
					l0.509,67.058h228.247v475.38h-436.623l-273.821-464.787h-393.16l523.474-768.644l-80.416-88.69L687.057,969.955H421.549
					c0.379-82.969,1.001-230.457,1.374-377.33c0.329-129.725,0.399-233.588,0.212-308.705
					c-0.376-149.805-1.066-151.562-4.897-161.316l-50.629,32.213c-2.028-5.164-2.472-9.455-2.541-10.262
					c2.661,31.448,1.474,487.885-0.116,825.4H75.759c-53.655-248.682-180.507-836.24-184.808-852.656l-100.952,42.822l-0.247-0.98
					c5.529,23.064,119.125,548.74,194.129,896.449l10.741,49.785h600.21l-367.547,539.688H-546.69v135.42h822.565l459.773-675.107
					h432.166l194.041,329.367H837.959v965.178h56.604v-893.146h509.729l480.859,816.214l85.145-81.231l-433.002-734.982h450.787
					V959.362h457.33V823.943z"/>
			</g>
		</g>
		<g>
			<linearGradient id="SVGID_7_" gradientUnits="userSpaceOnUse" x1="680.3457" y1="1205.3311" x2="1589.8481" y2="1210.8431">
				<stop  offset="0" style="stop-color:#CC9CFF"/>
				<stop  offset="0.4079" style="stop-color:#DDBEFF"/>
				<stop  offset="0.7728" style="stop-color:#EAD5FF"/>
				<stop  offset="1" style="stop-color:#EEDEFF"/>
			</linearGradient>
			<polygon fill="url(#SVGID_7_)" points="1371.025,2154.954 881.107,2271.096 881.107,142 1371.025,260.949 			"/>
			<g>
				<defs>
					<polygon id="SVGID_57_" points="881.107,2173.988 881.107,239.109 1371.025,347.336 1371.025,2068.568 					"/>
				</defs>
				<use xlink:href="#SVGID_57_"  overflow="visible" fill="#D8DEE8"/>
				<clipPath id="SVGID_9_">
					<use xlink:href="#SVGID_57_"  overflow="visible"/>
				</clipPath>
				<path clip-path="url(#SVGID_9_)" fill="#A2A7AE" d="M1860.634,873.757l-274.354-27.417
					c-1.033-302.705-1.885-735.395-0.205-774.729c-0.085,2-0.662,12.525-3.644,23.334l-41.894-83.792
					c-4.578,16.313-4.719,31.771-5.09,73.087c-0.211,23.449-0.357,57.182-0.438,100.261c-0.133,72.104-0.084,171.714,0.15,296.048
					c0.395,211.467,1.193,424.139,1.201,426.262l0.242,64.227l105.937,6.953v442.412l-208.128,11.391L1291.42,965.742
					l-224.755-14.15l294.097-751.662l-42.506-100.771L979.938,946.131l-173.532-10.926c0.257-94.76,0.68-263.183,0.934-430.898
					c0.223-148.12,0.271-266.729,0.144-352.547c-0.255-171.16-0.724-173.297-3.329-185.162L769.44-5.935
					c-1.401-6.327-1.709-11.354-1.756-12.298c1.839,36.721,1.018,562.277-0.081,950.995l-209.16-13.169
					C517.504,614.74,417.856-126.818,414.406-148.148L331.98-117.07l-0.206-1.293c4.587,30.322,96.983,705.348,156.133,1138.247
					l8.354,61.128l424.934,12.184l-250.818,627.916l-634.519,68.514v181.12l669.307-95.222l305.097-779.775l252.135,7.229
					l103.854,332.546l-293.507,16.063v1037.492l33.796-10.109v-952.421l281.717-20.556l233.266,746.934l38.447-85.99
					l-204.299-665.861l212.229-15.486V979.655l192.735,12.651V873.757z"/>
			</g>
		</g>
	</g>
</g>
</svg>
