<?xml version="1.0" encoding="utf-8"?>
<!-- Generator: Adobe Illustrator 16.0.0, SVG Export Plug-In . SVG Version: 6.00 Build 0)  -->
<!DOCTYPE svg PUBLIC "-//W3C//DTD SVG 1.1//EN" "http://www.w3.org/Graphics/SVG/1.1/DTD/svg11.dtd">
<svg version="1.1" xmlns="http://www.w3.org/2000/svg" xmlns:xlink="http://www.w3.org/1999/xlink" x="0px" y="0px"
	 width="3637.455px" height="3765.581px" viewBox="0 0 3637.455 3765.581" enable-background="new 0 0 3637.455 3765.581"
	 xml:space="preserve">
<g id="Background">
</g>
<g id="Illustration">
	<path fill="#DBF9EF" d="M2944.419,2890.137c-75.48,77.804-143.02,123.539-194.728,158.065
		c-504.313,336.734-1080.796,239.68-1259.03,206.506c-287.56-53.521-530.299-91.277-738.854-279.699
		c-473.904-428.154-450.855-1321.314-88.734-1874.588c42.937-65.602,404.509-601.564,982.24-677.086
		c14.131-1.848,24.674-2.899,33.908-3.877c89.373-9.463,643.203-59.404,1094.798,318.941
		c64.644,54.158,168.674,151.846,265.143,300.835C3391.898,1584.007,3393.016,2427.741,2944.419,2890.137z"/>
</g>
</svg>
