<?xml version="1.0" encoding="utf-8"?>
<!-- Generator: Adobe Illustrator 16.0.0, SVG Export Plug-In . SVG Version: 6.00 Build 0)  -->
<!DOCTYPE svg PUBLIC "-//W3C//DTD SVG 1.1//EN" "http://www.w3.org/Graphics/SVG/1.1/DTD/svg11.dtd">
<svg version="1.1" xmlns="http://www.w3.org/2000/svg" xmlns:xlink="http://www.w3.org/1999/xlink" x="0px" y="0px" width="2128px"
	 height="2781.955px" viewBox="0 0 2128 2781.955" enable-background="new 0 0 2128 2781.955" xml:space="preserve">
<g id="Background">
</g>
<g id="Illustration">
	<g>
		<g>
			<path fill="#91B3FA" d="M1848.875,2428.222c-569.043,97.712-744.031,21.972-795.699-68.952
				c-30.041-52.863-33.143-136.811-118.838-242.786c-72.225-89.315-113.775-83.796-144.709-152.278
				c-53.659-118.787,48.691-185.564,6.98-300.605c-45.667-125.957-189.342-103.783-251.623-254.206
				c-34.068-82.282,5.922-96.157-24.402-178.159c-61.816-167.154-243.936-152.633-304.438-303.393
				C180.922,840.075,199.05,726.527,257,659.647c116.232-134.145,394.533-82.699,551.946,41.692
				c20.277,16.024,172.893,140.136,187.669,323.921c8.914,110.889-38.854,162.595,0.506,230.108
				c55.527,95.246,181.271,44.954,236.496,129.569c74.828,114.652-102.668,288.752-17.148,417.783
				c33.1,49.94,68.089,36.529,101.18,93.881c54.42,94.322-9,184.705,3.52,263.215
				C1334.609,2244.123,1440.772,2347.078,1848.875,2428.222z"/>
			<path fill="#BDD0FB" d="M796.262,963.365c73.842,170.386-46.525,278.069,39.934,412.471
				c70.217,109.152,180.939,86.841,211.219,188.46c29.018,97.395-64.773,144.443-39.117,255.691
				c21.146,91.695,92.346,92.158,163.465,210.75c71.588,119.375,42.644,190.939,79.409,263.857
				c39.469,78.281,151.454,151.687,452.844,155.977c45.212-6.117,93.401-13.516,144.86-22.351
				c-408.103-81.144-514.266-184.099-527.708-268.405c-12.519-78.51,50.901-168.893-3.519-263.215
				c-33.091-57.352-68.08-43.94-101.18-93.881c-85.52-129.03,91.977-303.13,17.148-417.783
				c-55.226-84.615-180.969-34.323-236.496-129.569c-39.36-67.513,8.408-119.219-0.506-230.108
				C981.839,841.476,829.224,717.364,808.946,701.34C651.533,576.948,373.232,525.503,257,659.647
				c-0.559,0.645-1.088,1.322-1.64,1.975c77.728,2.761,173.028,18.597,271.702,65.648
				C603.69,763.809,737.414,827.574,796.262,963.365z"/>
		</g>
		<g>
			<g>
				<defs>
					<path id="SVGID_59_" d="M1665.844,2486.975c-192.455-48.951-247.108-108.295-255.559-158.103
						c-13.828-81.517,97.082-131.758,82.235-224.653c-17.104-107.022-178.513-129.221-173.538-199.576
						c5.375-76.045,195.4-70.605,234.619-180.086c35.553-99.247-101.521-157.004-100.467-301.162
						c1.258-172.113,197.543-212.508,232.038-408.445c23.554-133.793-44.628-247.523-98.136-336.772
						c-120.39-200.817-367.734-396.073-647.629-376.283c-38.177,2.7-261.006,18.456-316.195,149.109
						c-55.949,132.445,77.609,342.152,214.248,453.29c99.037,80.554,182.037,94.962,186.415,158.383
						c5.899,85.501-140.979,116.755-154.921,241.346c-7.371,65.872,26.412,122.145,59.644,177.497
						c75.324,125.464,148.778,120.786,159.557,190.307c14.747,95.129-118.12,133.988-147.615,276.315
						c-21.015,101.406,24.031,189.779,49.413,239.576C1088.898,2381.832,1355.387,2493.006,1665.844,2486.975z"/>
				</defs>
				<linearGradient id="SVGID_2_" gradientUnits="userSpaceOnUse" x1="1098.3223" y1="307.6533" x2="1260.8551" y2="1657.1703">
					<stop  offset="0" style="stop-color:#AA80F9"/>
					<stop  offset="0.9964" style="stop-color:#6165D7"/>
				</linearGradient>
				<use xlink:href="#SVGID_59_"  overflow="visible" fill="url(#SVGID_2_)"/>
				<clipPath id="SVGID_3_">
					<use xlink:href="#SVGID_59_"  overflow="visible"/>
				</clipPath>
				<path opacity="0.7" clip-path="url(#SVGID_3_)" fill="#FFFFFF" d="M552.414,384.647
					c121.104,55.533,241.969,111.637,362.662,168.122c60.441,28.042,120.632,56.609,180.336,86.252
					c29.873,14.777,59.67,29.727,89.254,45.151c29.569,15.448,58.973,31.3,87.595,48.736c14.294,8.742,28.393,17.9,41.912,28.044
					c6.804,5,13.317,10.469,19.703,16.104c6.271,5.794,12.306,11.916,17.797,18.614c5.442,6.735,10.263,14.095,14.102,21.979
					c3.853,7.879,6.647,16.263,8.504,24.74c3.454,16.982,3.95,34.648,0.729,51.698c-3.119,17.062-9.541,33.265-17.631,48.268
					c-8.098,15.048-17.99,28.853-28.322,42.139c-20.783,26.538-43.969,50.62-66.152,75.339
					c-22.214,24.659-43.732,49.896-61.49,77.556c-8.721,13.889-16.699,28.239-22.979,43.31
					c-6.111,15.111-10.941,30.726-13.71,46.758c-5.108,32.025-3.138,65.479,6.817,96.389c5.027,15.446,12.187,30.149,20.678,44.103
					c8.521,13.956,18.498,27.091,28.752,40.116c10.275,13.034,20.95,25.913,30.74,39.669c4.967,6.811,9.538,13.965,13.936,21.226
					c4.197,7.39,8.297,14.881,11.573,22.781c6.869,15.65,11.329,32.387,13.32,49.342c2.026,16.965,1.854,34.057-0.14,50.957
					c-2.045,16.895-6.147,33.613-12.459,49.447c-6.352,15.814-14.564,30.811-23.967,44.818
					c-18.598,28.19-41.701,52.627-57.835,81.014c-8.097,14.115-13.962,29.361-16.604,45.25c-2.482,15.887-2.064,32.307,1.07,48.227
					c3.14,15.9,8.914,31.228,16.908,45.398c8.121,14.115,18.077,27.216,29.101,39.472c21.88,24.665,47.419,46.536,68.145,73.352
					c10.348,13.341,19.226,28.11,25.251,44.099c5.901,16.031,8.83,33.127,8.832,50.135c-0.088,17.002-2.957,34.145-9.155,50.053
					c-6.192,15.928-15.368,30.299-24.413,44.221c-8.889,13.902-17.767,28.047-20.238,43.924
					c-2.982,15.772,0.732,32.186,8.092,46.503c7.617,14.31,18.329,26.985,30.43,38.102c12.086,11.169,25.373,21.088,39.192,30.192
					c27.794,18.03,57.443,33.223,87.774,46.786c30.33,13.604,61.341,25.716,92.659,36.95c31.335,11.203,62.96,21.63,94.829,31.268
					c63.691,19.438,128.125,36.42,192.824,52.256l-0.105,0.443c-64.843-15.264-129.445-31.678-193.361-50.565
					c-31.98-9.364-63.734-19.521-95.223-30.467c-31.477-10.977-62.67-22.841-93.246-36.231
					c-30.578-13.353-60.535-28.355-88.814-46.346c-14.064-9.092-27.654-19.037-40.139-30.369
					c-12.5-11.269-23.739-24.285-31.853-39.397c-7.885-15.106-12.055-32.892-8.901-50.097c1.182-8.639,4.475-16.758,8.141-24.43
					c3.734-7.702,8.318-14.762,12.747-21.857c9.005-14.006,17.78-27.962,23.612-43.188c5.828-15.199,8.463-31.446,8.479-47.743
					c-0.09-16.302-2.964-32.497-8.639-47.707c-5.808-15.168-14.334-29.249-24.442-42.146c-20.21-25.934-45.723-47.602-68.188-72.628
					c-11.299-12.44-21.699-25.938-30.266-40.667c-8.446-14.788-14.653-30.975-18.04-47.741c-3.38-16.738-3.944-34.114-1.364-51.146
					c2.73-17.009,8.967-33.355,17.357-48.145c8.274-14.908,18.408-28.445,28.469-41.746c10.114-13.283,20.25-26.37,29.343-40.058
					c9.133-13.653,16.966-28.053,23.01-43.161c5.999-15.123,9.869-31.027,11.802-47.182c3.729-32.318,0.64-65.764-12.639-95.454
					c-12.766-30.01-34.401-55.373-55.117-81.463c-10.359-13.116-20.605-26.54-29.479-41.01c-8.84-14.466-16.393-29.892-21.704-46.13
					c-10.522-32.538-12.634-67.396-7.326-101.071c2.875-16.829,7.905-33.188,14.258-48.946
					c6.516-15.713,14.751-30.576,23.712-44.889c18.225-28.487,40.076-54.148,62.369-78.984
					c22.256-24.873,45.299-48.915,65.563-74.893c10.076-12.997,19.628-26.398,27.301-40.728
					c7.676-14.295,13.611-29.458,16.46-45.185c2.948-15.712,2.423-31.866-0.724-47.516c-3.238-15.621-10.271-29.992-20.343-42.436
					c-5.051-6.206-10.7-11.992-16.637-17.524c-6.082-5.4-12.308-10.683-18.909-15.572c-13.087-9.9-26.917-18.968-40.998-27.654
					c-28.207-17.336-57.417-33.236-86.824-48.743c-29.424-15.488-59.115-30.529-88.893-45.404l-89.502-44.351
					c-29.797-14.875-59.942-29.032-89.907-43.562c-120.079-57.675-239.984-115.73-359.651-174.356L552.414,384.647z"/>
			</g>
		</g>
		<g>
			<g>
				<defs>
					<path id="SVGID_62_" d="M1555.744,2435.392c-46.502,24.22-122.223,59.767-220.202,87.758
						c-201.788,57.649-548.91,97.802-668.204-58.124c-14.663-19.166-53.41-69.812-48.271-132.377
						c5.34-65.047,53.365-85.127,46.215-125.793c-9.777-55.602-105.418-51.385-200.502-115.208
						c-80.752-54.202-177.922-168.769-168.537-303.534c10.292-147.771,142.566-231.793,156.953-240.619
						c97.766-59.968,248.432-81.658,342.629-5.908c83.351,67.025,91.152,185.141,96.301,263.087
						c11.65,176.368-62.12,255.696-8.983,317.456c48.39,56.242,130.468,14.746,189.289,89.785
						c25.138,32.066,17.958,49.607,57.247,112.357c29.728,47.48,61.832,82.152,75.033,94.453
						C1306.878,2513.92,1535.481,2441.999,1555.744,2435.392z"/>
				</defs>
				<use xlink:href="#SVGID_62_"  overflow="visible" fill="#4AE0B0"/>
				<clipPath id="SVGID_5_">
					<use xlink:href="#SVGID_62_"  overflow="visible"/>
				</clipPath>
				<path clip-path="url(#SVGID_5_)" fill="#F1FDF9" d="M1429.275,2493.964c-96,0-191.328-6.276-284.817-18.789
					c-282.686-37.834-314.632-101.139-325.128-121.941c-16.317-32.331-13.354-59.524-10.217-88.317
					c3.526-32.354,7.171-65.811-14.043-112.256c-19.352-42.359-44.576-62.031-68.971-81.055
					c-23.789-18.553-48.388-37.734-66.484-77.684c-23.315-51.473-16.25-93.24-8.77-137.46c4.103-24.243,8.344-49.312,7.893-77.396
					c-1.775-110.929-78.297-224.528-227.439-337.641l2.146-2.829c150.056,113.807,227.05,228.338,228.845,340.414
					c0.453,28.409-3.813,53.643-7.942,78.043c-7.389,43.671-14.366,84.918,8.503,135.406c17.734,39.15,40.902,57.219,65.432,76.347
					c24.732,19.286,50.306,39.229,70.017,82.38c21.621,47.332,17.755,82.813,14.345,114.116c-3.08,28.253-5.986,54.94,9.855,86.333
					c10.289,20.389,41.6,82.438,322.432,120.021c138.927,18.595,281.968,23.393,425.154,14.266l0.227,3.543
					C1523.242,2492.465,1476.173,2493.964,1429.275,2493.964z"/>
			</g>
		</g>
	</g>
</g>
</svg>
