<?xml version="1.0" encoding="utf-8"?>
<!-- Generator: Adobe Illustrator 16.0.0, SVG Export Plug-In . SVG Version: 6.00 Build 0)  -->
<!DOCTYPE svg PUBLIC "-//W3C//DTD SVG 1.1//EN" "http://www.w3.org/Graphics/SVG/1.1/DTD/svg11.dtd">
<svg version="1.1" xmlns="http://www.w3.org/2000/svg" xmlns:xlink="http://www.w3.org/1999/xlink" x="0px" y="0px"
	 width="424.96px" height="635px" viewBox="0 0 424.96 635" enable-background="new 0 0 424.96 635" xml:space="preserve">
<g id="Background">
</g>
<g id="Illustration">
	<path fill="#FFFFFF" d="M253.27,522.972c-0.252,0-0.473-0.185-0.51-0.441c-0.041-0.282,0.153-0.544,0.436-0.586
		c5.752-0.84,10.48-3.955,12.974-8.549c2.042-3.763,2.26-7.991,0.598-11.604c-4.087-8.881-15.938-14.34-25.159-17.354
		c-4.967-1.624-10.216-2.951-15.292-4.236c-6.182-1.563-12.574-3.18-18.527-5.349c-13.852-5.045-24.457-12.841-29.862-21.95
		c-6.558-11.052-5.8-24.746,2.077-37.571c6.271-10.208,16.541-19.766,32.323-30.078c1.498-0.978,3.017-1.947,4.537-2.917
		c7.091-4.523,14.423-9.201,19.572-14.972c5.489-6.15,9.271-15.464,3.423-23.157c-0.173-0.227-0.129-0.551,0.099-0.724
		c0.227-0.172,0.551-0.127,0.723,0.099c4.084,5.372,5.316,14.621-3.474,24.47c-5.244,5.877-12.638,10.594-19.788,15.154
		c-1.517,0.968-3.032,1.936-4.527,2.911c-15.649,10.226-25.82,19.68-32.007,29.754c-7.671,12.488-8.426,25.794-2.069,36.505
		c5.283,8.905,15.698,16.543,29.326,21.507c5.904,2.15,12.271,3.761,18.428,5.317c5.094,1.288,10.359,2.621,15.36,4.256
		c9.417,3.078,21.532,8.685,25.775,17.905c1.8,3.91,1.57,8.475-0.628,12.525c-2.649,4.884-7.655,8.192-13.731,9.08
		C253.319,522.97,253.295,522.972,253.27,522.972z"/>
	<g>
		<linearGradient id="SVGID_1_" gradientUnits="userSpaceOnUse" x1="137.1245" y1="246.7139" x2="278.4795" y2="246.7139">
			<stop  offset="0" style="stop-color:#CC9CFF"/>
			<stop  offset="0.4079" style="stop-color:#BB7AFF"/>
			<stop  offset="0.7728" style="stop-color:#AE63FF"/>
			<stop  offset="1" style="stop-color:#AA5AFF"/>
		</linearGradient>
		<path fill="url(#SVGID_1_)" d="M275.587,230.271c9.36,52.341-3.858,104.534-41.649,111.292
			c-37.79,6.758-85.842-34.479-95.202-86.819s23.517-95.966,61.307-102.724C237.833,145.261,266.227,177.93,275.587,230.271z"/>
		<path fill="#EEDEFF" d="M170.215,187.94c7.53-7.337,7.788-2.903,4.474,16.57s-5.006,52.251-13.972,48.567
			S150.276,207.365,170.215,187.94z"/>
		<circle fill="#EEDEFF" cx="169.112" cy="270.458" r="6.691"/>
	</g>
</g>
</svg>
