<?xml version="1.0" encoding="utf-8"?>
<!-- Generator: Adobe Illustrator 16.0.0, SVG Export Plug-In . SVG Version: 6.00 Build 0)  -->
<!DOCTYPE svg PUBLIC "-//W3C//DTD SVG 1.1//EN" "http://www.w3.org/Graphics/SVG/1.1/DTD/svg11.dtd">
<svg version="1.1" id="Illustration" xmlns="http://www.w3.org/2000/svg" xmlns:xlink="http://www.w3.org/1999/xlink" x="0px"
	 y="0px" width="936.301px" height="446.792px" viewBox="0 0 936.301 446.792" enable-background="new 0 0 936.301 446.792"
	 xml:space="preserve">
<g>
	<g>
		<linearGradient id="SVGID_1_" gradientUnits="userSpaceOnUse" x1="131.5557" y1="260.0225" x2="347.1592" y2="260.0225">
			<stop  offset="0" style="stop-color:#CC9CFF"/>
			<stop  offset="0.4079" style="stop-color:#BB7AFF"/>
			<stop  offset="0.7728" style="stop-color:#AE63FF"/>
			<stop  offset="1" style="stop-color:#AA5AFF"/>
		</linearGradient>
		<path fill="url(#SVGID_1_)" d="M209.721,164.29c-42.305,15.151-83.344,53.081-77.63,101.502
			c4.858,41.176,52.107,53.331,80.771,57.67c7.994,1.21,15.258,5.308,20.445,11.51c12.415,14.842,39.008,39.578,68.193,23.112
			c2.125-1.199,1.174-4.465-1.264-4.368c-7.759,0.308-18.77-0.808-26.264-8.099c-10.207-9.93-6.512-27.158,6.68-32.524
			c24.963-10.155,72.066-37.806,65.967-100.466C338.371,127.884,209.721,164.29,209.721,164.29z"/>
		<path fill="#EEDEFF" d="M235.482,231.875c0,0,2.084-28.332,30.325-23.649c26.755,4.436,18.188,41.04-19.505,64.335
			c-4.088,2.525-9.149,2.897-13.57,1.017c-16.55-7.037-55.098-27.191-33.836-55.181
			C212.627,200.323,235.482,231.875,235.482,231.875z"/>
		<path opacity="0.48" fill="#FFFFFF" d="M148.293,230.038c-0.262,0-0.527-0.051-0.782-0.16c-1.017-0.432-1.491-1.606-1.06-2.623
			c8.612-20.267,29.754-47.185,81.565-60.331c1.069-0.271,2.16,0.375,2.431,1.447c0.271,1.07-0.377,2.159-1.445,2.43
			c-50.225,12.743-70.61,38.583-78.869,58.018C149.811,229.581,149.07,230.038,148.293,230.038z"/>
		<path opacity="0.48" fill="#FFFFFF" d="M142.086,267.792c-0.976,0-1.83-0.716-1.976-1.711c-0.031-0.218-0.769-5.429-0.031-13.526
			c0.1-1.099,1.075-1.917,2.173-1.81c1.1,0.1,1.911,1.073,1.812,2.173c-0.691,7.586-0.001,12.539,0.005,12.588
			c0.157,1.092-0.601,2.106-1.691,2.265C142.278,267.785,142.182,267.792,142.086,267.792z"/>
	</g>
	<g>
		<linearGradient id="SVGID_2_" gradientUnits="userSpaceOnUse" x1="675.124" y1="231.6172" x2="839.96" y2="231.6172">
			<stop  offset="0" style="stop-color:#CC9CFF"/>
			<stop  offset="0.4079" style="stop-color:#DDBEFF"/>
			<stop  offset="0.7728" style="stop-color:#EAD5FF"/>
			<stop  offset="1" style="stop-color:#EEDEFF"/>
		</linearGradient>
		<path fill="url(#SVGID_2_)" d="M822.797,311.82l-118.559,6.729c-9.925,0.563-18.464-6.944-19.178-16.859l-9.889-137.537
			c-0.758-10.534,7.584-19.498,18.146-19.498h128.447c10.049,0,18.194,8.145,18.194,18.193v130.807
			C839.96,303.303,832.43,311.273,822.797,311.82z"/>
		<path opacity="0.76" fill="#FFFFFF" d="M757.543,300.769c-5.502,0-10.487-2.81-13.337-7.518
			c-17.392-28.73-38.122-66.522-38.122-83.41c0-26.123,23.084-47.375,51.459-47.375c28.373,0,51.457,21.252,51.457,47.375
			c0,16.886-20.73,54.679-38.123,83.41C768.027,297.958,763.043,300.769,757.543,300.769z M757.543,166.466
			c-26.17,0-47.459,19.458-47.459,43.375c0,16.807,23.522,58.175,37.544,81.339c2.118,3.5,5.823,5.589,9.915,5.589
			c4.089,0,7.795-2.089,9.913-5.589C781.478,268.015,805,226.646,805,209.841C805,185.924,783.71,166.466,757.543,166.466z"/>
		<path opacity="0.76" fill="#FFFFFF" d="M753.447,242.501c-17.303,0-31.381-14.077-31.381-31.38c0-1.104,0.896-2,2-2
			c1.105,0,2,0.896,2,2c0,15.098,12.283,27.38,27.381,27.38s27.381-12.283,27.381-27.38c0-15.097-12.283-27.38-27.381-27.38
			c-8.73,0-16.734,4.019-21.961,11.026c-0.661,0.884-1.912,1.069-2.801,0.407c-0.885-0.66-1.066-1.914-0.406-2.799
			c5.902-7.912,15.311-12.635,25.168-12.635c17.305,0,31.381,14.077,31.381,31.38C784.828,228.424,770.752,242.501,753.447,242.501z
			"/>
	</g>
</g>
</svg>
