<?xml version="1.0" encoding="utf-8"?>
<!-- Generator: Adobe Illustrator 16.0.0, SVG Export Plug-In . SVG Version: 6.00 Build 0)  -->
<!DOCTYPE svg PUBLIC "-//W3C//DTD SVG 1.1//EN" "http://www.w3.org/Graphics/SVG/1.1/DTD/svg11.dtd">
<svg version="1.1" id="Illustration" xmlns="http://www.w3.org/2000/svg" xmlns:xlink="http://www.w3.org/1999/xlink" x="0px"
	 y="0px" width="745.899px" height="481.384px" viewBox="0 0 745.899 481.384" enable-background="new 0 0 745.899 481.384"
	 xml:space="preserve">
<g>
	<path fill="#7D97F4" d="M424.387,390.288c0,0-113.321,72.336-175.041,11.902c-49.604-48.569,31.178-17.402,105.871-13.617
		c5.861,0.297,6.666-8.366,0.85-9.151c-57.146-7.714-142.932-24.664-149.715-57.404c-10.239-49.426,7.324-29.516,72.775-4.948
		c65.45,24.567,82.908,11.509,41.884-10.763s-116.985-18.425-127.442-44.094c-10.459-25.668-7.852-70.255-9.387-90.153
		c-1.534-19.899,95.953-22.571,113.818,7.87c17.867,30.44,23.166,88.966,49.422,106.54c26.255,17.575,7.975-37.898-4.582-67.382
		c-12.558-29.482-15.243-49.584,21.473-33.365c36.715,16.219,44.225,68.468,38.758,104.452c-5.467,35.985,2.705,59.171,6.796,41.746
		s12.247-72.059,4.343-91.306C406.306,221.367,488.385,264.589,424.387,390.288z"/>
	<path fill="#91B3FA" d="M417.045,389.272c-0.424,0.041-0.854-0.146-1.105-0.526c-56.974-85.818-169.473-167.561-170.604-168.376
		c-0.531-0.384-0.65-1.125-0.268-1.658c0.383-0.529,1.126-0.65,1.658-0.267c1.133,0.816,113.977,82.806,171.19,168.989
		c0.362,0.545,0.214,1.282-0.331,1.645C417.417,389.191,417.231,389.254,417.045,389.272z"/>
</g>
<g>
	<path fill="#BDD0FB" d="M520.711,437.449c0,0-162.809,27.053-203.367-70.927c-32.596-78.745,43.588-4.621,126.097,35.652
		c6.476,3.16,11.559-6.233,5.37-9.923C388.007,356,299.32,295.516,307.442,255.281c12.261-60.738,22.495-29.795,84.552,29.488
		s88.061,52.954,52.477,8.036c-35.584-44.917-123.202-77.187-122.639-111.208c0.564-34.021,24.998-83.105,32.855-106.312
		s119.214,20.763,124.714,63.743c5.499,42.98-16.726,111.611,4.448,144.108c21.174,32.498,27.271-38.945,27.303-78.285
		c0.033-39.34,6.689-63.329,40.326-27.321c33.637,36.007,16.933,98.618-6.584,136.611c-23.516,37.993-25.465,68.11-12.447,50.408
		s48.559-75.454,48.91-100.995C581.711,238.015,653.55,326.374,520.711,437.449z"/>
	<linearGradient id="SVGID_1_" gradientUnits="userSpaceOnUse" x1="400.2402" y1="294.9639" x2="514.8057" y2="294.9639">
		<stop  offset="0" style="stop-color:#DAE3FE"/>
		<stop  offset="1" style="stop-color:#E9EFFD"/>
	</linearGradient>
	<path fill="url(#SVGID_1_)" d="M512.91,432.763c-0.498-0.157-0.895-0.575-0.994-1.126
		c-22.964-124.353-110.584-270.865-111.467-272.33c-0.415-0.689-0.192-1.584,0.498-2.002c0.686-0.412,1.584-0.191,1.999,0.498
		c0.886,1.469,88.775,148.426,111.835,273.307c0.146,0.79-0.377,1.55-1.168,1.697C513.37,432.852,513.13,432.833,512.91,432.763z"/>
</g>
</svg>
