<?xml version="1.0" encoding="utf-8"?>
<!-- Generator: Adobe Illustrator 16.0.0, SVG Export Plug-In . SVG Version: 6.00 Build 0)  -->
<!DOCTYPE svg PUBLIC "-//W3C//DTD SVG 1.1//EN" "http://www.w3.org/Graphics/SVG/1.1/DTD/svg11.dtd">
<svg version="1.1" id="Illustration" xmlns="http://www.w3.org/2000/svg" xmlns:xlink="http://www.w3.org/1999/xlink" x="0px"
	 y="0px" width="766.092px" height="753.769px" viewBox="0 0 766.092 753.769" enable-background="new 0 0 766.092 753.769"
	 xml:space="preserve">
<g>
	<rect x="487.777" y="526.387" fill="#7D97F4" width="13.895" height="150.251"/>
	<path fill="#7D97F4" d="M555.568,679.535H433.881v-5.672c0-1.862,1.51-3.372,3.373-3.372h114.941c1.863,0,3.373,1.51,3.373,3.372
		V679.535z"/>
	<path fill="#7D97F4" d="M573.629,521.172c0,8.218-6.724,14.941-14.941,14.941H435.57c-8.217,0-14.941-6.724-14.941-14.941v-13.51
		c0-8.218,6.725-14.941,14.941-14.941h123.117c8.218,0,14.941,6.724,14.941,14.941V521.172z"/>
	<linearGradient id="SVGID_1_" gradientUnits="userSpaceOnUse" x1="343.1016" y1="549.4678" x2="441.8906" y2="549.4678">
		<stop  offset="0" style="stop-color:#FF928E"/>
		<stop  offset="1" style="stop-color:#FEB3B1"/>
	</linearGradient>
	<path fill="url(#SVGID_1_)" d="M392.154,426.204c0,0-20.645,3.2-43.855,18.718c-3.654,2.441-5.657,6.698-5.107,11.059
		c2.779,22.016,14.207,93.275,51.892,162.876c1.987,3.669,2.559,7.941,1.682,12.021l-6.548,30.469l-12.141,11.385h31.273
		l20.822-56.35l-8.903-2.815c-6.903-2.184-11.64-8.533-11.766-15.772l-1.045-60.447c0.892-26.931-16.513-45.512-16.513-45.512
		l49.945-2.43L392.154,426.204z"/>
	<linearGradient id="SVGID_2_" gradientUnits="userSpaceOnUse" x1="450.9316" y1="185.4121" x2="419.4336" y2="479.3944">
		<stop  offset="0" style="stop-color:#394265"/>
		<stop  offset="1" style="stop-color:#3B3A6C"/>
	</linearGradient>
	<path fill="url(#SVGID_2_)" d="M365.865,678.228c-2.849,3.728,30.652,8.646,47.58,0.493c0,0,23.462-40.822,23.462-61.841
		c0,0-1.862-4.285-15.639-3.313c0,0-7.878,48.336-16.196,53.75c-8.32,5.415-23.273,0.548-23.273,0.548
		S370.066,672.729,365.865,678.228z"/>
	<linearGradient id="SVGID_3_" gradientUnits="userSpaceOnUse" x1="545.959" y1="191.1563" x2="475.4627" y2="320.1495">
		<stop  offset="0" style="stop-color:#FF928E"/>
		<stop  offset="1" style="stop-color:#FEB3B1"/>
	</linearGradient>
	<path fill="url(#SVGID_3_)" d="M435.57,492.721c-0.266-0.46-53.771-6.434-53.771-6.434s1.75,16.27-3.723,38.665
		s-84.033,119.426-84.033,119.426l8.238,26.113c-25.469,8.871-50.521,10.289-75.174,4.521l51.05-30.635
		c0,0,47.776-162.813,77.04-191.858l53.635-18.556L435.57,492.721z"/>
	<path fill="#CC9CFF" d="M555.568,397.986c0,0,30.828,45.853,33.357,66.769c2.53,20.915-8.444,29.414-40.791,30.815
		c-32.346,1.402-118.697,1.379-118.697,1.379l-73.701-62.985c0,0,53.71-19.165,67.674-24.585
		C437.374,403.96,555.568,397.986,555.568,397.986z"/>
	<linearGradient id="SVGID_4_" gradientUnits="userSpaceOnUse" x1="313.0088" y1="170.6221" x2="281.5099" y2="464.6124">
		<stop  offset="0" style="stop-color:#394265"/>
		<stop  offset="1" style="stop-color:#3B3A6C"/>
	</linearGradient>
	<path fill="url(#SVGID_4_)" d="M299.168,661.696c0,0,8.869,8.59,2.877,18.146c0,0-70.252,12.452-89.325,6.803
		c0,0,3.96-9.04,25.438-19.329l-1.585,1.217c-2.005,1.539-0.829,4.746,1.694,4.603C252.421,672.329,281.711,669.736,299.168,661.696
		z"/>
	<path fill="#CC9CFF" d="M472.197,391.916c0,0-35.898-34.184-53.57-56.824c-9.552-12.239-12.552-28.351-8.135-43.234
		c8.068-27.181,22.406-55.332,23.714-59.714c2.005-6.716,42.257-6.437,42.257-6.437s79.209,51.407,110.33,138.487l-34.951,10.881
		c0,0-20.682-34.696-41.116-56.757c0,0,35.358,46.711,36.604,65.833L472.197,391.916z"/>
	<linearGradient id="SVGID_5_" gradientUnits="userSpaceOnUse" x1="443.4424" y1="120.4063" x2="464.4417" y2="342.3989">
		<stop  offset="0" style="stop-color:#FF928E"/>
		<stop  offset="1" style="stop-color:#FEB3B1"/>
	</linearGradient>
	<path fill="url(#SVGID_5_)" d="M429.338,194.609c0.42,1.396,10.927,36.226,11.748,36.948c0.822,0.723,23.041,1.918,33.498-5.229
		l-17.742-37.143L429.338,194.609z"/>
	<linearGradient id="SVGID_6_" gradientUnits="userSpaceOnUse" x1="450.791" y1="94.3535" x2="441.7915" y2="203.8469">
		<stop  offset="0" style="stop-color:#FF928E"/>
		<stop  offset="1" style="stop-color:#FEB3B1"/>
	</linearGradient>
	<path fill="url(#SVGID_6_)" d="M446.596,121.455c0,0-18.967,8.009-31.862,35.416c-12.897,27.407-3.266,40.062,8.831,41.799
		c12.098,1.737,30.188,1.473,49.323-16.231C492.023,164.733,471.252,111.962,446.596,121.455z"/>
	<linearGradient id="SVGID_7_" gradientUnits="userSpaceOnUse" x1="426.4834" y1="145.4434" x2="505.7168" y2="145.4434">
		<stop  offset="0" style="stop-color:#394265"/>
		<stop  offset="1" style="stop-color:#3B3A6C"/>
	</linearGradient>
	<path fill="url(#SVGID_7_)" d="M460.024,167.806c0,0,14.31-40.098-21.241-40.571l-8.365,5.847c0,0-13.044-22.232,8.365-32.844
		c21.409-10.613,53.355-1.164,62.467,27.68c9.109,28.844,3.777,47.469-11.381,61.269c-15.157,13.8-21.404-1.848-21.404-1.848
		s8.255-12.907,4.895-19.813s-11.111,1.429-11.111,1.429L460.024,167.806z"/>
	<linearGradient id="SVGID_8_" gradientUnits="userSpaceOnUse" x1="479.8037" y1="96.7383" x2="470.8042" y2="206.232">
		<stop  offset="0" style="stop-color:#FF928E"/>
		<stop  offset="1" style="stop-color:#FEB3B1"/>
	</linearGradient>
	<path fill="url(#SVGID_8_)" d="M464.012,172.272c0,0,7.234-20.656,16.887-12.43c9.652,8.226-7.846,19.08-14.693,22.596
		L464.012,172.272z"/>
	<linearGradient id="SVGID_9_" gradientUnits="userSpaceOnUse" x1="521.1162" y1="385.9531" x2="716.9424" y2="385.9531">
		<stop  offset="0" style="stop-color:#FF928E"/>
		<stop  offset="1" style="stop-color:#FEB3B1"/>
	</linearGradient>
	<path fill="url(#SVGID_9_)" d="M399.063,394.454l26.375-25.423l36.488,15.414c0,0,36.318,5.627,57.105,0s20.787-5.627,20.787-5.627
		l46.975-14.624l7.377,20.85c1.874,5.294-0.008,11.171-4.586,14.423c-4.064,2.889-8.827,6.063-11.864,7.391
		c-6.186,2.706-152.493-1.872-152.493-1.872L399.063,394.454z"/>
	<linearGradient id="SVGID_10_" gradientUnits="userSpaceOnUse" x1="496.2549" y1="189.1855" x2="609.3135" y2="189.1855">
		<stop  offset="0" style="stop-color:#394265"/>
		<stop  offset="1" style="stop-color:#3B3A6C"/>
	</linearGradient>
	<path fill="url(#SVGID_10_)" d="M498.463,132.438c-4.572-4.67-1.602-12.558,4.855-13.565c20.841-3.25,52.615,0.066,65.963,44.68
		c15.035,50.255,24.821,75.381,34.865,79.79c6.596,2.896,7.02,12.052,0.447,15.003c-4.859,2.182-11.814,2.955-21.77,0.765
		C506.025,242.214,525.273,159.826,498.463,132.438z"/>
	<linearGradient id="SVGID_11_" gradientUnits="userSpaceOnUse" x1="338.6816" y1="399.5156" x2="505.3809" y2="399.5156">
		<stop  offset="0" style="stop-color:#AA5AFF"/>
		<stop  offset="0.0807" style="stop-color:#A856FF"/>
		<stop  offset="0.6468" style="stop-color:#9F3FFE"/>
		<stop  offset="1" style="stop-color:#9B36FE"/>
	</linearGradient>
	<path fill="url(#SVGID_11_)" d="M498.877,406.439c-0.116,0.006-0.234,0.009-0.352,0.008l-153.002-0.167
		c-3.782-0.003-6.844-3.073-6.842-6.854c0.004-3.784,3.086-6.91,6.857-6.842l153.002,0.167c3.782,0.003,6.844,3.073,6.84,6.855
		C505.377,403.271,502.496,406.261,498.877,406.439z"/>
	<linearGradient id="SVGID_12_" gradientUnits="userSpaceOnUse" x1="197.7959" y1="336.9404" x2="416.2744" y2="336.9404">
		<stop  offset="0" style="stop-color:#AA5AFF"/>
		<stop  offset="0.0807" style="stop-color:#A856FF"/>
		<stop  offset="0.6468" style="stop-color:#9F3FFE"/>
		<stop  offset="1" style="stop-color:#9B36FE"/>
	</linearGradient>
	<path fill="url(#SVGID_12_)" d="M207.982,267.523h127.421c9.399,0,17.955,5.425,21.965,13.926l58.906,124.908H257.924
		c-6.057,0-11.499-3.701-13.727-9.335l-45.679-115.583C195.879,274.761,200.801,267.523,207.982,267.523z"/>
	<linearGradient id="SVGID_13_" gradientUnits="userSpaceOnUse" x1="277.4082" y1="334.6436" x2="298.9824" y2="334.6436">
		<stop  offset="0" style="stop-color:#CC9CFF"/>
		<stop  offset="0.4079" style="stop-color:#DDBEFF"/>
		<stop  offset="0.7728" style="stop-color:#EAD5FF"/>
		<stop  offset="1" style="stop-color:#EEDEFF"/>
	</linearGradient>
	<path fill="url(#SVGID_13_)" d="M297.751,331.567c2.762,8.579,0.722,16.91-4.556,18.609c-5.277,1.698-11.794-3.879-14.556-12.458
		c-2.761-8.579-0.722-16.91,4.556-18.608C288.474,317.411,294.99,322.988,297.751,331.567z"/>
	<path fill="#7D97F4" d="M103.84,707.876c-0.738,0-1.488-0.151-2.211-0.469c-2.843-1.251-4.156-4.623-2.933-7.531L216.207,420.38
		c1.221-2.907,4.515-4.25,7.359-3.001c2.844,1.251,4.156,4.624,2.934,7.531L108.99,704.407
		C108.078,706.576,106.012,707.876,103.84,707.876z"/>
	<path fill="#7D97F4" d="M236.221,707.876c-2.172,0-4.238-1.299-5.15-3.469L113.561,424.91c-1.223-2.907,0.09-6.28,2.934-7.531
		c2.84-1.251,6.137,0.092,7.36,3.001l117.511,279.496c1.223,2.908-0.091,6.28-2.934,7.531
		C237.711,707.725,236.959,707.876,236.221,707.876z"/>
	<path fill="#7D97F4" d="M566.58,707.876c-0.738,0-1.489-0.151-2.211-0.469c-2.842-1.251-4.156-4.623-2.933-7.531l117.51-279.496
		c1.224-2.907,4.515-4.25,7.36-3.001c2.844,1.251,4.156,4.624,2.934,7.531L571.73,704.407
		C570.818,706.576,568.752,707.876,566.58,707.876z"/>
	<path fill="#7D97F4" d="M698.96,707.876c-2.171,0-4.239-1.299-5.149-3.469L576.3,424.91c-1.222-2.907,0.091-6.28,2.934-7.531
		c2.84-1.251,6.137,0.092,7.36,3.001l117.51,279.496c1.224,2.908-0.09,6.28-2.933,7.531
		C700.45,707.725,699.698,707.876,698.96,707.876z"/>
	<path fill="#BDD0FB" d="M712.724,412.028c0.358-1.734-0.13-3.528-1.329-4.892c-1.199-1.362-2.985-2.151-4.87-2.151H68.055
		c-2.479,0-4.786,1.184-6.121,3.142c-1.336,1.957-1.516,4.417-0.476,6.527l6.919,14.036c1.584,3.215,5.018,5.273,8.795,5.273
		h624.973c3.513,0,6.533-2.336,7.201-5.57L712.724,412.028z"/>
</g>
</svg>
