<?xml version="1.0" encoding="utf-8"?>
<!-- Generator: Adobe Illustrator 16.0.0, SVG Export Plug-In . SVG Version: 6.00 Build 0)  -->
<!DOCTYPE svg PUBLIC "-//W3C//DTD SVG 1.1//EN" "http://www.w3.org/Graphics/SVG/1.1/DTD/svg11.dtd">
<svg version="1.1" xmlns="http://www.w3.org/2000/svg" xmlns:xlink="http://www.w3.org/1999/xlink" x="0px" y="0px"
	 width="999.901px" height="1512.053px" viewBox="0 0 999.901 1512.053" enable-background="new 0 0 999.901 1512.053"
	 xml:space="preserve">
<g id="Background">
</g>
<g id="Illustration">
	<g>
		<path fill="#91B3FA" d="M136.78,382.839c-17.941,26.355-27.891,59.473-29.006,97.9c-2.246,77.35,28.49,128.856,76.777,189.648
			c30.899,38.9,61.8,77.8,92.701,116.699c14.673,18.472,23.209,41.065,24.417,64.626l5.263,102.695
			c1.973,38.494,23.395,73.34,56.852,92.479c53.099,30.375,120.723,13.076,152.715-39.064l50.725-82.672
			c23.78-38.757,22.065-87.98-4.354-124.989l-87.132-122.055c-11.133-15.594-18.125-33.758-20.323-52.791
			c0,0-22.655-196.167-22.657-196.189c-9.803-84.859-95.121-121.544-172.145-113.66C204.587,321.201,162.482,345.081,136.78,382.839
			z"/>
		<g>
			<path fill="#BDD0FB" d="M459.411,1082.126c-0.304,0.084-0.618,0.145-0.941,0.179c-3.176,0.335-6.023-1.967-6.358-5.144
				C420.942,782.157,275.294,492.42,264.798,478.47c-1.844-1.604-2.531-4.272-1.516-6.64c1.256-2.934,4.656-4.296,7.593-3.037
				c1.873,0.803,3.109,1.332,11.337,16.885c3.793,7.168,10.2,19.732,19.186,38.886c13.501,28.772,34.438,75.884,57.517,136.926
				c38.563,101.998,88.031,256.698,104.699,414.457C463.914,1078.799,462.088,1081.386,459.411,1082.126z M266.305,479.418
				c0.004,0.002,0.01,0.004,0.014,0.006C266.314,479.422,266.309,479.42,266.305,479.418z M266.292,479.413
				c0,0,0.001,0.001,0.002,0.002C266.294,479.414,266.293,479.414,266.292,479.413z"/>
		</g>
	</g>
	<g>
		<path fill="#BDD0FB" d="M453.262,1041.152c-30.63-9.293-53.87-34.185-61.148-65.354c-7.771-33.276-24.33-67.975-49.368-99.694
			c-65.709-83.245-164.928-114.457-221.612-69.713c-56.684,44.742-49.368,148.498,16.342,231.743
			c35.403,44.853,61.511,74.49,82.708,129.539c39.458,102.471,91.319,241.643,217.644,254.775
			c63.811,6.634,130.163-23.19,167.562-75.316c5.844-8.145,11.043-16.826,14.557-26.217c14.956-39.978,3.17-105.459-16.986-141.948
			C572.782,1124.334,514.396,1059.7,453.262,1041.152z"/>
		<linearGradient id="SVGID_1_" gradientUnits="userSpaceOnUse" x1="285.1343" y1="1201.6538" x2="643.4792" y2="1201.6538">
			<stop  offset="0" style="stop-color:#DAE3FE"/>
			<stop  offset="1" style="stop-color:#E9EFFD"/>
		</linearGradient>
		<path fill="url(#SVGID_1_)" d="M641.495,1395.308c-1.385,0.899-3.225,0.968-4.711,0.025
			c-73.471-46.546-164.984-147.755-228.817-224.461c-69.044-82.97-121.493-155.947-122.014-156.675
			c-1.404-1.957-0.956-4.682,1.001-6.086c1.95-1.4,4.682-0.955,6.085,1.002c2.079,2.898,209.447,290.812,348.413,378.853
			c2.035,1.289,2.639,3.983,1.35,6.018C642.455,1394.532,642.005,1394.977,641.495,1395.308z"/>
	</g>
	<g>
		<path fill="#BDD0FB" d="M657.348,288.302c-4.495-25.802,65.795-69.223,45.78-121.075l-52.423-19.822
			c0,0,5.531,69.834-12.417,95.198c-17.947,25.363-29.301,8.781-26.12-9.877c3.181-18.657,32.726-64.627,21.752-85.239
			c0,0-8.813-16.262-27.3-0.916s-57.999,0.781-70.267-12.926c0,0,0.324,10.795-10.447,35.543
			c-10.771,24.748-23.383,48.887-1.865,60.329c21.518,11.443,54.422,15.004,53.826,30.001
			c-0.597,14.997-61.845,21.016-80.061-23.929c0,0-20.132,38.056-16.267,50.935c3.865,12.878,26.604,26.55,62.595,18.594
			c35.991-7.957,54.859-0.823,54.412,10.425s-108.26,18.688-120.783-19.03c0,0-6.618,79.954-2.326,89.188
			c4.292,9.233,51.351,9.268,79.513-1.65c28.162-10.916,56.428-0.229,62.529,9.69c6.102,9.918-31.932,3.148-49.447,9.211
			c-17.515,6.063-93.414-1.07-93.414-1.07s8.991,5.938,10.778,33.253c1.786,27.314,20.692,71.251,37.368,67.408
			c16.676-3.844,91.864-37.572,117.718-39.214c25.853-1.642,46.963,2.535,35.196,12.039c-11.767,9.505-45.118,12.117-68.467,21.049
			c-23.348,8.931-80.51,39.328-94.37,29.014c0,0,23.317,69.707,92.097,75.416c0,0,32.039-18.331,48.72-48.812
			s25.046-42.54,36.984-40.563c11.938,1.978,0.215,22.915-10.668,41.634c-10.884,18.719-35.311,62.762-51.496,65.522
			c0,0,104.022,2.544,117.853-67.071c12.97-65.287,6.161-73.341,5.265-74.09c3.532,2.546,111.005,78.631,150.432-63.664
			c0,0-18.077,29.952-41.375,27.486c-23.297-2.467-60.195,16.563-60.614-0.085c-0.419-16.649,84.179-7.496,99.867-39.621
			c15.688-32.124-2.302-83.665-39.447-96.906c0,0,0.738,32.797-28.946,53.286c-29.685,20.49-75.262,40.045-65.689,13.219
			s96.049-65.632,99.591-89.432c3.542-23.798-68.431-68.296-68.431-68.296s-0.945,12.563-19.264,50.948
			c-18.32,38.386-47.061,78.261-52.02,67.506c-4.958-10.755,15.637-35.459,33.21-58.236c17.573-22.777,26.502-59.042,14.893-68.982
			s-54.404-31.31-54.404-31.31s-13.673,53.789-17.493,78.737C698.087,277.067,661.842,314.104,657.348,288.302z M748.92,424.354
			c-23.55,25.289-23.344-3.912-18.95-23.6C733.306,385.809,772.471,399.065,748.92,424.354z M711.014,370.752
			c-15.196,17.089-26.798,14.711-25.561,2.065C688.297,343.762,726.209,353.665,711.014,370.752z M664.387,318.872
			c-7.643,9.797-13.108,11.536-17.951-1.712S672.03,309.077,664.387,318.872z"/>
	</g>
</g>
</svg>
