<?xml version="1.0" encoding="utf-8"?>
<!-- Generator: Adobe Illustrator 16.0.0, SVG Export Plug-In . SVG Version: 6.00 Build 0)  -->
<!DOCTYPE svg PUBLIC "-//W3C//DTD SVG 1.1//EN" "http://www.w3.org/Graphics/SVG/1.1/DTD/svg11.dtd">
<svg version="1.1" id="Illustration" xmlns="http://www.w3.org/2000/svg" xmlns:xlink="http://www.w3.org/1999/xlink" x="0px"
	 y="0px" width="787.797px" height="701.894px" viewBox="0 0 787.797 701.894" enable-background="new 0 0 787.797 701.894"
	 xml:space="preserve">
<linearGradient id="SVGID_1_" gradientUnits="userSpaceOnUse" x1="96.4912" y1="623.5498" x2="249.3792" y2="418.4565">
	<stop  offset="0" style="stop-color:#AA5AFF"/>
	<stop  offset="0.7669" style="stop-color:#9F3FFE"/>
	<stop  offset="1" style="stop-color:#9B36FE"/>
</linearGradient>
<path fill="url(#SVGID_1_)" d="M110.936,370.291c0,0,69.969,184.528,92.074,222.915c25.66,44.56,100.6,16.165,96.871-21.127
	c-3.729-37.291-91.286-191.431-91.286-191.431L110.936,370.291z"/>
<linearGradient id="SVGID_2_" gradientUnits="userSpaceOnUse" x1="193.5918" y1="289.1084" x2="640.3516" y2="289.1084">
	<stop  offset="0" style="stop-color:#CC9CFF"/>
	<stop  offset="0.4079" style="stop-color:#BB7AFF"/>
	<stop  offset="0.7728" style="stop-color:#AE63FF"/>
	<stop  offset="1" style="stop-color:#AA5AFF"/>
</linearGradient>
<polygon fill="url(#SVGID_2_)" points="205.476,235.871 640.352,85.093 635.785,493.124 193.592,394.459 "/>
<g>
	<linearGradient id="SVGID_3_" gradientUnits="userSpaceOnUse" x1="933.8887" y1="113.7314" x2="762.889" y2="216.7312">
		<stop  offset="0" style="stop-color:#4AE0B0"/>
		<stop  offset="0.0582" style="stop-color:#52D5B6"/>
		<stop  offset="0.3731" style="stop-color:#77A1D5"/>
		<stop  offset="0.6463" style="stop-color:#937AEC"/>
		<stop  offset="0.8643" style="stop-color:#A463FA"/>
		<stop  offset="1" style="stop-color:#AA5AFF"/>
	</linearGradient>
	<ellipse fill="url(#SVGID_3_)" cx="640.762" cy="290.292" rx="42.725" ry="209.69"/>
	<linearGradient id="SVGID_4_" gradientUnits="userSpaceOnUse" x1="613.71" y1="289.1084" x2="674.2988" y2="289.1084">
		<stop  offset="0" style="stop-color:#CC9CFF"/>
		<stop  offset="0.4079" style="stop-color:#BB7AFF"/>
		<stop  offset="0.7728" style="stop-color:#AE63FF"/>
		<stop  offset="1" style="stop-color:#AA5AFF"/>
	</linearGradient>
	<path fill="url(#SVGID_4_)" d="M644.005,485.643c-3.862-3.928-12.274-19.078-19.485-58.256
		c-6.971-37.861-10.81-86.97-10.81-138.278s3.839-100.417,10.81-138.277c7.211-39.179,15.623-54.329,19.485-58.257
		c3.861,3.928,12.274,19.078,19.485,58.257c6.971,37.86,10.809,86.969,10.809,138.277s-3.838,100.417-10.809,138.278
		C656.279,466.564,647.866,481.715,644.005,485.643z"/>
</g>
<g>
	<defs>
		<path id="SVGID_550_" d="M644.005,485.643c-3.862-3.928-12.274-19.078-19.485-58.256c-6.971-37.861-10.81-86.97-10.81-138.278
			s3.839-100.417,10.81-138.277c7.211-39.179,15.623-54.329,19.485-58.257c3.861,3.928,12.274,19.078,19.485,58.257
			c6.971,37.86,61.973,86.969,61.973,138.277s-55.002,100.417-61.973,138.278C656.279,466.564,647.866,481.715,644.005,485.643z"/>
	</defs>
	<clipPath id="SVGID_5_">
		<use xlink:href="#SVGID_550_"  overflow="visible"/>
	</clipPath>
	<linearGradient id="SVGID_6_" gradientUnits="userSpaceOnUse" x1="703.9453" y1="231.9678" x2="625.945" y2="298.9679">
		<stop  offset="0" style="stop-color:#AA5AFF"/>
		<stop  offset="0.0807" style="stop-color:#A856FF"/>
		<stop  offset="0.6468" style="stop-color:#9F3FFE"/>
		<stop  offset="1" style="stop-color:#9B36FE"/>
	</linearGradient>
	<path clip-path="url(#SVGID_5_)" fill="url(#SVGID_6_)" d="M698.767,287.547c0,35.629-19.192,64.512-57.181,64.512
		c-37.987,0-68.783-28.883-68.783-64.512c0-35.628,30.796-64.511,68.783-64.511C679.574,223.036,698.767,251.919,698.767,287.547z"
		/>
</g>
<linearGradient id="SVGID_7_" gradientUnits="userSpaceOnUse" x1="160.875" y1="389.9248" x2="149.6878" y2="108.3861">
	<stop  offset="0" style="stop-color:#AA5AFF"/>
	<stop  offset="0.0807" style="stop-color:#A856FF"/>
	<stop  offset="0.6468" style="stop-color:#9F3FFE"/>
	<stop  offset="1" style="stop-color:#9B36FE"/>
</linearGradient>
<path fill="url(#SVGID_7_)" d="M135.337,227.101c20.457-2.376,49.792-3.23,81.511,4.033c-10.45,54.588-8.873,111.484,3.213,170.398
	h-89.462c-14.263,0-26.425-10.36-28.649-24.449c-4.458-28.24-9.909-75.705-4.098-113.826
	C100.77,244.126,116.113,229.333,135.337,227.101z"/>
<path fill="#F1E5FF" d="M189.027,268.616h-69.701c-2.257,0-4.248-1.184-5.327-3.166c-1.078-1.982-0.989-4.298,0.235-6.193
	c0.45-0.695,1.38-0.895,2.074-0.444c0.696,0.45,0.895,1.378,0.445,2.074c-0.619,0.958-0.664,2.128-0.119,3.13
	c0.545,1.001,1.551,1.6,2.691,1.6h69.701c1.689,0,3.063-1.375,3.063-3.064v-4.959c0-1.69-1.374-3.064-3.063-3.064h-70.219
	c-0.828,0-1.5-0.672-1.5-1.5c0-0.829,0.672-1.5,1.5-1.5h70.219c3.344,0,6.063,2.721,6.063,6.064v4.959
	C195.091,265.896,192.371,268.616,189.027,268.616z"/>
<path fill="#F1E5FF" d="M182.811,299.485h-69.7c-2.257,0-4.249-1.184-5.327-3.166s-0.99-4.298,0.235-6.193
	c0.45-0.695,1.379-0.895,2.075-0.444c0.695,0.45,0.894,1.378,0.444,2.074c-0.62,0.958-0.665,2.128-0.119,3.13
	c0.545,1.001,1.551,1.6,2.691,1.6h69.7c1.69,0,3.065-1.375,3.065-3.064v-4.959c0-1.69-1.375-3.064-3.065-3.064h-70.217
	c-0.828,0-1.5-0.672-1.5-1.5c0-0.829,0.672-1.5,1.5-1.5h70.217c3.345,0,6.065,2.721,6.065,6.064v4.959
	C188.876,296.765,186.155,299.485,182.811,299.485z"/>
<path opacity="0.64" fill="#FFFFFF" d="M268.666,224.536c-0.636,0-1.227-0.407-1.43-1.045c-0.251-0.79,0.186-1.634,0.975-1.885
	l329.371-104.813c0.789-0.252,1.633,0.186,1.885,0.975s-0.186,1.633-0.975,1.885L269.121,224.465
	C268.97,224.513,268.816,224.536,268.666,224.536z"/>
<path opacity="0.64" fill="#FFFFFF" d="M224.125,242.743c-0.591,0-1.151-0.352-1.389-0.934c-0.313-0.766,0.055-1.643,0.821-1.955
	l16.952-6.93c0.768-0.313,1.644,0.055,1.956,0.821c0.313,0.767-0.056,1.643-0.821,1.956l-16.953,6.93
	C224.507,242.707,224.314,242.743,224.125,242.743z"/>
<path fill="#F1E5FF" d="M189.027,335.637h-69.701c-2.257,0-4.248-1.183-5.327-3.166c-1.078-1.982-0.989-4.297,0.235-6.192
	c0.45-0.695,1.38-0.895,2.074-0.444c0.696,0.449,0.895,1.378,0.445,2.074c-0.619,0.958-0.664,2.128-0.119,3.129
	c0.545,1.002,1.551,1.6,2.691,1.6h69.701c1.689,0,3.063-1.374,3.063-3.063v-4.96c0-1.689-1.374-3.063-3.063-3.063h-70.219
	c-0.828,0-1.5-0.672-1.5-1.5c0-0.829,0.672-1.5,1.5-1.5h70.219c3.344,0,6.063,2.721,6.063,6.063v4.96
	C195.091,332.916,192.371,335.637,189.027,335.637z"/>
<path fill="#F1E5FF" d="M195.553,375.766h-69.7c-2.259,0-4.249-1.184-5.329-3.166c-1.077-1.983-0.988-4.298,0.238-6.192
	c0.451-0.696,1.379-0.896,2.074-0.445s0.894,1.379,0.443,2.075c-0.619,0.957-0.664,2.127-0.119,3.129
	c0.545,1.001,1.551,1.6,2.692,1.6h69.7c1.689,0,3.064-1.374,3.064-3.063v-4.96c0-1.689-1.375-3.064-3.064-3.064h-70.218
	c-0.828,0-1.5-0.671-1.5-1.5c0-0.828,0.672-1.5,1.5-1.5h70.218c3.344,0,6.064,2.721,6.064,6.064v4.96
	C201.617,373.045,198.896,375.766,195.553,375.766z"/>
<path fill="#F1E5FF" d="M257.804,593.941c-3.19,0-6.416-0.345-9.634-1.046c-14.079-3.066-25.541-12.351-31.447-25.47
	l-55.687-123.715c-0.34-0.756-0.003-1.645,0.753-1.983c0.751-0.341,1.644-0.004,1.983,0.751l55.687,123.716
	c5.511,12.243,16.209,20.907,29.35,23.771c12.921,2.813,25.988-0.528,35.864-9.17c0.526-0.46,1.056-0.935,1.587-1.42
	c0.612-0.559,1.562-0.518,2.12,0.095c0.559,0.611,0.515,1.56-0.096,2.118c-0.548,0.502-1.093,0.99-1.637,1.466
	C278.51,590.173,268.353,593.941,257.804,593.941z"/>
<path fill="#F1E5FF" d="M154.171,426.303c-0.572,0-1.119-0.329-1.369-0.885l-6.213-13.802c-0.34-0.755-0.003-1.643,0.752-1.983
	c0.755-0.338,1.645-0.004,1.983,0.753l6.214,13.801c0.339,0.755,0.003,1.644-0.752,1.983
	C154.586,426.26,154.377,426.303,154.171,426.303z"/>
<path fill="#EEDEFF" d="M688.584,285.397c-0.779,0-1.439-0.604-1.494-1.395c-1.246-17.544-7.334-30.631-18.098-38.895
	c-18.598-14.277-45.117-9.372-45.383-9.322c-0.807,0.155-1.602-0.375-1.757-1.189c-0.157-0.813,0.374-1.6,1.188-1.756
	c1.14-0.221,28.119-5.205,47.778,9.889c11.474,8.809,17.955,22.624,19.263,41.062c0.059,0.826-0.563,1.544-1.391,1.603
	C688.656,285.396,688.62,285.397,688.584,285.397z"/>
</svg>
