<?xml version="1.0" encoding="utf-8"?>
<!-- Generator: Adobe Illustrator 16.0.0, SVG Export Plug-In . SVG Version: 6.00 Build 0)  -->
<!DOCTYPE svg PUBLIC "-//W3C//DTD SVG 1.1//EN" "http://www.w3.org/Graphics/SVG/1.1/DTD/svg11.dtd">
<svg version="1.1" id="Illustration" xmlns="http://www.w3.org/2000/svg" xmlns:xlink="http://www.w3.org/1999/xlink" x="0px"
	 y="0px" width="2475px" height="1650px" viewBox="0 0 2475 1650" enable-background="new 0 0 2475 1650" xml:space="preserve">
<g>
	<path fill="#91B3FA" d="M717.777,1459.022c0,0-194.453-127.901-201.068-407.297c-6.43-271.565,45.877-643.009-236.49-794.009
		c-9.51-5.086-20.533,3.631-17.769,14.056c16.343,61.632,52.802,221.661,41.103,385.633
		C288.621,866.715,357.666,1377.158,717.777,1459.022z"/>
	<path fill="#BDD0FB" d="M330.59,363.363l0.918,0.824l0.791,0.766c0.529,0.506,1.035,1.016,1.524,1.525
		c1.005,1.015,1.962,2.051,2.917,3.088c1.902,2.082,3.757,4.19,5.546,6.347c1.829,2.128,3.532,4.346,5.288,6.526
		c1.674,2.236,3.42,4.425,5.032,6.705c6.573,9.034,12.605,18.436,18.171,28.098c5.592,9.65,10.633,19.606,15.222,29.759
		c4.657,10.126,8.663,20.531,12.403,31.017c7.303,21.041,12.895,42.656,16.805,64.558c3.917,21.903,6.062,44.097,6.76,66.303
		c0.69,22.212-0.107,44.44-2.098,66.542c-0.572,5.519-1.098,11.043-1.709,16.556l-2.262,16.483
		c-0.74,5.522-1.56,10.898-2.335,16.355l-1.181,8.156c-0.383,2.721-0.672,5.453-1.014,8.18c-2.826,21.799-4.62,43.728-5.913,65.676
		l-0.832,16.473l-0.489,16.489c-0.219,5.495-0.17,10.995-0.236,16.494c-0.027,5.499-0.137,10.998-0.006,16.497l0.235,16.498
		l0.582,16.489c0.114,2.748,0.164,5.499,0.331,8.244l0.479,8.237l0.479,8.237l0.238,4.118l0.32,4.113l1.317,16.45
		c0.455,5.482,1.091,10.947,1.628,16.423l0.842,8.21l1.02,8.188c0.703,5.456,1.32,10.925,2.094,16.371
		c3.02,21.801,6.813,43.489,11.203,65.06c4.545,21.538,9.846,42.913,15.856,64.094c6.149,21.14,13.138,42.033,20.938,62.625
		l6.082,15.354c0.494,1.285,1.019,2.558,1.577,3.815l1.632,3.792l3.261,7.588c1.11,2.519,2.122,5.082,3.312,7.564l3.5,7.481
		c2.34,4.983,4.607,10.005,7.172,14.879l3.744,7.363l1.872,3.683l0.937,1.841l0.996,1.809l7.992,14.463
		c5.596,9.485,11.175,18.995,17.332,28.138c12.118,18.402,25.397,36.063,39.983,52.621c-14.804-16.36-28.333-33.86-40.718-52.132
		c-6.29-9.076-12.007-18.527-17.742-27.962l-8.205-14.391l-1.022-1.801l-0.963-1.833l-1.927-3.666l-3.852-7.333
		c-2.639-4.855-4.979-9.858-7.394-14.826l-3.61-7.458c-1.226-2.476-2.275-5.031-3.424-7.544l-3.373-7.568
		c-1.101-2.532-2.303-5.023-3.307-7.597l-6.263-15.345c-8.042-20.582-15.274-41.48-21.667-62.64
		c-25.326-84.749-37.641-173.166-39.151-261.584c-0.175-5.528-0.108-11.059-0.123-16.589c0.022-5.53-0.069-11.062,0.108-16.59
		l0.361-16.59l0.709-16.578c1.127-22.094,2.761-44.18,5.437-66.158c0.321-2.748,0.593-5.502,0.956-8.246l1.125-8.226l2.229-16.417
		l2.17-16.307c0.579-5.45,1.076-10.909,1.619-16.363c1.873-21.84,2.569-43.775,1.797-65.658
		c-1.535-43.744-9.002-87.326-23.324-128.625c-3.666-10.285-7.584-20.49-12.141-30.412c-4.482-9.949-9.322-19.746-14.744-29.212
		c-5.385-9.483-11.224-18.709-17.574-27.552c-1.557-2.234-3.242-4.367-4.855-6.557c-1.691-2.124-3.334-4.293-5.089-6.359
		c-1.718-2.098-3.495-4.143-5.3-6.143c-0.906-0.997-1.814-1.992-2.744-2.942c-0.462-0.488-0.925-0.96-1.39-1.409l-0.69-0.678
		l-0.613-0.564l-0.213-0.194c-1.406-1.292-1.498-3.479-0.206-4.886C327.016,362.199,329.184,362.1,330.59,363.363z"/>
</g>
<g>
	<path fill="#BDD0FB" d="M139.814,733.691c-3.654-5.43,1.916-12.35,8.037-10.033c62.162,23.519,221.814,104.907,286.037,336.008
		c80.577,289.949,179.752,366.881,276.746,398.706c0,0-110.25,11.777-214.379-64.84
		C240.594,1205.42,204.797,830.231,139.814,733.691z"/>
	<linearGradient id="SVGID_1_" gradientUnits="userSpaceOnUse" x1="210.0654" y1="1097.3086" x2="537.0762" y2="1097.3086">
		<stop  offset="0" style="stop-color:#DAE3FE"/>
		<stop  offset="1" style="stop-color:#E9EFFD"/>
	</linearGradient>
	<path fill="url(#SVGID_1_)" d="M211.619,804.131c10.438,9.517,19.67,20.076,28.452,31.013l3.321,4.078l3.182,4.184l6.367,8.371
		c2.072,2.826,4.063,5.71,6.099,8.563c2.014,2.869,4.077,5.705,6.05,8.603c15.771,23.195,29.711,47.581,42.594,72.47l4.803,9.354
		c1.6,3.119,3.237,6.22,4.674,9.416l8.893,19.054c3.063,6.31,5.679,12.813,8.446,19.252l8.21,19.356l7.556,19.618l3.778,9.811
		l1.888,4.906l1.72,4.965l6.883,19.864c2.287,6.619,4.615,13.258,6.809,19.834l3.347,9.881l3.558,9.809l1.778,4.904
		c0.597,1.634,1.248,3.247,1.868,4.871l3.77,9.729c1.254,3.244,2.628,6.44,3.936,9.663c1.345,3.208,2.6,6.453,4.02,9.63
		c2.783,6.376,5.504,12.778,8.455,19.08c5.73,12.68,11.917,25.15,18.264,37.533c6.398,12.356,13.074,24.569,19.958,36.665
		c13.892,24.119,28.788,47.67,44.767,70.462c7.962,11.415,16.164,22.663,24.669,33.672c4.25,5.507,8.578,10.949,12.97,16.334
		c4.385,5.369,8.881,10.735,13.441,15.825l0.052,0.058c1.276,1.424,1.155,3.612-0.269,4.888c-1.416,1.269-3.589,1.155-4.867-0.246
		c-9.568-10.495-18.399-21.327-27.075-32.394c-8.649-11.059-16.988-22.351-25.085-33.813c-16.164-22.946-31.17-46.691-45.203-70.995
		c-13.967-24.345-26.805-49.343-38.322-74.944c-2.945-6.37-5.661-12.844-8.438-19.289c-1.416-3.211-2.668-6.492-4.008-9.735
		c-1.305-3.258-2.674-6.489-3.924-9.769l-3.756-9.836c-0.619-1.643-1.268-3.273-1.862-4.924l-1.771-4.958l-3.542-9.916l-3.33-9.989
		l-13.271-39.7l-1.66-4.956l-1.826-4.895l-3.654-9.791l-7.308-19.584l-7.961-19.324c-2.685-6.428-5.218-12.925-8.196-19.223
		l-8.641-19.03c-1.395-3.194-2.959-6.306-4.502-9.428l-4.621-9.371c-12.4-24.94-25.863-49.403-41.157-72.702
		c-1.897-2.92-3.885-5.779-5.823-8.673c-1.961-2.878-3.877-5.79-5.875-8.642l-6.143-8.45l-3.072-4.227l-3.209-4.12
		c-2.158-2.732-4.248-5.522-6.462-8.209l-6.699-8.012c-4.61-5.191-9.22-10.479-14.263-15.176l-0.035-0.032
		c-0.375-0.35-0.396-0.937-0.047-1.312C210.662,803.811,211.244,803.789,211.619,804.131z"/>
</g>
</svg>
