<?xml version="1.0" encoding="utf-8"?>
<!-- Generator: Adobe Illustrator 16.0.0, SVG Export Plug-In . SVG Version: 6.00 Build 0)  -->
<!DOCTYPE svg PUBLIC "-//W3C//DTD SVG 1.1//EN" "http://www.w3.org/Graphics/SVG/1.1/DTD/svg11.dtd">
<svg version="1.1" id="Illustration" xmlns="http://www.w3.org/2000/svg" xmlns:xlink="http://www.w3.org/1999/xlink" x="0px"
	 y="0px" width="1564.274px" height="1160.048px" viewBox="0 0 1564.274 1160.048" enable-background="new 0 0 1564.274 1160.048"
	 xml:space="preserve">
<path fill="#EEDEFF" d="M805.34,1046.14c-0.546,0-0.992-0.438-1-0.986c-0.008-0.552,0.434-1.006,0.985-1.014l18.051-0.265
	c0.515,0.005,1.006,0.433,1.015,0.985c0.008,0.552-0.434,1.006-0.984,1.015l-18.052,0.265H805.34z"/>
<g>
	<linearGradient id="SVGID_1_" gradientUnits="userSpaceOnUse" x1="823.7705" y1="784.1289" x2="784.7723" y2="1109.6121">
		<stop  offset="0" style="stop-color:#AA5AFF"/>
		<stop  offset="0.0807" style="stop-color:#A856FF"/>
		<stop  offset="0.6468" style="stop-color:#9F3FFE"/>
		<stop  offset="1" style="stop-color:#9B36FE"/>
	</linearGradient>
	<polygon fill="url(#SVGID_1_)" points="669.947,814.09 644.214,1044.875 942.763,1044.875 903.876,814.09 	"/>
	<linearGradient id="SVGID_2_" gradientUnits="userSpaceOnUse" x1="43.6973" y1="470.1436" x2="1475.1221" y2="470.1436">
		<stop  offset="0" style="stop-color:#CC9CFF"/>
		<stop  offset="0.4079" style="stop-color:#BB7AFF"/>
		<stop  offset="0.7728" style="stop-color:#AE63FF"/>
		<stop  offset="1" style="stop-color:#AA5AFF"/>
	</linearGradient>
	<path fill="url(#SVGID_2_)" d="M43.697,131.112v634.875c0,52.227,41.619,94.936,93.828,96.282
		c231.887,5.979,1042.917,20.479,1263.658,17.225c37.939-0.56,68.674-30.92,69.769-68.848
		c4.257-147.49,11.169-502.155-14.413-666.812c-5.387-34.675-34.656-60.604-69.729-61.726
		C1192.518,75.894,332.773,56.157,112.135,61.112C74.082,61.967,43.697,93.05,43.697,131.112z"/>
	<linearGradient id="SVGID_3_" gradientUnits="userSpaceOnUse" x1="261.7793" y1="932.5557" x2="1243.6129" y2="-49.278">
		<stop  offset="0" style="stop-color:#F8F8F9"/>
		<stop  offset="1" style="stop-color:#FFFFFF"/>
	</linearGradient>
	<path opacity="0.7" fill="url(#SVGID_3_)" d="M83.533,128.022v603.174c0,30.493,24.479,55.34,54.968,55.796l1230.926,15.207
		c30.228,0.452,55.007-23.867,55.119-54.099l2.06-597.786c0.08-21.616-17.141-39.327-38.752-39.854L127.614,85.001
		C103.444,84.413,83.533,103.845,83.533,128.022z"/>
	<path fill="#EEDEFF" d="M1433.812,826.213c0,0-0.013,0-0.017,0L83.518,803.206c-0.553-0.01-0.993-0.466-0.983-1.018
		c0.01-0.547,0.454-0.982,1-0.982c0.005,0,0.012,0,0.012,0l1350.282,23.007c0.553,0.01,0.994,0.465,0.983,1.017
		C1434.802,825.776,1434.355,826.213,1433.812,826.213z"/>
	<path fill="#EEDEFF" d="M771.993,854.312c-8.298,0-15.048-6.751-15.048-15.05c0-8.298,6.75-15.049,15.048-15.049
		c8.299,0,15.05,6.751,15.05,15.049C787.043,847.561,780.292,854.312,771.993,854.312z M771.993,826.213
		c-7.195,0-13.048,5.854-13.048,13.049s5.853,13.05,13.048,13.05c7.194,0,13.05-5.854,13.05-13.05S779.188,826.213,771.993,826.213z
		"/>
	<linearGradient id="SVGID_4_" gradientUnits="userSpaceOnUse" x1="831.3789" y1="913.9902" x2="775.8815" y2="1125.4797">
		<stop  offset="0" style="stop-color:#AA5AFF"/>
		<stop  offset="0.0807" style="stop-color:#A856FF"/>
		<stop  offset="0.6468" style="stop-color:#9F3FFE"/>
		<stop  offset="1" style="stop-color:#9B36FE"/>
	</linearGradient>
	<path fill="url(#SVGID_4_)" d="M1007.069,1092.094H570.123c-11.87,0-20.785-8.45-18.489-17.527l5.606-22.174
		c1.687-6.669,9.023-11.564,17.736-11.836l421.231-13.145c9.104-0.284,17.163,4.548,19.147,11.479l10.107,35.317
		C1028.088,1083.384,1019.132,1092.094,1007.069,1092.094z"/>
	<path fill="#EEDEFF" d="M567.811,1079.445c-0.052,0-0.105-0.005-0.158-0.013c-0.547-0.088-0.917-0.601-0.83-1.146l2.575-16.128
		c1.351-8.463,8.551-14.695,17.119-14.82l191.451-2.8c0.538,0.002,1.007,0.433,1.015,0.985s-0.434,1.007-0.985,1.015l-191.451,2.8
		c-7.595,0.11-13.976,5.635-15.174,13.136l-2.575,16.128C568.719,1079.095,568.294,1079.445,567.811,1079.445z"/>
</g>
</svg>
