<?xml version="1.0" encoding="utf-8"?>
<!-- Generator: Adobe Illustrator 16.0.0, SVG Export Plug-In . SVG Version: 6.00 Build 0)  -->
<!DOCTYPE svg PUBLIC "-//W3C//DTD SVG 1.1//EN" "http://www.w3.org/Graphics/SVG/1.1/DTD/svg11.dtd">
<svg version="1.1" id="Illustration" xmlns="http://www.w3.org/2000/svg" xmlns:xlink="http://www.w3.org/1999/xlink" x="0px"
	 y="0px" width="858.184px" height="616.362px" viewBox="0 0 858.184 616.362" enable-background="new 0 0 858.184 616.362"
	 xml:space="preserve">
<g>
	<g>
		<linearGradient id="SVGID_1_" gradientUnits="userSpaceOnUse" x1="69.1768" y1="596.0347" x2="278.838" y2="386.3735">
			<stop  offset="0" style="stop-color:#92ECD0"/>
			<stop  offset="0.0172" style="stop-color:#90ECCF"/>
			<stop  offset="0.4442" style="stop-color:#6AE5BE"/>
			<stop  offset="0.7867" style="stop-color:#53E1B4"/>
			<stop  offset="1" style="stop-color:#4AE0B0"/>
		</linearGradient>
		<path fill="url(#SVGID_1_)" d="M156.041,552.174c12.272-3.865,32.41-12.703,41.966-30.806c2.095-3.971-0.174-8.844-4.529-9.937
			c-21.56-5.406-79.485-25.675-74.155-86.575c6.537-74.683,90.332-79.659,143.791-64.81c53.461,14.85,80.57,51.513,68.218,107.694
			c-11.647,52.971-113.431,92.678-174.812,88.322C154.315,555.907,153.934,552.837,156.041,552.174z"/>
		<path opacity="0.75" fill="#FFFFFF" d="M229.818,514.344c-2.022,0-3.199-0.063-3.3-0.068c-1.103-0.063-1.946-1.007-1.884-2.109
			c0.062-1.103,1.017-1.947,2.107-1.885c0.052,0.003,5.171,0.275,12.774-0.363c1.093-0.092,2.067,0.726,2.159,1.825
			c0.093,1.101-0.725,2.067-1.825,2.16C235.614,514.259,232.152,514.344,229.818,514.344z"/>
		<path opacity="0.75" fill="#FFFFFF" d="M264.464,509.24c-0.856,0-1.646-0.554-1.911-1.414c-0.324-1.057,0.27-2.175,1.325-2.499
			c23.278-7.146,38.347-20.77,44.786-40.495c6.561-20.1,5.925-38.867-1.836-54.271c-5.875-11.662-13.831-17.422-13.91-17.479
			c-0.898-0.641-1.109-1.889-0.471-2.788s1.882-1.111,2.785-0.475c0.353,0.251,8.729,6.272,15.067,18.742
			c5.816,11.442,10.914,30.709,2.167,57.511c-6.77,20.74-23.166,35.637-47.415,43.079
			C264.855,509.211,264.658,509.24,264.464,509.24z"/>
		<path fill="#F1FDF9" d="M223.791,419.386c0,0-8.854-31.63-39.785-19.851c-29.304,11.158-11.207,50.678,36.85,68.438
			c5.209,1.926,11.03,1.186,15.609-1.957c17.143-11.769,56.209-43.443,25.7-70.289C242.462,378.39,223.791,419.386,223.791,419.386z
			"/>
	</g>
	<g>
		<path fill="#FFFFFF" d="M669.221,196.765l-72.705,6.38c-21.168,1.858-39.035-15.54-37.742-36.75l5.61-92.047
			C565.441,57,579.148,43.098,596.48,41.794l72.648-5.462c21.016-1.581,38.593,15.75,37.311,36.785l-5.555,91.129
			C699.837,181.43,686.371,195.26,669.221,196.765z"/>
		<path fill="#BDD0FB" d="M626.719,175.096c-13.896,0-28.455-5.789-32.541-14.335c-1.621-3.394-2.818-10.063,7.395-16.611
			c9.46-6.066,17.674-8.202,24.422-6.349c6.653,1.828,9.271,6.92,9.379,7.136c0.495,0.988,0.096,2.189-0.893,2.684
			c-0.98,0.493-2.18,0.098-2.678-0.881c-0.094-0.178-2.035-3.792-6.959-5.106c-5.511-1.469-12.814,0.564-21.113,5.883
			c-5.815,3.729-7.815,7.604-5.943,11.519c4.115,8.61,25.372,15.412,40.651,10.317c17.766-5.922,5.077-74.515-1.31-100.445
			c-0.18-0.73,0.065-1.499,0.635-1.991c0.569-0.492,1.367-0.623,2.061-0.341c1.344,0.546,33.017,13.651,41.48,37.982
			c3.715,10.684,2.336,21.861-4.104,33.223c-0.545,0.961-1.764,1.298-2.727,0.754c-0.961-0.545-1.298-1.765-0.754-2.726
			c5.844-10.312,7.125-20.38,3.809-29.925c-6.238-17.958-27.098-29.765-35.58-33.93c1.783,7.845,5.684,26.098,7.888,44.724
			c4.011,33.892,0.602,52.891-10.133,56.47C635.703,174.481,631.245,175.096,626.719,175.096z"/>
	</g>
</g>
</svg>
