<?xml version="1.0" encoding="utf-8"?>
<!-- Generator: Adobe Illustrator 16.0.0, SVG Export Plug-In . SVG Version: 6.00 Build 0)  -->
<!DOCTYPE svg PUBLIC "-//W3C//DTD SVG 1.1//EN" "http://www.w3.org/Graphics/SVG/1.1/DTD/svg11.dtd">
<svg version="1.1" xmlns="http://www.w3.org/2000/svg" xmlns:xlink="http://www.w3.org/1999/xlink" x="0px" y="0px" width="976px"
	 height="894.786px" viewBox="0 0 976 894.786" enable-background="new 0 0 976 894.786" xml:space="preserve">
<g id="Background">
</g>
<g id="Illustration">
	<g>
		<g>
			<g>
				<g>
					<path fill="#FFFFFF" d="M651.824,295.255c-2.887,1.069-20.374,1.393-12.731,22.269c-0.067,1.748-4.025,4.104-5.15,2.873
						c-12.917-26.701,17.382-33.444,18.551-30.416C653.663,293.008,655.182,294.012,651.824,295.255z"/>
				</g>
				<g>
					<path fill="#FFFFFF" d="M622.726,325.639c-1.871,2.534-5.184,4.028-7.123,1.907c-1.91-2.09-17.376-45.315,33.258-54.677
						c0.621-0.114,1.263,0.023,1.781,0.383c0.52,0.36,0.874,0.913,0.983,1.535c0.344,1.939,0.439,3.479-0.569,4.83
						C606.001,288.915,624.597,323.105,622.726,325.639z"/>
				</g>
				<g>
					<path fill="#FFFFFF" d="M605.968,333.962c-0.717,2.15-4.421,5.265-7.008,2.435c-23.565-73.995,51.686-84.89,52.932-82.2
						c1.247,2.689-0.401,5.757-1.805,6.568C582.73,270.46,606.684,331.813,605.968,333.962z"/>
				</g>
			</g>
		</g>
		<g>
			<g>
				<linearGradient id="SVGID_1_" gradientUnits="userSpaceOnUse" x1="667.0342" y1="189.5762" x2="753.0635" y2="189.5762">
					<stop  offset="0" style="stop-color:#CC9CFF"/>
					<stop  offset="0.4079" style="stop-color:#BB7AFF"/>
					<stop  offset="0.7728" style="stop-color:#AE63FF"/>
					<stop  offset="1" style="stop-color:#AA5AFF"/>
				</linearGradient>
				<circle fill="url(#SVGID_1_)" cx="710.049" cy="189.576" r="43.015"/>
				<linearGradient id="SVGID_2_" gradientUnits="userSpaceOnUse" x1="666.9556" y1="234.1846" x2="753.0684" y2="234.1846">
					<stop  offset="0" style="stop-color:#CC9CFF"/>
					<stop  offset="0.4079" style="stop-color:#BB7AFF"/>
					<stop  offset="0.7728" style="stop-color:#AE63FF"/>
					<stop  offset="1" style="stop-color:#AA5AFF"/>
				</linearGradient>
				<path fill="url(#SVGID_2_)" d="M752.985,187.27h-42.937h-43.015c0,0-3.425,23.876,34.965,89.271
					c1.676,2.853,4.736,4.558,8.045,4.56c3.308,0.001,6.374-1.675,8.049-4.528C756.479,211.171,752.985,187.27,752.985,187.27z"/>
			</g>
			<g>
				<g>
					<path fill="#FFFFFF" d="M710.029,282.495v0.242h0.014c-3.744,0-7.239-2.061-9.12-5.265
						c-22.44-38.226-30.663-62.396-33.608-75.92c-0.84-3.11-1.322-6.16-1.475-9.287c-0.261-3.198-0.062-4.546-0.038-4.688
						l0.113-0.688c1.733-23.106,20.964-41.089,44.134-41.089c23.475,0,42.879,18.237,44.19,41.527
						c0.033,0.305,0.096,1.078,0.071,2.371l0.002,0.159c0,4.225-0.597,8.41-1.774,12.438c-3.047,13.512-11.32,37.443-33.378,75.024
						C717.267,280.546,713.899,282.495,710.029,282.495z M668.208,189.205c-0.011,0.646,0.009,1.566,0.122,2.953
						c0.144,2.962,0.604,5.81,1.403,8.763l0.015,0.049c2.901,13.341,11.039,37.208,33.328,75.178
						c1.436,2.444,4.096,3.96,6.958,3.962l-0.005,1.246v-1.249c2.58,0,5.53-1.531,6.978-3.997
						c21.916-37.34,30.098-61.069,33.099-74.401l0.022-0.077c1.118-3.813,1.436-7.773,1.436-11.774l-0.251-0.176v-0.014
						c0-1.245,0.211-1.918,0.19-2.095l0.119-0.072c-1.221-21.984-19.475-39.204-41.636-39.204c-22.119,0-40.402,17.463-41.663,39.64
						l-0.035,1.27H668.208z"/>
				</g>
			</g>
			<circle fill="#FFFFFF" cx="710.188" cy="189.438" r="24.838"/>
			<g>
				<g>
					<linearGradient id="SVGID_3_" gradientUnits="userSpaceOnUse" x1="683.9619" y1="189.4365" x2="736.4131" y2="189.4365">
						<stop  offset="0" style="stop-color:#AA5AFF"/>
						<stop  offset="0.0807" style="stop-color:#A856FF"/>
						<stop  offset="0.6468" style="stop-color:#9F3FFE"/>
						<stop  offset="1" style="stop-color:#9B36FE"/>
					</linearGradient>
					<path fill="url(#SVGID_3_)" d="M710.188,215.662c-14.461,0-26.226-11.764-26.226-26.225c0-14.46,11.765-26.226,26.226-26.226
						s26.226,11.766,26.226,26.226C736.413,203.898,724.648,215.662,710.188,215.662z M710.188,165.987
						c-12.931,0-23.45,10.52-23.45,23.45c0,12.93,10.52,23.45,23.45,23.45s23.45-10.521,23.45-23.45
						C733.638,176.507,723.118,165.987,710.188,165.987z"/>
				</g>
			</g>
			<g>
				<path fill="#FFFFFF" d="M686.627,163.577c-0.117,0-0.234-0.049-0.316-0.145c-0.149-0.175-0.13-0.438,0.045-0.587
					c6.978-5.992,15.892-9.293,25.102-9.293c0.229,0,0.416,0.187,0.416,0.417c0,0.229-0.187,0.416-0.416,0.416
					c-9.011,0-17.733,3.229-24.56,9.091C686.819,163.544,686.723,163.577,686.627,163.577z"/>
			</g>
			<g>
				<path fill="#FFFFFF" d="M673.326,192.516c-0.229,0-0.416-0.186-0.416-0.415c0-7.193,1.994-14.209,5.767-20.292
					c0.121-0.195,0.378-0.255,0.573-0.134s0.255,0.378,0.134,0.573c-3.69,5.95-5.642,12.814-5.642,19.853
					C673.742,192.33,673.557,192.516,673.326,192.516z"/>
			</g>
		</g>
		<linearGradient id="SVGID_4_" gradientUnits="userSpaceOnUse" x1="704.4551" y1="-155.7998" x2="552.4551" y2="72.1999">
			<stop  offset="0" style="stop-color:#394265"/>
			<stop  offset="1" style="stop-color:#3B3A6C"/>
		</linearGradient>
		<path fill="url(#SVGID_4_)" d="M465.472,765.218c-0.122,12.095-10.513,21.9-23.211,21.928l-306.956,0.669
			c-12.79,0.027-23.407-9.771-23.711-21.913L97.291,194.173c-0.341-13.594,10.395-24.587,23.974-24.522l325.831,1.558
			c13.476,0.065,24.286,11.114,24.148,24.649L465.472,765.218z"/>
		<path fill="#FFFFFF" d="M437.805,228.854c0.092-13.063-10.626-23.723-23.941-23.781l-258.61-1.137
			c-13.397-0.06-24.028,10.544-23.742,23.653l10.632,486.106c0.26,11.906,10.79,21.521,23.517,21.501l245.689-0.39
			c12.652-0.021,22.975-9.637,23.058-21.505L437.805,228.854z"/>
		<linearGradient id="SVGID_5_" gradientUnits="userSpaceOnUse" x1="286.7578" y1="96.2842" x2="285.1893" y2="191.9592">
			<stop  offset="0" style="stop-color:#394265"/>
			<stop  offset="1" style="stop-color:#3B3A6C"/>
		</linearGradient>
		<path fill="url(#SVGID_5_)" d="M323.524,186.574c0.007,2.535-2.032,4.579-4.553,4.567l-67.304-0.305
			c-2.526-0.012-4.6-2.077-4.63-4.614c-0.03-2.539,1.995-4.59,4.524-4.577l67.38,0.314
			C321.466,181.972,323.518,184.038,323.524,186.574z"/>
		<g>
			<linearGradient id="SVGID_6_" gradientUnits="userSpaceOnUse" x1="35.3154" y1="878.7686" x2="510.1761" y2="-215.4768">
				<stop  offset="0" style="stop-color:#B37CFF"/>
				<stop  offset="1" style="stop-color:#F895E7"/>
			</linearGradient>
			<polygon fill="url(#SVGID_6_)" points="195.461,573.652 156.691,535.161 158.13,616.367 195.378,573.744 			"/>
			<linearGradient id="SVGID_8_" gradientUnits="userSpaceOnUse" x1="95.6201" y1="904.9414" x2="570.4852" y2="-189.3143">
				<stop  offset="0" style="stop-color:#B37CFF"/>
				<stop  offset="1" style="stop-color:#F895E7"/>
			</linearGradient>
			<path fill="url(#SVGID_8_)" d="M214.186,592.247l-54.795,62.741l-0.556,0.644l1.58,49.716c0.125,4.769,2.679,9.357,6.72,12.749
				c3.563,2.983,8.188,4.813,13.027,5.204l77.426-87.948L214.186,592.247z"/>
			<linearGradient id="SVGID_9_" gradientUnits="userSpaceOnUse" x1="53.3638" y1="886.6006" x2="528.2234" y2="-207.6426">
				<stop  offset="0" style="stop-color:#B37CFF"/>
				<stop  offset="1" style="stop-color:#F895E7"/>
			</linearGradient>
			<polygon fill="url(#SVGID_9_)" points="168.238,510.068 212.494,554.186 231.163,572.8 274.569,616.069 345.933,535.021 
				345.922,535.011 302.683,491.182 302.809,491.18 303.044,491.057 303.044,491.046 284.199,472.173 284.022,472.193 
				283.978,472.209 283.945,472.194 283.916,472.173 239.639,427.333 151.398,338.097 154.729,484.481 			"/>
			<linearGradient id="SVGID_10_" gradientUnits="userSpaceOnUse" x1="184.7861" y1="943.6357" x2="659.6512" y2="-150.6199">
				<stop  offset="0" style="stop-color:#B37CFF"/>
				<stop  offset="1" style="stop-color:#F895E7"/>
			</linearGradient>
			<polygon fill="url(#SVGID_10_)" points="214.307,723.405 346.366,723.503 275.979,653.608 			"/>
			<linearGradient id="SVGID_11_" gradientUnits="userSpaceOnUse" x1="226.3882" y1="961.6914" x2="701.254" y2="-132.566">
				<stop  offset="0" style="stop-color:#B37CFF"/>
				<stop  offset="1" style="stop-color:#F895E7"/>
			</linearGradient>
			<path fill="url(#SVGID_11_)" d="M292.947,634.396l89.412,89.135l8.169,0.006c5.442,0.004,10.719-1.834,14.68-5.129
				c3.973-3.298,6.307-7.779,6.476-12.465l3.719-100.504l-51.105-51.809L292.947,634.396z"/>
			<linearGradient id="SVGID_12_" gradientUnits="userSpaceOnUse" x1="219.7212" y1="958.7959" x2="694.5851" y2="-135.457">
				<stop  offset="0" style="stop-color:#B37CFF"/>
				<stop  offset="1" style="stop-color:#F895E7"/>
			</linearGradient>
			<polygon fill="url(#SVGID_12_)" points="377.619,530.076 381.545,534.076 416.656,569.853 419.509,491.145 381.576,534.076 			
				"/>
			<linearGradient id="SVGID_13_" gradientUnits="userSpaceOnUse" x1="-21.6826" y1="854.0342" x2="453.1801" y2="-240.2159">
				<stop  offset="0" style="stop-color:#B37CFF"/>
				<stop  offset="1" style="stop-color:#F895E7"/>
			</linearGradient>
			<path fill="url(#SVGID_13_)" d="M238.132,388.096l70.961-82.52l-74.764-77.351l-61.711-0.396
				c-13.138-0.085-23.402,10.313-23.082,23.316l1.175,47.984L238.132,388.096z"/>
			<linearGradient id="SVGID_14_" gradientUnits="userSpaceOnUse" x1="40.4707" y1="881.0205" x2="515.3419" y2="-213.2493">
				<stop  offset="0" style="stop-color:#B37CFF"/>
				<stop  offset="1" style="stop-color:#F895E7"/>
			</linearGradient>
			<polygon fill="url(#SVGID_14_)" points="374.842,229.129 272.179,228.469 326.693,285.104 			"/>
			<linearGradient id="SVGID_15_" gradientUnits="userSpaceOnUse" x1="125.7197" y1="918.3867" x2="600.8511" y2="-176.4824">
				<stop  offset="0" style="stop-color:#B37CFF"/>
				<stop  offset="1" style="stop-color:#F895E7"/>
			</linearGradient>
			<polygon fill="url(#SVGID_15_)" points="327.949,325.09 257,407.293 301.224,452.307 319.835,471.252 362.515,515.324 
				419.695,449.544 419.695,449.533 421.581,422.583 421.735,422.435 			"/>
			<linearGradient id="SVGID_16_" gradientUnits="userSpaceOnUse" x1="134.3506" y1="921.752" x2="609.2153" y2="-172.5028">
				<stop  offset="0" style="stop-color:#B37CFF"/>
				<stop  offset="1" style="stop-color:#F895E7"/>
			</linearGradient>
			<path fill="url(#SVGID_16_)" d="M410.153,229.835l-64.597,74.859l77.995,81.01l4.908-132.364
				C428.894,241.842,421.014,232.137,410.153,229.835z"/>
		</g>
		<g>
			<linearGradient id="SVGID_17_" gradientUnits="userSpaceOnUse" x1="259.5806" y1="438.04" x2="-205.393" y2="1086.0042">
				<stop  offset="0" style="stop-color:#92ECD0"/>
				<stop  offset="0.0172" style="stop-color:#90ECCF"/>
				<stop  offset="0.4442" style="stop-color:#6AE5BE"/>
				<stop  offset="0.7867" style="stop-color:#53E1B4"/>
				<stop  offset="1" style="stop-color:#4AE0B0"/>
			</linearGradient>
			<polygon fill="url(#SVGID_17_)" points="195.461,573.652 156.691,535.161 158.13,616.367 195.378,573.744 			"/>
			<linearGradient id="SVGID_18_" gradientUnits="userSpaceOnUse" x1="323.9375" y1="484.2207" x2="-141.0371" y2="1132.1863">
				<stop  offset="0" style="stop-color:#92ECD0"/>
				<stop  offset="0.0172" style="stop-color:#90ECCF"/>
				<stop  offset="0.4442" style="stop-color:#6AE5BE"/>
				<stop  offset="0.7867" style="stop-color:#53E1B4"/>
				<stop  offset="1" style="stop-color:#4AE0B0"/>
			</linearGradient>
			<path fill="url(#SVGID_18_)" d="M214.186,592.247l-54.795,62.741l-0.556,0.644l1.58,49.716c0.125,4.769,2.679,9.357,6.72,12.749
				c3.563,2.983,8.188,4.813,13.027,5.204l77.426-87.948L214.186,592.247z"/>
			<linearGradient id="SVGID_19_" gradientUnits="userSpaceOnUse" x1="251.6753" y1="432.3643" x2="-213.3" y2="1080.3308">
				<stop  offset="0" style="stop-color:#92ECD0"/>
				<stop  offset="0.0172" style="stop-color:#90ECCF"/>
				<stop  offset="0.4442" style="stop-color:#6AE5BE"/>
				<stop  offset="0.7867" style="stop-color:#53E1B4"/>
				<stop  offset="1" style="stop-color:#4AE0B0"/>
			</linearGradient>
			<polygon fill="url(#SVGID_19_)" points="168.238,510.068 212.494,554.186 231.163,572.8 274.569,616.069 345.933,535.021 
				345.922,535.011 302.683,491.182 302.809,491.18 303.044,491.057 303.044,491.046 284.199,472.173 284.022,472.193 
				283.978,472.209 283.945,472.194 283.916,472.173 239.639,427.333 151.398,338.097 154.729,484.481 			"/>
			<linearGradient id="SVGID_20_" gradientUnits="userSpaceOnUse" x1="408.4775" y1="544.8838" x2="-56.4982" y2="1192.851">
				<stop  offset="0" style="stop-color:#92ECD0"/>
				<stop  offset="0.0172" style="stop-color:#90ECCF"/>
				<stop  offset="0.4442" style="stop-color:#6AE5BE"/>
				<stop  offset="0.7867" style="stop-color:#53E1B4"/>
				<stop  offset="1" style="stop-color:#4AE0B0"/>
			</linearGradient>
			<polygon fill="url(#SVGID_20_)" points="214.307,723.405 346.366,723.503 275.979,653.608 			"/>
			<linearGradient id="SVGID_21_" gradientUnits="userSpaceOnUse" x1="431.8232" y1="561.6367" x2="-33.1553" y2="1209.6078">
				<stop  offset="0" style="stop-color:#92ECD0"/>
				<stop  offset="0.0172" style="stop-color:#90ECCF"/>
				<stop  offset="0.4442" style="stop-color:#6AE5BE"/>
				<stop  offset="0.7867" style="stop-color:#53E1B4"/>
				<stop  offset="1" style="stop-color:#4AE0B0"/>
			</linearGradient>
			<path fill="url(#SVGID_21_)" d="M292.947,634.396l89.412,89.135l8.169,0.006c5.442,0.004,10.719-1.834,14.68-5.129
				c3.973-3.298,6.307-7.779,6.476-12.465l3.719-100.504l-51.105-51.809L292.947,634.396z"/>
			<linearGradient id="SVGID_22_" gradientUnits="userSpaceOnUse" x1="405.6406" y1="542.8496" x2="-59.3372" y2="1190.8197">
				<stop  offset="0" style="stop-color:#92ECD0"/>
				<stop  offset="0.0172" style="stop-color:#90ECCF"/>
				<stop  offset="0.4442" style="stop-color:#6AE5BE"/>
				<stop  offset="0.7867" style="stop-color:#53E1B4"/>
				<stop  offset="1" style="stop-color:#4AE0B0"/>
			</linearGradient>
			<polygon fill="url(#SVGID_22_)" points="381.545,534.076 416.656,569.853 419.509,491.145 381.576,534.076 			"/>
			<linearGradient id="SVGID_23_" gradientUnits="userSpaceOnUse" x1="199.7217" y1="309.123" x2="-164.7591" y2="601.6079">
				<stop  offset="0" style="stop-color:#92ECD0"/>
				<stop  offset="0.0172" style="stop-color:#90ECCF"/>
				<stop  offset="0.4442" style="stop-color:#6AE5BE"/>
				<stop  offset="0.7867" style="stop-color:#53E1B4"/>
				<stop  offset="1" style="stop-color:#4AE0B0"/>
			</linearGradient>
			<path fill="url(#SVGID_23_)" d="M238.132,388.096l70.961-82.52l-74.764-77.351l-61.711-0.396
				c-13.138-0.085-23.402,10.313-23.082,23.316l1.175,47.984L238.132,388.096z"/>
			<linearGradient id="SVGID_24_" gradientUnits="userSpaceOnUse" x1="213.2329" y1="325.9629" x2="-151.2488" y2="618.4485">
				<stop  offset="0" style="stop-color:#92ECD0"/>
				<stop  offset="0.0172" style="stop-color:#90ECCF"/>
				<stop  offset="0.4442" style="stop-color:#6AE5BE"/>
				<stop  offset="0.7867" style="stop-color:#53E1B4"/>
				<stop  offset="1" style="stop-color:#4AE0B0"/>
			</linearGradient>
			<polygon fill="url(#SVGID_24_)" points="374.842,229.129 272.179,228.469 326.693,285.104 			"/>
			<linearGradient id="SVGID_25_" gradientUnits="userSpaceOnUse" x1="307.0171" y1="472.0781" x2="-157.9606" y2="1120.0481">
				<stop  offset="0" style="stop-color:#92ECD0"/>
				<stop  offset="0.0172" style="stop-color:#90ECCF"/>
				<stop  offset="0.4442" style="stop-color:#6AE5BE"/>
				<stop  offset="0.7867" style="stop-color:#53E1B4"/>
				<stop  offset="1" style="stop-color:#4AE0B0"/>
			</linearGradient>
			<polygon fill="url(#SVGID_25_)" points="327.949,325.09 257,407.293 301.224,452.307 319.835,471.252 362.515,515.324 
				419.695,449.544 419.695,449.533 421.581,422.583 421.735,422.435 			"/>
			<linearGradient id="SVGID_26_" gradientUnits="userSpaceOnUse" x1="298.0986" y1="465.6787" x2="-166.8791" y2="1113.6487">
				<stop  offset="0" style="stop-color:#92ECD0"/>
				<stop  offset="0.0172" style="stop-color:#90ECCF"/>
				<stop  offset="0.4442" style="stop-color:#6AE5BE"/>
				<stop  offset="0.7867" style="stop-color:#53E1B4"/>
				<stop  offset="1" style="stop-color:#4AE0B0"/>
			</linearGradient>
			<path fill="url(#SVGID_26_)" d="M410.153,229.835l-64.597,74.859l77.995,81.01l4.908-132.364
				C428.894,241.842,421.014,232.137,410.153,229.835z"/>
		</g>
		<g>
			<path fill="#FFFFFF" d="M376.829,336.873c0,1.989-1.613,3.604-3.603,3.604H260.684c-1.989,0-3.603-1.614-3.603-3.604v-0.021
				c0-1.989,1.613-3.603,3.603-3.603h112.543c1.989,0,3.603,1.613,3.603,3.603V336.873z"/>
			<path fill="#FFFFFF" d="M376.829,356.487c0,1.989-1.613,3.603-3.603,3.603H260.684c-1.989,0-3.603-1.613-3.603-3.603v-0.021
				c0-1.99,1.613-3.604,3.603-3.604h112.543c1.989,0,3.603,1.613,3.603,3.604V356.487z"/>
			<path fill="#FFFFFF" d="M376.829,376.102c0,1.989-1.613,3.603-3.603,3.603H260.684c-1.989,0-3.603-1.613-3.603-3.603v-0.021
				c0-1.989,1.613-3.603,3.603-3.603h112.543c1.989,0,3.603,1.613,3.603,3.603V376.102z"/>
		</g>
		<g>
			<g>
				<g>
					<path fill="#FFFFFF" d="M183.732,653.586c-4.332,0-8.162-2.268-10.244-6.067c-10.833-19.757-23.745-45.772-23.745-57.521
						c0-18.741,15.248-33.989,33.99-33.989c18.741,0,33.989,15.248,33.989,33.989c0,11.75-12.913,37.766-23.745,57.521
						C191.895,651.318,188.065,653.586,183.732,653.586z M183.733,561.454c-15.739,0-28.544,12.805-28.544,28.543
						c0,8.147,8.41,28.158,23.073,54.903c1.112,2.028,3.157,3.239,5.47,3.239c2.313,0,4.358-1.211,5.47-3.239
						c14.664-26.744,23.074-46.755,23.074-54.903C212.276,574.259,199.472,561.454,183.733,561.454z"/>
				</g>
				<g>
					<path fill="#FFFFFF" d="M183.733,611.357c-11.364,0-20.61-9.245-20.61-20.609s9.246-20.609,20.61-20.609
						c11.363,0,20.608,9.245,20.608,20.609S195.097,611.357,183.733,611.357z M183.733,575.585c-8.361,0-15.164,6.802-15.164,15.163
						s6.803,15.164,15.164,15.164c8.36,0,15.163-6.803,15.163-15.164S192.094,575.585,183.733,575.585z"/>
				</g>
			</g>
			<g>
				<circle fill="#FFFFFF" cx="183.537" cy="677.862" r="12.934"/>
			</g>
		</g>
		<g>
			<g>
				<g>
					<path fill="#FFFFFF" d="M213.701,345.687c-4.068,0-7.665-2.13-9.62-5.697c-10.173-18.553-22.298-42.983-22.298-54.016
						c0-17.601,14.318-31.919,31.918-31.919c17.601,0,31.919,14.318,31.919,31.919c0,11.033-12.126,35.464-22.298,54.016
						C221.366,343.557,217.77,345.687,213.701,345.687z M213.701,259.169c-14.779,0-26.804,12.024-26.804,26.805
						c0,7.65,7.897,26.442,21.668,51.558c1.044,1.904,2.964,3.042,5.136,3.042s4.093-1.138,5.137-3.042
						c13.771-25.114,21.668-43.907,21.668-51.558C240.506,271.193,228.481,259.169,213.701,259.169z"/>
				</g>
				<g>
					<path fill="#FFFFFF" d="M213.701,306.032c-10.671,0-19.354-8.683-19.354-19.354c0-10.672,8.683-19.354,19.354-19.354
						c10.672,0,19.354,8.683,19.354,19.354C233.055,297.35,224.373,306.032,213.701,306.032z M213.701,272.438
						c-7.852,0-14.239,6.388-14.239,14.24c0,7.852,6.388,14.239,14.239,14.239s14.239-6.388,14.239-14.239
						C227.94,278.826,221.553,272.438,213.701,272.438z"/>
				</g>
			</g>
			<g>
				<circle fill="#FFFFFF" cx="213.517" cy="368.483" r="12.146"/>
			</g>
		</g>
		<g>
			<linearGradient id="SVGID_27_" gradientUnits="userSpaceOnUse" x1="331.6792" y1="418.9697" x2="699.6783" y2="678.9688">
				<stop  offset="0" style="stop-color:#CC9CFF"/>
				<stop  offset="0.4079" style="stop-color:#BB7AFF"/>
				<stop  offset="0.7728" style="stop-color:#AE63FF"/>
				<stop  offset="1" style="stop-color:#AA5AFF"/>
			</linearGradient>
			<path fill="url(#SVGID_27_)" d="M378.963,436.391L659.526,620.63c11.768,7.728,14.458,23.84,5.84,34.971l-1.414,1.828
				c-7.626,9.848-21.811,11.606-31.609,3.919L366.865,453.052L378.963,436.391z"/>
			<linearGradient id="SVGID_28_" gradientUnits="userSpaceOnUse" x1="98.1621" y1="335.8545" x2="409.3369" y2="335.8545">
				<stop  offset="0" style="stop-color:#CC9CFF"/>
				<stop  offset="0.4079" style="stop-color:#BB7AFF"/>
				<stop  offset="0.7728" style="stop-color:#AE63FF"/>
				<stop  offset="1" style="stop-color:#AA5AFF"/>
			</linearGradient>
			<path opacity="0.32" fill="url(#SVGID_28_)" d="M102.221,300.057C82.807,382.234,134.91,464.88,218.597,484.65
				c83.688,19.771,167.268-30.819,186.682-112.996c19.414-82.178-32.688-164.823-116.376-184.595
				C205.216,167.289,121.635,217.88,102.221,300.057z"/>
			<linearGradient id="SVGID_29_" gradientUnits="userSpaceOnUse" x1="173.7217" y1="211.7822" x2="431.7224" y2="611.7836">
				<stop  offset="0" style="stop-color:#CC9CFF"/>
				<stop  offset="0.4079" style="stop-color:#BB7AFF"/>
				<stop  offset="0.7728" style="stop-color:#AE63FF"/>
				<stop  offset="1" style="stop-color:#AA5AFF"/>
			</linearGradient>
			<path fill="url(#SVGID_29_)" d="M85.139,296.021c-21.603,91.441,36.374,183.402,129.495,205.402s186.124-34.293,207.727-125.734
				c21.603-91.44-36.374-183.403-129.495-205.403S106.742,204.58,85.139,296.021z M109.907,301.872
				c18.43-78.009,97.771-126.033,177.212-107.265c79.442,18.768,128.903,97.222,110.473,175.23
				c-18.429,78.009-97.77,126.033-177.211,107.265C140.938,458.334,91.478,379.882,109.907,301.872z"/>
			<g>
				<linearGradient id="SVGID_30_" gradientUnits="userSpaceOnUse" x1="199.5396" y1="284.6396" x2="415.5967" y2="284.6396">
					<stop  offset="0" style="stop-color:#CC9CFF"/>
					<stop  offset="0.4079" style="stop-color:#BB7AFF"/>
					<stop  offset="0.7728" style="stop-color:#AE63FF"/>
					<stop  offset="1" style="stop-color:#AA5AFF"/>
				</linearGradient>
				<path fill="url(#SVGID_30_)" d="M404.743,392.621c-0.322-0.12-0.485-0.479-0.365-0.803c1.413-3.764,2.694-7.629,3.81-11.49
					c0.096-0.331,0.439-0.523,0.772-0.427c0.331,0.096,0.522,0.44,0.427,0.772c-1.125,3.892-2.417,7.789-3.84,11.583
					c-0.094,0.25-0.332,0.404-0.584,0.404C404.89,392.661,404.815,392.649,404.743,392.621z M414.71,346.091
					c-0.345-0.019-0.607-0.313-0.589-0.657c0.599-10.971,0.019-22.04-1.723-32.899c-10.261-63.991-58.292-115.12-122.365-130.258
					c-29.882-7.06-60.887-5.622-89.669,4.158c-0.326,0.112-0.682-0.064-0.792-0.391c-0.109-0.326,0.064-0.681,0.391-0.791
					c29.003-9.855,60.249-11.304,90.356-4.191c32.014,7.563,60.616,24.214,82.718,48.152c21.586,23.38,35.623,52.124,40.594,83.123
					c1.755,10.947,2.339,22.105,1.735,33.165c-0.018,0.332-0.293,0.59-0.622,0.59C414.732,346.092,414.722,346.092,414.71,346.091z"
					/>
			</g>
			<linearGradient id="SVGID_31_" gradientUnits="userSpaceOnUse" x1="620.7158" y1="631.2842" x2="663.335" y2="631.2842">
				<stop  offset="0" style="stop-color:#CC9CFF"/>
				<stop  offset="0.4079" style="stop-color:#BB7AFF"/>
				<stop  offset="0.7728" style="stop-color:#AE63FF"/>
				<stop  offset="1" style="stop-color:#AA5AFF"/>
			</linearGradient>
			<path fill="url(#SVGID_31_)" d="M644.204,659.044c0.021,0,0.042-0.001,0.063-0.004c10.173-1.028,16.372-5.237,18.425-12.508
				c2.067-7.317-0.962-15.28-7.538-19.815l-33.46-23.079c-0.281-0.2-0.671-0.124-0.868,0.158c-0.195,0.284-0.124,0.673,0.16,0.868
				l33.46,23.078c6.136,4.234,8.967,11.648,7.046,18.451c-1.9,6.729-7.738,10.634-17.351,11.606
				c-0.343,0.034-0.593,0.34-0.558,0.684C643.616,658.804,643.888,659.044,644.204,659.044z"/>
			<linearGradient id="SVGID_32_" gradientUnits="userSpaceOnUse" x1="606.0684" y1="595.542" x2="611.6528" y2="595.542">
				<stop  offset="0" style="stop-color:#CC9CFF"/>
				<stop  offset="0.4079" style="stop-color:#BB7AFF"/>
				<stop  offset="0.7728" style="stop-color:#AE63FF"/>
				<stop  offset="1" style="stop-color:#AA5AFF"/>
			</linearGradient>
			<path fill="url(#SVGID_32_)" d="M611.029,597.663c0.197,0,0.393-0.094,0.514-0.269c0.195-0.284,0.124-0.673-0.159-0.868
				l-4.337-2.991c-0.283-0.2-0.672-0.126-0.868,0.158c-0.195,0.284-0.124,0.673,0.16,0.868l4.337,2.991
				C610.783,597.628,610.907,597.663,611.029,597.663z"/>
		</g>
		<linearGradient id="SVGID_33_" gradientUnits="userSpaceOnUse" x1="624.3564" y1="700.0322" x2="496.8582" y2="777.5311">
			<stop  offset="0" style="stop-color:#FF928E"/>
			<stop  offset="1" style="stop-color:#FEB3B1"/>
		</linearGradient>
		<path fill="url(#SVGID_33_)" d="M568.31,631.319l27.633,6.908l-6.908,51.813c0,0,10.363,10.363,13.816,24.18
			c3.455,13.816,6.64,71.831,6.64,71.831l6.557,3.965l0.798,3.309l-19.076,25.649l3.163-20.415c0.502-3.24-0.368-9.813-0.094-9.95
			c-10.362-27.634-32.528-105.477-32.528-105.477V631.319z"/>
		<linearGradient id="SVGID_34_" gradientUnits="userSpaceOnUse" x1="686.8008" y1="650.4141" x2="617.3011" y2="676.9139">
			<stop  offset="0" style="stop-color:#FF928E"/>
			<stop  offset="1" style="stop-color:#FEB3B1"/>
		</linearGradient>
		<path fill="url(#SVGID_34_)" d="M560.234,793.68c0.3-0.005,0.594,0.019,0.895,0c-1.336-16.659-7.438-89.977-13.545-117.456
			c-6.908-31.088,10.362-93.264,10.362-93.264l31.088,31.088l-17.271,58.722c11.835,17.753-1.931,121.722-1.635,121.677
			l-0.019,0.231l4.507,6.196l-0.549,3.359l-27.529,16.245l10.832-17.591C559.091,800.097,560.041,796.93,560.234,793.68z"/>
		
			<linearGradient id="SVGID_35_" gradientUnits="userSpaceOnUse" x1="5858.3193" y1="508.6104" x2="5891.3877" y2="508.6104" gradientTransform="matrix(-1 0 0 1 6480.4219 0)">
			<stop  offset="0" style="stop-color:#FF928E"/>
			<stop  offset="1" style="stop-color:#FEB3B1"/>
		</linearGradient>
		<path fill="url(#SVGID_35_)" d="M595.201,445.084c0,0,60.529,83.989,0,127.053l-6.167-5.498c0,0,30.051-35.428,0-78.797
			L595.201,445.084z"/>
		
			<linearGradient id="SVGID_36_" gradientUnits="userSpaceOnUse" x1="-5330.2124" y1="-616.5381" x2="-5340.7124" y2="-569.038" gradientTransform="matrix(1 0 0 1 6206.3765 0)">
			<stop  offset="0" style="stop-color:#394265"/>
			<stop  offset="1" style="stop-color:#3B3A6C"/>
		</linearGradient>
		<path fill="url(#SVGID_36_)" d="M544.726,823.027h8.785c1.646,0,3.196-0.755,4.199-2.059c2.738-3.559,8.412-10.502,11.126-10.683
			c3.652-0.244,3.186,12.741,3.186,12.741h2.047l2.594-16.136c0.652-4.061-1.366-8.082-5.012-9.984c0,0-0.835,6.175-5.362,8.906
			s-18.424,12.513-18.424,12.513s-1.702-0.242-3.57,0.095C541.521,818.922,541.909,823.027,544.726,823.027z"/>
		
			<linearGradient id="SVGID_37_" gradientUnits="userSpaceOnUse" x1="-6790.0938" y1="-1082.125" x2="-6800.5938" y2="-1034.624" gradientTransform="matrix(0.9218 -0.3878 0.3878 0.9218 7408.9238 -156.9229)">
			<stop  offset="0" style="stop-color:#394265"/>
			<stop  offset="1" style="stop-color:#3B3A6C"/>
		</linearGradient>
		<path fill="url(#SVGID_37_)" d="M597.085,822.026l8.098-3.407c1.516-0.638,2.653-1.936,3.072-3.525
			c1.145-4.342,3.683-12.942,6.113-14.162c3.271-1.642,7.877,10.51,7.877,10.51l1.887-0.794l-3.866-15.879
			c-0.973-3.995-4.394-6.92-8.491-7.26c0,0,1.624,6.017-1.489,10.289c-3.114,4.273-12.13,18.678-12.13,18.678
			s-1.663,0.437-3.255,1.472C592.54,819.484,594.489,823.118,597.085,822.026z"/>
		<linearGradient id="SVGID_38_" gradientUnits="userSpaceOnUse" x1="660.7061" y1="488.2549" x2="590.7057" y2="571.2552">
			<stop  offset="0" style="stop-color:#394265"/>
			<stop  offset="1" style="stop-color:#3B3A6C"/>
		</linearGradient>
		<path fill="url(#SVGID_38_)" d="M550.029,530.395c0,0,1.017,6.227-0.472,23.343c-1.489,17.117-8.604,57.304-7.155,95.755
			c0,0,20.226,4.713,55.366,2.48c0,0,14.83-60.032,11.217-82.854s-23.21-39.195-23.21-39.195L550.029,530.395z"/>
		
			<linearGradient id="SVGID_39_" gradientUnits="userSpaceOnUse" x1="5894.4336" y1="422.8994" x2="5917.9199" y2="422.8994" gradientTransform="matrix(-1 0 0 1 6480.4219 0)">
			<stop  offset="0" style="stop-color:#FF928E"/>
			<stop  offset="1" style="stop-color:#FEB3B1"/>
		</linearGradient>
		<polygon fill="url(#SVGID_39_)" points="564.975,416.016 562.502,445.084 585.988,445.084 580.148,400.714 		"/>
		<path fill="#CC9CFF" d="M592.946,441.064c-8.105-0.447-26.229-1.274-39.066-0.574c-6.76,0.368-12.422,5.218-13.805,11.845
			l-3.132,15.006c-1.166,5.589-0.992,11.376,0.509,16.885l12.577,46.169c0,0,11.187,6.723,35.746-0.472
			c0,0,21.567-51.431,12.739-84.332C597.828,443.036,595.588,441.21,592.946,441.064z"/>
		
			<linearGradient id="SVGID_40_" gradientUnits="userSpaceOnUse" x1="5866.2148" y1="1166.5801" x2="5879.2148" y2="1077.5786" gradientTransform="matrix(-1 0 0 1 6480.4219 0)">
			<stop  offset="0" style="stop-color:#FF928E"/>
			<stop  offset="1" style="stop-color:#FEB3B1"/>
		</linearGradient>
		<path fill="url(#SVGID_40_)" d="M540.688,449.644c-3.459,9.112-6.584,18.669-9.94,27.617c-1.707,4.479-3.438,8.87-5.291,12.903
			c-0.937,2.008-1.966,3.854-2.91,5.526c-0.945,1.656-2.01,3.034-2.564,3.669c-0.109,0.094,0.255,0.166,0.377,0.172
			c0.073,0.009-2.339,0.396-3.078,0.52l-2.892-0.018c-4.144-0.213-8.837-0.943-13.545-1.858c-9.496-1.771-19.369-4.257-29.506-6.137
			l-0.078-0.015c-1.939-0.36-3.804,0.921-4.164,2.86c-0.236,1.279,0.244,2.529,1.152,3.333c4.087,3.599,8.42,6.554,12.914,9.431
			c2.263,1.384,4.564,2.739,6.903,4.041c2.386,1.216,4.778,2.441,7.264,3.576c5.003,2.179,10.171,4.187,16.124,5.477
			c1.564,0.262,3.109,0.537,4.719,0.752c1.806,0.063,3.445,0.223,5.418,0.108c1.047-0.104,2.1-0.231,3.148-0.385
			c0.56-0.099,0.972-0.109,1.649-0.296c0.719-0.216,1.437-0.458,2.145-0.723c1.479-0.531,2.434-1.174,3.635-1.842
			c0.997-0.657,1.907-1.345,2.788-2.05c3.256-2.772,5.276-5.523,7.058-8.166c1.776-2.639,3.185-5.283,4.448-7.875
			c2.536-5.177,4.516-10.307,6.122-15.472c3.255-10.351,5.461-20.523,6.392-31.328c0.446-5.176-3.388-9.732-8.563-10.179
			c-4.284-0.369-8.144,2.194-9.6,6.022L540.688,449.644z"/>
		
			<linearGradient id="SVGID_41_" gradientUnits="userSpaceOnUse" x1="5919.0508" y1="1174.2578" x2="5932.0503" y2="1085.2615" gradientTransform="matrix(-1 0 0 1 6480.4219 0)">
			<stop  offset="0" style="stop-color:#FF928E"/>
			<stop  offset="1" style="stop-color:#FEB3B1"/>
		</linearGradient>
		<path fill="url(#SVGID_41_)" d="M474.529,496.682l-4.19-9.948l-22.059-5.496c0,0-1.765,3.823,7.5,5.496
			c0,0-3.31,3.658-1.545,7.959C456,498.994,474.75,503.304,474.529,496.682z"/>
		
			<linearGradient id="SVGID_42_" gradientUnits="userSpaceOnUse" x1="5933.5508" y1="422.8887" x2="5887.9121" y2="356.1526" gradientTransform="matrix(-1 0 0 1 6480.4219 0)">
			<stop  offset="0" style="stop-color:#FF928E"/>
			<stop  offset="1" style="stop-color:#FEB3B1"/>
		</linearGradient>
		<path fill="url(#SVGID_42_)" d="M555.03,382.446c-0.839,0.494-7.446,23.799-1.909,33.569c5.537,9.771,22.445-1.173,27.027-15.302
			C584.731,386.585,577.369,369.271,555.03,382.446z"/>
		
			<linearGradient id="SVGID_43_" gradientUnits="userSpaceOnUse" x1="5783.9648" y1="441.2607" x2="5932.6729" y2="441.2607" gradientTransform="matrix(-1 0 0 1 6480.4219 0)">
			<stop  offset="0" style="stop-color:#394265"/>
			<stop  offset="1" style="stop-color:#3B3A6C"/>
		</linearGradient>
		<path fill="url(#SVGID_43_)" d="M598.854,400.714c3.793,18.582,16.359,13.496,25.26,21.763
			c14.425,13.399,35.061-0.413,55.122,12.284c14.483,9.166,21.461,32.617,14.511,51.551c-9.626,26.225-42.522,37.009-59.57,29.021
			c-16.293-7.633-13.973-30.496-35.895-39.331c-9.307-3.752-13.901-1.314-19.475-6.874c-9.758-9.732-7.125-28.619-6.11-35.895
			c2.201-15.788,7.494-18.646,4.964-25.585c-4.92-13.495-27.872-10.711-29.785-20.238c-1.741-8.677,14.895-25.121,30.549-22.53
			C602.646,368.891,597.164,392.436,598.854,400.714z"/>
		<path opacity="0.6" fill="#FFFFFF" d="M686.513,481.871c0.287,0,0.546-0.194,0.616-0.485c3.102-12.875,1.694-23.434-4.184-31.384
			c-9.754-13.193-28.712-14.499-28.903-14.51c-0.298-0.05-0.648,0.244-0.671,0.595c-0.021,0.35,0.244,0.65,0.595,0.671
			c0.185,0.012,18.568,1.287,27.966,14.006c5.64,7.634,6.974,17.836,3.964,30.324c-0.082,0.341,0.128,0.684,0.469,0.766
			C686.413,481.864,686.464,481.871,686.513,481.871z"/>
		<path opacity="0.72" fill="#FFFFFF" d="M624.421,493.656c0.026,0,0.054-0.003,0.081-0.01c0.168-0.045,0.27-0.218,0.227-0.388
			c-3.021-11.59-8.322-19.639-15.753-23.926c-5.406-3.118-10.47-3.408-14.936-3.664c-4.307-0.248-8.025-0.462-11.02-3.124
			c-6.188-5.503-5.829-18.732,1.065-39.322c0.056-0.167-0.034-0.346-0.2-0.401c-0.167-0.057-0.346,0.034-0.401,0.2
			c-6.982,20.853-7.28,34.31-0.885,39.996c3.158,2.81,6.979,3.03,11.404,3.284c4.396,0.252,9.378,0.538,14.654,3.581
			c7.279,4.197,12.479,12.117,15.455,23.537C624.151,493.563,624.279,493.656,624.421,493.656z"/>
		<path opacity="0.72" fill="#FFFFFF" d="M589.881,396.102c0.034,0,0.067-0.004,0.102-0.016c0.166-0.056,0.256-0.236,0.199-0.401
			c-2.4-7.145-9.319-6.083-16.65-4.956c-4.639,0.714-9.436,1.447-13.505,0.244c-3.035-0.9-4.839-2.295-5.359-4.146
			c-0.891-3.152,2.228-6.667,2.259-6.703c0.117-0.13,0.106-0.331-0.023-0.447c-0.129-0.117-0.331-0.106-0.447,0.023
			c-0.139,0.154-3.383,3.806-2.4,7.297c0.585,2.075,2.533,3.617,5.791,4.583c4.207,1.246,9.073,0.499,13.782-0.224
			c7.358-1.13,13.721-2.109,15.952,4.531C589.625,396.02,589.749,396.102,589.881,396.102z"/>
		
			<linearGradient id="SVGID_44_" gradientUnits="userSpaceOnUse" x1="2848.291" y1="404.6553" x2="2831.157" y2="428.8294" gradientTransform="matrix(-1 0 0 1 3502.6748 0)">
			<stop  offset="0" style="stop-color:#FF928E"/>
			<stop  offset="1" style="stop-color:#FEB3B1"/>
		</linearGradient>
		<path fill="url(#SVGID_44_)" d="M659.708,418.236c0,0,2.407-4.354,2.148-7.855s1.924-8.646-0.398-8.265
			c-2.323,0.381-2.802,0.07-3.433,4.272C657.396,410.591,651.726,426.092,659.708,418.236z"/>
		
			<linearGradient id="SVGID_45_" gradientUnits="userSpaceOnUse" x1="2701.3877" y1="817.9707" x2="2812.9167" y2="781.1963" gradientTransform="matrix(-1 0 0 1 3502.6748 0)">
			<stop  offset="0" style="stop-color:#394265"/>
			<stop  offset="1" style="stop-color:#3B3A6C"/>
		</linearGradient>
		<path fill="url(#SVGID_45_)" d="M758.746,800.441c1.063-3.776,4.551-6.339,8.473-6.215l3.879,0.122
			c20.436,4.899,31.084,16.741,35.284,22.564c0.166,0.23,0.016,0.552-0.267,0.575c-6.448,0.521-21.432,1.557-34.113,1.202
			c-8.46-0.236-12.976-0.568-15.237-1.493C756.803,810.594,757.715,804.104,758.746,800.441z"/>
		<linearGradient id="SVGID_46_" gradientUnits="userSpaceOnUse" x1="719.1191" y1="798.4121" x2="894.1176" y2="854.5137">
			<stop  offset="0" style="stop-color:#4042E2"/>
			<stop  offset="1" style="stop-color:#4F52FF"/>
		</linearGradient>
		<path fill="url(#SVGID_46_)" d="M771.86,818.251c-8.459-0.237-12.834-1.232-15.097-2.158c-0.005,0.842,0,1.697,0.027,2.585
			c0.029,0.947,0.73,1.703,1.594,1.698l46.447-0.301c1.482-0.009,2.349-1.729,1.706-3.087
			C800.448,817.491,784.938,818.616,771.86,818.251z"/>
		
			<linearGradient id="SVGID_47_" gradientUnits="userSpaceOnUse" x1="2734.1367" y1="765.9912" x2="2727.5317" y2="823.6357" gradientTransform="matrix(-1 0 0 1 3502.6748 0)">
			<stop  offset="0" style="stop-color:#FF928E"/>
			<stop  offset="1" style="stop-color:#FEB3B1"/>
		</linearGradient>
		<path fill="url(#SVGID_47_)" d="M777.62,781.022l-3.244,15.617c-0.237,1.145-1.117,2.001-2.182,2.101
			c-1.304,0.123-3.16,0.195-5.026-0.08c-1.674-0.245-2.839-1.946-2.542-3.771l2.255-13.866H777.62z"/>
		<linearGradient id="SVGID_48_" gradientUnits="userSpaceOnUse" x1="665.0464" y1="802.4189" x2="763.8623" y2="845.1329">
			<stop  offset="0" style="stop-color:#4042E2"/>
			<stop  offset="1" style="stop-color:#4F52FF"/>
		</linearGradient>
		<path fill="url(#SVGID_48_)" d="M710.405,818.251c8.459-0.237,12.835-1.232,15.097-2.158c0.005,0.842,0,1.697-0.026,2.585
			c-0.029,0.947-0.731,1.703-1.595,1.698l-46.447-0.301c-1.482-0.009-2.349-1.729-1.706-3.087
			C681.817,817.491,697.328,818.616,710.405,818.251z"/>
		
			<linearGradient id="SVGID_49_" gradientUnits="userSpaceOnUse" x1="2780.8271" y1="813.3516" x2="2884.4888" y2="779.1713" gradientTransform="matrix(-1 0 0 1 3502.6748 0)">
			<stop  offset="0" style="stop-color:#394265"/>
			<stop  offset="1" style="stop-color:#3B3A6C"/>
		</linearGradient>
		<path fill="url(#SVGID_49_)" d="M675.728,816.988c0.057-0.118,0.104-0.239,0.184-0.351c4.103-5.731,14.55-17.145,35.194-22.095
			l9.903-0.313c0,0,4.41,7.665,4.493,21.862c-2.262,0.926-6.638,1.921-15.097,2.158
			C697.328,818.616,681.817,817.491,675.728,816.988z"/>
		
			<linearGradient id="SVGID_50_" gradientUnits="userSpaceOnUse" x1="2787.9385" y1="772.1563" x2="2781.3337" y2="829.7989" gradientTransform="matrix(-1 0 0 1 3502.6748 0)">
			<stop  offset="0" style="stop-color:#FF928E"/>
			<stop  offset="1" style="stop-color:#FEB3B1"/>
		</linearGradient>
		<path fill="url(#SVGID_50_)" d="M722.846,779.222c-0.11,0.737-1.468,11.957-1.993,16.308c-0.125,1.034-0.874,1.834-1.818,1.946
			c-1.686,0.202-4.415,0.385-6.803-0.104c-1.287-0.264-2.22-1.501-2.22-2.94v-17.611L722.846,779.222z"/>
		<linearGradient id="SVGID_51_" gradientUnits="userSpaceOnUse" x1="743.0635" y1="-148.2627" x2="749.7573" y2="602.4175">
			<stop  offset="0" style="stop-color:#394265"/>
			<stop  offset="1" style="stop-color:#3B3A6C"/>
		</linearGradient>
		<path fill="url(#SVGID_51_)" d="M730.791,574.466c0,0-23.887,90.779-23.455,205.016c0.008,2.082,1.47,3.88,3.508,4.309
			c3.004,0.633,7.419,1.384,11.073,1.281c1.951-0.054,3.582-1.501,3.91-3.425c3.35-19.642,22.57-130.293,33.521-148.257
			c0,0,7.205,98.551,4.902,149.68c-0.058,1.271,0.874,2.374,2.138,2.52c1.918,0.222,4.985,0.391,8.89-0.024
			c1.482-0.157,2.678-1.277,2.89-2.753c2.386-16.623,16.117-115.57,15.533-186.849c-0.033-4.02-10.63-21.497-10.63-21.497H730.791z"
			/>
		
			<linearGradient id="SVGID_52_" gradientUnits="userSpaceOnUse" x1="2697.083" y1="472.9873" x2="2720.2437" y2="406.4938" gradientTransform="matrix(-1 0 0 1 3502.6748 0)">
			<stop  offset="0" style="stop-color:#53D8FF"/>
			<stop  offset="1" style="stop-color:#3840F7"/>
		</linearGradient>
		<path fill="url(#SVGID_52_)" d="M805.252,495.516c6.493-17.77,4.138-39.228,4.113-39.441l-1.789,0.205
			c0.023,0.21,2.329,21.256-4.017,38.618L805.252,495.516z"/>
		
			<linearGradient id="SVGID_53_" gradientUnits="userSpaceOnUse" x1="2832.8926" y1="367.9678" x2="2879.0801" y2="585.4752" gradientTransform="matrix(-1 0 0 1 3502.6748 0)">
			<stop  offset="0" style="stop-color:#FF928E"/>
			<stop  offset="1" style="stop-color:#FEB3B1"/>
		</linearGradient>
		<path fill="url(#SVGID_53_)" d="M638.813,502.948c-5.36-29.164,1.896-80.095,1.896-80.095l11.547,11.404
			c0,0,1.138,41.558,8.597,57.795C655.943,492.638,646.425,494.83,638.813,502.948z"/>
		<linearGradient id="SVGID_54_" gradientUnits="userSpaceOnUse" x1="638.8135" y1="508.2783" x2="842.4385" y2="508.2783">
			<stop  offset="0" style="stop-color:#CC9CFF"/>
			<stop  offset="0.4079" style="stop-color:#BB7AFF"/>
			<stop  offset="0.7728" style="stop-color:#AE63FF"/>
			<stop  offset="1" style="stop-color:#AA5AFF"/>
		</linearGradient>
		<path fill="url(#SVGID_54_)" d="M660.853,492.053c1.408,3.065,3.019,5.313,4.858,6.321c6.735,3.698,19.802-17.404,29.541-35.693
			c7.004-13.146,12.294-24.835,12.294-24.835c7.004-7.911,24.352-8.999,40.489-7.99c16.8,1.043,32.265,4.349,33.386,4.595
			c0.045,0.012,0.066,0.012,0.066,0.012c7.733,1.02,14.446,1.871,19.299,2.487c5.671,0.718,10.859,3.519,14.603,7.845
			c14.826,17.158,47.37,64.147,9.066,111.497c-4.897-2.724-11.868-7.083-16.598-12.138c4.236-11.946,4.583-27.21-4.292-45.937
			c-0.303,1.49-0.684,2.959-1.132,4.404c-12.249,38.775-12.899,71.051-12.865,78.481c0,1.02-0.605,1.928-1.547,2.297
			c-16.104,6.456-47.124,2.611-57.524,1.064c-1.916-0.28-3.194-2.062-2.937-3.978c3.104-22.492-5.368-53.805-14.042-78.336
			c-50.9,50.441-69.081,31.396-74.705,0.798C646.425,494.83,655.943,492.638,660.853,492.053z"/>
		<linearGradient id="SVGID_55_" gradientUnits="userSpaceOnUse" x1="900.3062" y1="543.9863" x2="852.8061" y2="558.4863">
			<stop  offset="0" style="stop-color:#FF928E"/>
			<stop  offset="1" style="stop-color:#FEB3B1"/>
		</linearGradient>
		<path fill="url(#SVGID_55_)" d="M779.406,576.702c4.421-2.48,21.565-13.128,28.455-32.549c4.73,5.049,11.695,9.412,16.597,12.133
			c-7.319,9.048-17.225,18.109-30.336,26.978c-0.466,10.091-8.223,13.827-9.997,17.096s0.747,2.521-0.373,6.631
			c-1.121,4.108-12.888-6.538-15.689-8.966s-1.121-9.152-1.121-9.152s-0.187-1.4-0.934-4.202
			C765.262,581.874,779.349,576.723,779.406,576.702z"/>
		
			<linearGradient id="SVGID_56_" gradientUnits="userSpaceOnUse" x1="2748.7266" y1="396.8281" x2="2723.5078" y2="505.8087" gradientTransform="matrix(-1 0 0 1 3502.6748 0)">
			<stop  offset="0" style="stop-color:#FF928E"/>
			<stop  offset="1" style="stop-color:#FEB3B1"/>
		</linearGradient>
		<path fill="url(#SVGID_56_)" d="M773.004,405.314l3.104,31.722c0,0-17.846,5.375-30.824-3.783l9.124-28.83L773.004,405.314z"/>
		<linearGradient id="SVGID_57_" gradientUnits="userSpaceOnUse" x1="886.6572" y1="338.0107" x2="850.6567" y2="354.011">
			<stop  offset="0" style="stop-color:#FF928E"/>
			<stop  offset="1" style="stop-color:#FEB3B1"/>
		</linearGradient>
		<path fill="url(#SVGID_57_)" d="M742.713,378.281c-0.212,0.55-1.109,39.538-1.109,39.538l22.272,0.039l6.341-36.826
			C770.217,381.032,746.262,369.066,742.713,378.281z"/>
		
			<linearGradient id="SVGID_58_" gradientUnits="userSpaceOnUse" x1="1271.0845" y1="-1142.2852" x2="1324.5259" y2="-1142.2852" gradientTransform="matrix(-0.9332 -0.3594 -0.3594 0.9332 1553.2305 1930.0303)">
			<stop  offset="0" style="stop-color:#394265"/>
			<stop  offset="1" style="stop-color:#3B3A6C"/>
		</linearGradient>
		<path fill="url(#SVGID_58_)" d="M762.583,385.636c0.724,0.68,1.092,1.648,1,2.637l-1.793,19.363
			c-0.027,0.294-0.091,0.579-0.198,0.854c-0.594,1.515-2.869,6.186-7.609,3.594c-4.041-2.209-7.784-4.184-10.824-4.278
			c-1.775-0.056-3.241,1.374-3.275,3.15c-0.07,3.658-0.063,11.043,0.864,17.604c0.232,1.644,1.705,2.821,3.362,2.717
			c4.373-0.276,12.897-1.071,19.743-3.271c1.124-0.361,1.955-1.309,2.169-2.47c0.943-5.111,3.646-19.428,5.031-23.351
			c1.287-3.646,6.289-4.908,8.625-5.306c0.887-0.15,1.665-0.657,2.158-1.409c1.48-2.255,3.613-7.126-2.254-10.817
			c-1.459-0.918-1.879-2.872-0.991-4.35c1.59-2.647,2.733-6.731-1.905-10.226c-4.696-3.538-9.245-1.872-12.031-0.087
			c-1.232,0.789-2.893,0.741-3.981-0.237c-0.484-0.436-1.148-0.686-2.051-0.457c-1.703,0.432-3.403-0.498-3.846-2.198
			c-0.758-2.915-2.813-6.187-8.19-6.48c-9.861-0.54-13.336,9.731-12.238,16.466s11.822,6.712,17.643,4.771
			C756.267,380.428,760.589,383.765,762.583,385.636z"/>
		
			<linearGradient id="SVGID_59_" gradientUnits="userSpaceOnUse" x1="1240.5415" y1="-1109.8887" x2="1275.955" y2="-1146.2219" gradientTransform="matrix(-0.9332 -0.3594 -0.3594 0.9332 1553.2305 1930.0303)">
			<stop  offset="0" style="stop-color:#FF928E"/>
			<stop  offset="1" style="stop-color:#FEB3B1"/>
		</linearGradient>
		<path fill="url(#SVGID_59_)" d="M769.307,409.01c0,0-0.396-11.494,4.223-13.256c4.619-1.761,10.239,0.982,7.126,8.6
			C776.783,413.827,769.307,409.01,769.307,409.01z"/>
		<linearGradient id="SVGID_60_" gradientUnits="userSpaceOnUse" x1="944.1055" y1="432.6064" x2="828.1008" y2="458.6076">
			<stop  offset="0" style="stop-color:#4042E2"/>
			<stop  offset="1" style="stop-color:#4F52FF"/>
		</linearGradient>
		<path fill="url(#SVGID_60_)" d="M713.148,501.086c0.023,0,0.047-0.002,0.07-0.004c0.307-0.039,0.524-0.318,0.486-0.626
			c-0.031-0.246-3.05-24.736-1.411-31.792c0.07-0.302-0.117-0.603-0.419-0.673c-0.3-0.074-0.603,0.117-0.672,0.419
			c-1.685,7.248,1.264,31.17,1.39,32.185C712.628,500.879,712.87,501.086,713.148,501.086z"/>
		<linearGradient id="SVGID_61_" gradientUnits="userSpaceOnUse" x1="683.125" y1="344.6182" x2="648.7917" y2="419.2845">
			<stop  offset="0" style="stop-color:#394265"/>
			<stop  offset="1" style="stop-color:#3B3A6C"/>
		</linearGradient>
		<path fill="url(#SVGID_61_)" d="M639.697,350.898c-0.078-1.374,0.459-2.711,1.466-3.649c1.006-0.938,2.377-1.38,3.741-1.206
			l34.072,4.346c1.322,0.169,2.308,1.305,2.288,2.638l-1.278,87.584c-0.006,0.378-0.162,0.737-0.434,1
			c-0.272,0.262-0.638,0.403-1.016,0.395l-29.439-0.7c-2.412-0.057-4.375-1.956-4.512-4.365L639.697,350.898z"/>
		<linearGradient id="SVGID_62_" gradientUnits="userSpaceOnUse" x1="704.0938" y1="376.2041" x2="566.5924" y2="433.7047">
			<stop  offset="0" style="stop-color:#92ECD0"/>
			<stop  offset="0.0172" style="stop-color:#90ECCF"/>
			<stop  offset="0.4442" style="stop-color:#6AE5BE"/>
			<stop  offset="0.7867" style="stop-color:#53E1B4"/>
			<stop  offset="1" style="stop-color:#4AE0B0"/>
		</linearGradient>
		<path fill="url(#SVGID_62_)" d="M649.559,354.986c-0.033-0.781,0.285-1.535,0.866-2.058c0.582-0.522,1.365-0.758,2.139-0.643
			l22.465,3.354c1.299,0.192,2.254,1.318,2.233,2.631l-1.156,74.593c-0.006,0.392-0.174,0.763-0.463,1.025
			c-0.289,0.264-0.675,0.395-1.064,0.363l-20.575-1.635c-0.714-0.057-1.272-0.638-1.302-1.353L649.559,354.986z"/>
		<linearGradient id="SVGID_63_" gradientUnits="userSpaceOnUse" x1="665.4795" y1="298.7295" x2="666.1464" y2="329.4055">
			<stop  offset="0" style="stop-color:#09005D"/>
			<stop  offset="1" style="stop-color:#1A0F91"/>
		</linearGradient>
		<path fill="url(#SVGID_63_)" d="M661.968,351.776c-0.029,0.267,0.359,0.526,0.866,0.582l7.481,0.808
			c0.508,0.055,0.942-0.117,0.971-0.384l0.028-0.259c0.028-0.267-0.359-0.526-0.866-0.582l-7.482-0.808
			c-0.507-0.055-0.941,0.117-0.97,0.384L661.968,351.776z"/>
		
			<linearGradient id="SVGID_64_" gradientUnits="userSpaceOnUse" x1="2851.3867" y1="364.04" x2="2897.5742" y2="581.5479" gradientTransform="matrix(-1 0 0 1 3502.6748 0)">
			<stop  offset="0" style="stop-color:#FF928E"/>
			<stop  offset="1" style="stop-color:#FEB3B1"/>
		</linearGradient>
		<path fill="url(#SVGID_64_)" d="M636.597,402.817c2.588-0.953,7.652-9.718,8.622-6.834c0.97,2.883-0.41,6.834,0,8.061
			c0.409,1.226,3.211,8.038,1.95,11.172c-0.909,2.261-2.41,9.219-3.176,12.918c-0.254,1.228-0.393,2.827-1.646,2.827
			c-1.254,0.001-2.401-1.557-2.656-2.784C639.588,427.685,634.008,403.771,636.597,402.817z"/>
	</g>
</g>
</svg>
